<svg width="100" height="100" viewBox="0 0 100 100" fill="none" xmlns="http://www.w3.org/2000/svg">
<rect width="100" height="100" fill="white"/>
<path d="M53.6152 24.333V41.2146C53.6152 42.4544 52.6104 43.4542 51.3757 43.4542C50.1359 43.4542 49.1361 42.4494 49.1361 41.2146V24.6579C49.1361 21.0786 46.9566 18.7341 43.5822 18.7341C40.2079 18.7341 37.9883 21.0786 37.9883 24.6579V41.2096C37.9883 42.4494 36.9835 43.4492 35.7488 43.4492C34.509 43.4492 33.5092 42.4444 33.5092 41.2096V24.6579C33.5092 21.0786 31.2897 18.7341 27.9153 18.7341C24.541 18.7341 22.3614 21.0786 22.3614 24.6579V41.2096C22.3614 42.4494 21.3566 43.4492 20.1219 43.4492C18.8821 43.4492 17.8823 42.4444 17.8823 41.2096V24.333C17.8823 18.5341 21.9515 14.6299 27.3804 14.6299C31.1647 14.6299 34.2491 16.5645 35.7688 19.6889C37.2885 16.5645 40.3729 14.6299 44.1571 14.6299C49.586 14.6249 53.6152 18.6141 53.6152 24.333Z" fill="#1C1D24"/>
<path d="M93.5032 24.6124L85.9997 16.9989C86.3346 15.7891 86.0497 14.4394 85.1099 13.4896L85.1049 13.4846C84.1201 12.4898 82.6354 12.1049 81.3556 12.6448C78.8011 13.7246 78.3862 16.8239 80.1009 18.5636C80.7907 19.2635 81.6955 19.6134 82.6054 19.6134C82.9303 19.6134 83.2452 19.5534 83.5602 19.4634L90.8687 26.8769C95.0329 31.0961 95.2179 38.1897 91.0437 42.3989C89.0291 44.4285 86.3596 45.5482 83.5202 45.5532C80.6657 45.5532 77.9863 44.4285 75.9717 42.3839L68.4632 34.7754C68.7981 33.5656 68.5132 32.2159 67.5733 31.2661L67.5683 31.2611C66.5835 30.2663 65.0988 29.8814 63.8191 30.4212C61.2646 31.501 60.8497 34.6004 62.5643 36.3401C63.2342 37.0199 64.124 37.3899 65.0688 37.3899C65.3988 37.3899 65.7237 37.3399 66.0386 37.2499L73.5322 44.8484C76.2016 47.5528 79.7459 49.0426 83.5202 49.0426C85.9297 49.0376 88.2442 48.4277 90.2988 47.2829C88.3892 67.9088 71.2226 84.1056 50.3867 84.1056C28.831 84.1056 11.1945 66.769 10.3247 45.1283C10.2847 44.1935 9.52984 43.4537 8.60503 43.4537C7.62522 43.4537 6.84038 44.2835 6.88037 45.2783C7.82518 68.7786 26.9814 87.5999 50.3867 87.5999C74.0871 87.5999 93.4082 68.2987 93.9031 44.3885C98.9921 38.7946 98.8671 30.0463 93.5032 24.6124ZM81.7255 16.9239C81.2406 16.434 81.2406 15.6342 81.7255 15.1443C81.9655 14.8993 82.2854 14.7743 82.6054 14.7743C82.9253 14.7743 83.2402 14.8993 83.4852 15.1443C83.9701 15.6342 83.9701 16.434 83.4852 16.9239C83.0003 17.4138 82.2104 17.4138 81.7255 16.9239ZM64.194 34.7004C63.7091 34.2105 63.7091 33.4107 64.194 32.9207C64.434 32.6758 64.7539 32.5508 65.0738 32.5508C65.3938 32.5508 65.7087 32.6758 65.9537 32.9207C66.4386 33.4107 66.4386 34.2105 65.9537 34.7004C65.4838 35.1753 64.6639 35.1753 64.194 34.7004Z" fill="#89124B"/>
<path d="M11.7051 36.5444C11.955 38.8039 10.3203 40.8485 8.06078 41.0985C5.80123 41.3484 3.75664 39.7138 3.50669 37.4542C3.25674 35.1947 4.89141 33.1551 7.15097 32.9051C9.41552 32.6502 11.4551 34.2848 11.7051 36.5444Z" fill="#89124B"/>
<path d="M4.8215 41.2034C3.93167 40.6786 3.21182 39.8487 2.8019 38.8739C2.39198 37.8991 2.287 36.7893 2.52695 35.7445C2.56195 35.6146 2.58194 35.4796 2.62693 35.3546L2.75691 34.9747C2.86689 34.7297 2.97186 34.4798 3.11684 34.2548C3.39178 33.7899 3.72672 33.365 4.13663 33.0051C4.23162 32.9101 4.34159 32.8251 4.44657 32.7451C4.55655 32.6651 4.65653 32.5752 4.77651 32.5102C4.89148 32.4402 5.00646 32.3652 5.12144 32.3002L5.48637 32.1252L5.57635 32.0803L5.67133 32.0453L5.86129 31.9753L6.05125 31.9053C6.11624 31.8803 6.18123 31.8703 6.24622 31.8503C6.37619 31.8203 6.50616 31.7803 6.64114 31.7553L7.04106 31.6953C7.58095 31.6453 8.12584 31.6553 8.65574 31.7653C9.18563 31.8753 9.70053 32.0603 10.1754 32.3202C10.6453 32.5852 11.0703 32.9251 11.4452 33.31C11.8251 33.6949 12.1151 34.1548 12.35 34.6347C12.8149 35.5996 12.9649 36.7043 12.7799 37.7491C12.595 38.7889 12.0751 39.7587 11.3302 40.4686C11.9901 39.6787 12.42 38.7139 12.53 37.7091C12.59 37.2092 12.575 36.7043 12.475 36.2144C12.465 36.1544 12.45 36.0945 12.44 36.0295L12.39 35.8495C12.355 35.7295 12.33 35.6096 12.285 35.4946L12.15 35.1496C12.1051 35.0347 12.0401 34.9297 11.9851 34.8147C11.9551 34.7597 11.9301 34.7047 11.9001 34.6497L11.8001 34.4948C11.7301 34.3948 11.6751 34.2798 11.5952 34.1898L11.3802 33.8999L11.1252 33.6299C10.7753 33.285 10.3804 32.9851 9.94548 32.7551C9.51057 32.5302 9.04566 32.3652 8.56576 32.2702C8.08585 32.1752 7.59095 32.1702 7.10605 32.2202L6.74112 32.2702C6.62114 32.2952 6.50117 32.3252 6.38619 32.3552C6.3312 32.3702 6.27121 32.3802 6.21122 32.4002L6.03626 32.4602L5.86129 32.5202L5.77631 32.5502L5.69133 32.5902C5.23642 32.7751 4.8315 33.0601 4.45657 33.37C4.08164 33.6849 3.76171 34.0649 3.50176 34.4848C3.24181 34.8997 3.03685 35.3546 2.91688 35.8345C2.7969 36.3144 2.72691 36.8093 2.75691 37.3092C2.75191 37.4342 2.7719 37.5592 2.7869 37.6791C2.8019 37.8041 2.8119 37.9291 2.83689 38.0491C2.88188 38.294 2.95187 38.539 3.03185 38.7739C3.36679 39.7337 4.00166 40.5786 4.8215 41.2034Z" fill="#89124B"/>
</svg>
