<svg width="185" height="58" viewBox="0 0 185 58" fill="none" xmlns="http://www.w3.org/2000/svg">
<path d="M39.4966 9.19907V22.2186C39.4966 23.1747 38.7216 23.9458 37.7694 23.9458C36.8132 23.9458 36.0422 23.1709 36.0422 22.2186V9.44967C36.0422 6.68923 34.3612 4.88107 31.7589 4.88107C29.1565 4.88107 27.4447 6.68923 27.4447 9.44967V22.2148C27.4447 23.1709 26.6698 23.942 25.7175 23.942C24.7614 23.942 23.9903 23.167 23.9903 22.2148V9.44967C23.9903 6.68923 22.2785 4.88107 19.6762 4.88107C17.0738 4.88107 15.3929 6.68923 15.3929 9.44967V22.2148C15.3929 23.1709 14.618 23.942 13.6657 23.942C12.7095 23.942 11.9385 23.167 11.9385 22.2148V9.19907C11.9385 4.72686 15.0767 1.71582 19.2637 1.71582C22.1822 1.71582 24.5609 3.20785 25.7329 5.61745C26.905 3.20785 29.2837 1.71582 32.2022 1.71582C36.3892 1.71197 39.4966 4.78854 39.4966 9.19907Z" fill="#1C1D24"/>
<path d="M93.9347 1.99707C94.8291 1.99707 95.5539 2.72188 95.5539 3.61632V16.1424C95.5539 20.8343 92.0957 24.2309 87.2765 24.2309C82.4534 24.2309 78.9952 20.8343 78.999 16.0421C79.0029 12.0249 81.9831 8.52419 85.9772 8.10396C88.6451 7.82252 90.9236 8.8172 92.3193 10.4981V3.61632C92.3154 2.72188 93.0402 1.99707 93.9347 1.99707ZM92.3154 16.1424C92.3154 13.0966 90.222 10.876 87.3035 10.876C84.4158 10.876 82.3262 13.0966 82.3262 16.1424C82.3262 19.219 84.4197 21.4088 87.3035 21.4088C90.222 21.4088 92.3154 19.219 92.3154 16.1424Z" fill="#1C1D24"/>
<path d="M99.9452 23.9451C99.0431 23.9451 98.3105 23.2126 98.3105 22.3104V14.3645C98.3105 10.9988 100.346 8.87063 103.936 8.42726C104.722 8.33088 105.416 8.9593 105.416 9.75351V9.85375C105.416 10.5092 104.938 11.0412 104.294 11.1684C102.571 11.5077 101.576 12.6951 101.576 14.6498V22.3104C101.58 23.2126 100.847 23.9451 99.9452 23.9451Z" fill="#1C1D24"/>
<path d="M128.663 8.33887C129.558 8.33887 130.282 9.06367 130.282 9.95812V18.0775C130.282 21.7864 127.904 24.2307 124.257 24.2307C121.781 24.2307 119.85 23.1203 118.898 21.2813C117.945 23.1203 116.01 24.2307 113.539 24.2307C109.891 24.2307 107.513 21.7902 107.513 18.0775V9.95812C107.513 9.06367 108.238 8.33887 109.132 8.33887H109.163C110.057 8.33887 110.782 9.06367 110.782 9.95812V18.1739C110.782 20.2365 112.05 21.6321 114.017 21.6321C115.983 21.6321 117.282 20.2365 117.282 18.1739V9.95812C117.282 9.06367 118.007 8.33887 118.901 8.33887C119.796 8.33887 120.521 9.06367 120.521 9.95812V18.1739C120.521 20.2365 121.82 21.6321 123.786 21.6321C125.752 21.6321 127.021 20.2365 127.021 18.1739V9.95812C127.021 9.06367 127.746 8.33887 128.64 8.33887H128.663Z" fill="#1C1D24"/>
<path d="M149.821 16.1418C149.821 20.8337 146.332 24.2303 141.513 24.2303C136.694 24.2303 133.174 20.8376 133.174 16.1418C133.174 11.4459 136.694 8.05322 141.513 8.05322C146.332 8.05322 149.821 11.4498 149.821 16.1418ZM136.501 16.1418C136.501 19.2183 138.594 21.4082 141.482 21.4082C144.401 21.4082 146.494 19.2183 146.494 16.1418C146.494 13.096 144.401 10.8753 141.482 10.8753C138.594 10.8792 136.501 13.096 136.501 16.1418Z" fill="#1C1D24"/>
<path d="M154.325 23.9451C153.431 23.9451 152.706 23.2203 152.706 22.3258V14.3645C152.706 10.9988 154.742 8.87063 158.331 8.42726C159.118 8.33088 159.811 8.9593 159.811 9.75351V9.85375C159.811 10.5092 159.333 11.0412 158.69 11.1684C156.962 11.5077 155.972 12.6951 155.972 14.6498V22.3258C155.972 23.2203 155.247 23.9451 154.352 23.9451H154.325Z" fill="#1C1D24"/>
<path d="M165.3 3.61632V22.3264C165.3 23.2208 164.575 23.9456 163.681 23.9456C162.786 23.9456 162.062 23.2208 162.062 22.3264V3.61632C162.062 2.72188 162.786 1.99707 163.681 1.99707C164.575 1.99707 165.3 2.72188 165.3 3.61632Z" fill="#1C1D24"/>
<path d="M183.313 1.99707C184.207 1.99707 184.932 2.72188 184.932 3.61632V16.1424C184.932 20.8343 181.474 24.2309 176.654 24.2309C171.831 24.2309 168.373 20.8343 168.377 16.0421C168.381 12.0249 171.361 8.52419 175.355 8.10396C178.023 7.82252 180.302 8.8172 181.697 10.4981V3.61632C181.697 2.72188 182.422 1.99707 183.313 1.99707ZM181.697 16.1424C181.697 13.0966 179.604 10.876 176.685 10.876C173.798 10.876 171.708 13.0966 171.708 16.1424C171.708 19.219 173.801 21.4088 176.685 21.4088C179.604 21.4088 181.697 19.219 181.697 16.1424Z" fill="#1C1D24"/>
<path d="M70.2589 9.41418L64.472 3.54247C64.7303 2.60947 64.5106 1.56853 63.7858 0.836009L63.7819 0.832153C63.0224 0.0649372 61.8774 -0.231925 60.8904 0.184453C58.9203 1.01721 58.6003 3.40753 59.9227 4.7492C60.4547 5.28895 61.1526 5.55882 61.8542 5.55882C62.1048 5.55882 62.3477 5.51256 62.5906 5.44316L68.2271 11.1607C71.4387 14.4146 71.5813 19.8853 68.3621 23.1315C66.8084 24.6968 64.7496 25.5604 62.5598 25.5643C60.3584 25.5643 58.2919 24.6968 56.7382 23.12L50.9474 17.2521C51.2057 16.3191 50.986 15.2782 50.2612 14.5457L50.2573 14.5418C49.4978 13.7746 48.3528 13.4777 47.3658 13.8941C45.3957 14.7269 45.0757 17.1172 46.3981 18.4588C46.9147 18.9832 47.601 19.2685 48.3296 19.2685C48.5841 19.2685 48.8347 19.2299 49.0776 19.1605L54.8568 25.0207C56.9155 27.1064 59.649 28.2553 62.5598 28.2553C64.418 28.2515 66.2031 27.7811 67.7876 26.8982C66.3149 42.8054 53.0756 55.2968 37.0065 55.2968C20.3822 55.2968 6.78045 41.9264 6.10962 25.2366C6.07878 24.5156 5.49662 23.945 4.78338 23.945C4.02773 23.945 3.42243 24.585 3.45328 25.3522C4.18194 43.4763 18.9557 57.9917 37.0065 57.9917C55.2847 57.9917 70.1857 43.1061 70.5673 24.666C74.4921 20.3518 74.3957 13.605 70.2589 9.41418ZM61.1757 3.48464C60.8017 3.10681 60.8017 2.48996 61.1757 2.11213C61.3607 1.92322 61.6075 1.82684 61.8542 1.82684C62.101 1.82684 62.3439 1.92322 62.5328 2.11213C62.9067 2.48996 62.9067 3.10681 62.5328 3.48464C62.1588 3.86246 61.5497 3.86246 61.1757 3.48464ZM47.655 17.1943C47.281 16.8165 47.281 16.1996 47.655 15.8218C47.84 15.6329 48.0868 15.5365 48.3335 15.5365C48.5802 15.5365 48.8231 15.6329 49.012 15.8218C49.386 16.1996 49.386 16.8165 49.012 17.1943C48.6496 17.5605 48.0174 17.5605 47.655 17.1943Z" fill="#89124B"/>
<path d="M7.17526 18.6169C7.36803 20.3596 6.10733 21.9364 4.36471 22.1292C2.62208 22.3219 1.04524 21.0612 0.852476 19.3186C0.659708 17.576 1.92041 16.003 3.66303 15.8102C5.40951 15.6136 6.98249 16.8743 7.17526 18.6169Z" fill="#89124B"/>
<path d="M1.86555 22.2101C1.17929 21.8053 0.624121 21.1653 0.307982 20.4135C-0.0081574 19.6617 -0.0891199 18.8058 0.0959373 18.0001C0.122925 17.8998 0.138346 17.7957 0.173044 17.6993L0.273284 17.4063C0.358102 17.2174 0.439064 17.0246 0.550869 16.8512C0.762914 16.4926 1.02122 16.1649 1.33736 15.8873C1.41061 15.8141 1.49543 15.7485 1.57639 15.6868C1.66121 15.6252 1.73832 15.5558 1.83085 15.5056C1.91952 15.4517 2.00819 15.3938 2.09687 15.3437L2.37831 15.2088L2.44771 15.1741L2.52096 15.1471L2.66746 15.0931L2.81396 15.0391C2.86408 15.0199 2.9142 15.0122 2.96432 14.9967C3.06456 14.9736 3.1648 14.9428 3.2689 14.9235L3.57733 14.8772C3.9937 14.8387 4.41394 14.8464 4.82261 14.9312C5.23127 15.016 5.62838 15.1587 5.99463 15.3591C6.35704 15.5635 6.68474 15.8256 6.9739 16.1225C7.2669 16.4194 7.49051 16.774 7.67172 17.1442C8.03026 17.8882 8.14592 18.7403 8.00328 19.5461C7.86063 20.348 7.45967 21.0959 6.88522 21.6434C7.39413 21.0342 7.72569 20.2901 7.81051 19.5152C7.85677 19.1297 7.84521 18.7403 7.7681 18.3625C7.76039 18.3162 7.74882 18.2699 7.74111 18.2198L7.70256 18.081C7.67557 17.9885 7.65629 17.896 7.6216 17.8073L7.5175 17.5413C7.4828 17.4526 7.43268 17.3716 7.39027 17.283C7.36714 17.2405 7.34787 17.1981 7.32473 17.1557L7.24763 17.0362C7.19365 16.9591 7.15124 16.8704 7.08956 16.801L6.92378 16.5774L6.72715 16.3692C6.45728 16.1032 6.1527 15.8719 5.81729 15.6945C5.48187 15.5211 5.12332 15.3938 4.75321 15.3206C4.3831 15.2473 4.00141 15.2435 3.62744 15.282L3.346 15.3206C3.25348 15.3399 3.16095 15.363 3.07227 15.3861C3.02986 15.3977 2.9836 15.4054 2.93734 15.4208L2.8024 15.4671L2.66746 15.5133L2.60192 15.5365L2.53638 15.5673C2.18554 15.71 1.87326 15.9297 1.58411 16.1688C1.29495 16.4116 1.04821 16.7047 0.847732 17.0285C0.647253 17.3485 0.489184 17.6993 0.396655 18.0694C0.304127 18.4396 0.250152 18.8212 0.273284 19.2068C0.269428 19.3032 0.28485 19.3995 0.296416 19.4921C0.307982 19.5885 0.315693 19.6848 0.334969 19.7774C0.369668 19.9663 0.423643 20.1552 0.485328 20.3364C0.743637 21.0766 1.23327 21.7282 1.86555 22.2101Z" fill="#89124B"/>
</svg>
