<svg width="104" height="81" viewBox="0 0 104 81" fill="none" xmlns="http://www.w3.org/2000/svg">
<path d="M53.591 8.58599C55.1834 6.66341 58.1319 6.66341 59.7243 8.58599C60.9495 10.0652 63.0561 10.459 64.7329 9.52227C66.9124 8.30476 69.6617 9.36986 70.4521 11.7379C71.0602 13.5598 72.8822 14.688 74.7843 14.4202C77.2563 14.0723 79.4352 16.0586 79.3168 18.5522C79.2257 20.4708 80.5172 22.181 82.3875 22.6184C84.8183 23.1869 86.1325 25.8263 85.1213 28.1087C84.3433 29.8649 84.9298 31.9261 86.5157 33.0096C88.577 34.4179 88.8491 37.3537 87.0816 39.1167C85.7218 40.4732 85.524 42.6071 86.6115 44.1904C88.0249 46.2482 87.218 49.084 84.933 50.0895C83.175 50.8632 82.2197 52.7816 82.6618 54.6508C83.2364 57.0802 81.4596 59.4331 78.9657 59.5452C77.0469 59.6315 75.4631 61.0753 75.2002 62.978C74.8584 65.4509 72.3516 67.003 69.9855 66.2067C68.1651 65.594 66.1668 66.3682 65.2342 68.0474C64.0222 70.2299 61.1239 70.7716 59.2054 69.1744C57.7292 67.9455 55.5861 67.9455 54.11 69.1744C52.1914 70.7716 49.2931 70.2299 48.0811 68.0474C47.1486 66.3682 45.1502 65.594 43.3298 66.2067C40.9638 67.003 38.457 65.4509 38.1152 62.978C37.8522 61.0753 36.2684 59.6315 34.3496 59.5452C31.8557 59.4331 30.0789 57.0802 30.6535 54.6508C31.0956 52.7816 30.1403 50.8632 28.3823 50.0895C26.0973 49.084 25.2904 46.2482 26.7038 44.1904C27.7913 42.6071 27.5936 40.4732 26.2337 39.1167C24.4662 37.3537 24.7383 34.4179 26.7996 33.0096C28.3856 31.9261 28.972 29.8649 28.194 28.1087C27.1828 25.8263 28.497 23.1869 30.9278 22.6184C32.7981 22.181 34.0896 20.4708 33.9985 18.5522C33.8801 16.0586 36.059 14.0723 38.5311 14.4202C40.4331 14.688 42.2551 13.5598 42.8633 11.7379C43.6536 9.36986 46.403 8.30476 48.5824 9.52227C50.2592 10.459 52.3658 10.0652 53.591 8.58599Z" fill="#89124B"/>
<path d="M95.1663 1.19175C95.0545 0.785203 94.6527 0.5 94.1917 0.5C93.7308 0.5 93.329 0.785203 93.2172 1.19175L91.756 6.50491L85.9116 7.8332C85.4644 7.93484 85.1506 8.30012 85.1506 8.71918C85.1506 9.13824 85.4644 9.50352 85.9116 9.60515L91.756 10.9334L93.2172 16.2466C93.329 16.6532 93.7308 16.9384 94.1917 16.9384C94.6527 16.9384 95.0545 16.6532 95.1663 16.2466L96.6274 10.9334L102.472 9.60515C102.919 9.50352 103.233 9.13824 103.233 8.71918C103.233 8.30012 102.919 7.93484 102.472 7.8332L96.6274 6.50491L95.1663 1.19175Z" fill="#89124B"/>
<path d="M7.4442 41.509C7.36967 41.238 7.1018 41.0479 6.79449 41.0479C6.48718 41.0479 6.21931 41.238 6.14477 41.509L5.17069 45.0511L1.27437 45.9367C0.976239 46.0044 0.76709 46.2479 0.76709 46.5273C0.76709 46.8067 0.976239 47.0502 1.27437 47.118L5.17069 48.0035L6.14477 51.5456C6.21931 51.8166 6.48718 52.0068 6.79449 52.0068C7.1018 52.0068 7.36967 51.8166 7.4442 51.5456L8.41828 48.0035L12.3146 47.118C12.6127 47.0502 12.8219 46.8067 12.8219 46.5273C12.8219 46.2479 12.6127 46.0044 12.3146 45.9367L8.41828 45.0511L7.4442 41.509Z" fill="#89124B"/>
<path d="M34.7233 72.1018C34.6624 71.885 34.4432 71.7329 34.1918 71.7329C33.9403 71.7329 33.7212 71.885 33.6602 72.1018L32.8632 74.9355L29.6753 75.644C29.4314 75.6982 29.2603 75.893 29.2603 76.1165C29.2603 76.34 29.4314 76.5348 29.6753 76.589L32.8632 77.2974L33.6602 80.1311C33.7212 80.3479 33.9403 80.5 34.1918 80.5C34.4432 80.5 34.6624 80.3479 34.7233 80.1311L35.5203 77.2974L38.7082 76.589C38.9521 76.5348 39.1233 76.34 39.1233 76.1165C39.1233 75.893 38.9521 75.6982 38.7082 75.644L35.5203 74.9355L34.7233 72.1018Z" fill="#89124B"/>
<path d="M46.6655 38.9529L55.1587 47.4461L69.647 32.9578" stroke="white" stroke-width="3" stroke-linecap="round"/>
<path d="M48.9699 16.2113C48.9089 15.9945 48.6898 15.8424 48.4383 15.8424C48.1869 15.8424 47.9677 15.9945 47.9068 16.2113L47.1098 19.045L43.9219 19.7534C43.678 19.8077 43.5068 20.0025 43.5068 20.226C43.5068 20.4495 43.678 20.6443 43.9219 20.6985L47.1098 21.4069L47.9068 24.2406C47.9677 24.4574 48.1869 24.6095 48.4383 24.6095C48.6898 24.6095 48.9089 24.4574 48.9699 24.2406L49.7669 21.4069L52.9548 20.6985C53.1987 20.6443 53.3699 20.4495 53.3699 20.226C53.3699 20.0025 53.1987 19.8077 52.9548 19.7534L49.7669 19.045L48.9699 16.2113Z" fill="white"/>
</svg>
