<svg width="2909" height="2896" viewBox="0 0 2909 2896" fill="none" xmlns="http://www.w3.org/2000/svg">
<path d="M1474.22 137.073C1474.22 137.073 125.887 -353.179 245.739 520.628C365.591 1394.43 -563.259 2670.66 567.84 2811.02C1698.94 2951.37 2725.17 2738.18 2830.04 2287.28C2934.91 1836.39 3194.99 711.531 1474.22 137.073Z" fill="#F4F7FA"/>
<path d="M1457.48 2134.42C1443.11 2043.66 1435.46 1902.02 1510.11 1775.91C1640.35 1555.89 1874.5 1630.75 2100.71 1395.62C2283.16 1205.98 2227.08 1057.24 2428.68 931.758C2462.42 910.753 2640.75 795.115 2772.29 866.39C2846.41 906.552 2872.82 988.149 2877.77 1003.47C2952.68 1234.98 2714.94 1595.03 2407.15 1758.35C2230.31 1852.19 2173.67 1820.75 1862.86 1929.48C1680.22 1993.37 1542.86 2076.3 1457.48 2134.42Z" fill="url(#paint0_linear_472_2869)"/>
<path d="M1457.48 2134.42C1443.11 2043.66 1435.46 1902.02 1510.11 1775.91C1640.35 1555.89 1874.5 1630.75 2100.71 1395.62C2283.16 1205.98 2227.08 1057.24 2428.68 931.758C2462.42 910.753 2640.75 795.115 2772.29 866.39C2846.41 906.552 2872.82 988.149 2877.77 1003.47C2952.68 1234.98 2714.94 1595.03 2407.15 1758.35C2230.31 1852.19 2173.67 1820.75 1862.86 1929.48C1680.22 1993.37 1542.86 2076.3 1457.48 2134.42Z" fill="url(#paint1_linear_472_2869)"/>
<mask id="mask0_472_2869" style="mask-type:luminance" maskUnits="userSpaceOnUse" x="1448" y="843" width="1444" height="1292">
<path d="M1457.48 2134.42C1443.11 2043.66 1435.46 1902.02 1510.11 1775.91C1640.35 1555.89 1874.5 1630.75 2100.71 1395.62C2283.16 1205.98 2227.08 1057.24 2428.68 931.758C2462.42 910.753 2640.75 795.115 2772.29 866.39C2846.41 906.552 2872.82 988.149 2877.77 1003.47C2952.68 1234.98 2714.94 1595.03 2407.15 1758.35C2230.31 1852.19 2173.67 1820.75 1862.86 1929.48C1680.22 1993.37 1542.86 2076.3 1457.48 2134.42Z" fill="white"/>
</mask>
<g mask="url(#mask0_472_2869)">
<path d="M1430.46 2243.32L1426.81 2242.54C1473.4 2026.09 1559.99 1881.05 1684.17 1811.42C1744.96 1777.33 1793.21 1772.2 1844.29 1766.77C1899.18 1760.94 1955.94 1754.9 2031.09 1710.15C2104.13 1666.65 2130.51 1624.47 2163.89 1571.06C2193.94 1522.99 2231.34 1463.17 2314.91 1383.72C2388.15 1314.07 2441.37 1281.61 2488.31 1252.97C2539.14 1221.96 2579.29 1197.46 2625.99 1137.13C2702.27 1038.57 2742.65 911.789 2746 760.315L2749.73 760.398C2746.36 912.686 2705.72 1040.2 2628.93 1139.41C2581.82 1200.29 2541.41 1224.94 2490.25 1256.15C2443.46 1284.7 2390.43 1317.05 2317.48 1386.42C2234.25 1465.55 2196.99 1525.15 2167.05 1573.04C2133.4 1626.87 2106.82 1669.4 2033 1713.35C1957.14 1758.52 1899.97 1764.6 1844.68 1770.48C1794 1775.87 1746.12 1780.96 1685.99 1814.67C1562.79 1883.75 1476.81 2027.97 1430.46 2243.32Z" fill="white"/>
<path d="M2491.89 1269.39C2484.29 1269.39 2476.59 1269.25 2468.8 1268.96L2466.3 1268.86L2467.1 1266.5C2468.11 1263.48 2567.39 963.483 2457.52 838.497L2460.32 836.035C2566.36 956.666 2480.61 1236.58 2471.4 1265.32C2636 1270.81 2758.9 1209.3 2833.11 1156.58C2913.9 1099.18 2955.97 1039.63 2956.39 1039.04L2959.44 1041.17C2959.03 1041.77 2916.59 1101.85 2835.27 1159.62C2763.72 1210.45 2647.23 1269.39 2491.89 1269.39Z" fill="white"/>
<path d="M2503.06 1525.73C2475.75 1525.73 2450.42 1524.21 2427.6 1521.85C2312.39 1509.97 2234.42 1474.98 2233.64 1474.63L2232.18 1473.97L2232.62 1472.42C2276.99 1315.93 2240.3 1092.58 2239.92 1090.34L2243.6 1089.73C2243.97 1091.97 2280.56 1314.67 2236.65 1471.88C2247.84 1476.69 2322.11 1507.24 2428.12 1518.16C2533.87 1529.05 2693.74 1522.06 2854.86 1426.95L2856.76 1430.16C2729.49 1505.29 2603 1525.73 2503.06 1525.73Z" fill="white"/>
<path d="M2366.23 1890.69C2066.14 1890.69 1894.45 1765.23 1892.72 1763.94L1891.14 1762.77L1892.4 1761.25C2012.38 1616.81 1967.66 1376.41 1967.19 1373.99L1970.86 1373.29C1971.32 1375.71 2016.06 1616.12 1896.55 1762.09C1914.87 1774.94 2089.06 1891.11 2382.16 1886.84L2382.22 1890.57C2376.86 1890.65 2371.51 1890.69 2366.23 1890.69Z" fill="white"/>
</g>
<path d="M1767.91 1951.58C1818.57 1915.69 1901.45 1863.8 2012.72 1825.21C2210.62 1756.56 2300.82 1798.46 2384.96 1715.57C2472.06 1629.76 2416.6 1544.28 2520.84 1448.51C2529.6 1440.45 2641.5 1340.29 2741.86 1378.55C2812.07 1405.32 2838.93 1485.46 2851.53 1523.06C2900.45 1669 2869.93 1890.66 2713.85 1999.03C2565.88 2101.77 2379.77 2051.06 2320.68 2034.54C2217.03 2005.56 2192.69 1964.92 2087.29 1938.6C1959.11 1906.6 1843.56 1928.88 1767.91 1951.58Z" fill="url(#paint2_linear_472_2869)"/>
<path d="M287.306 1934.33C241.703 1935.9 195.727 1923.23 158.312 1895.37C75.4365 1833.68 66.5195 1721.56 138.518 1645.73L1190.76 529.681C1225.19 493.438 1274.95 473.487 1327.06 474.909C1378.93 476.325 1428.03 498.785 1461.76 536.398L1814.07 929.263L2214.39 489.096C2274.28 423.248 2378 419.246 2445.97 479.484C2513.52 539.352 2520.74 640.608 2462.18 706.298L1943.17 1288.52C1910.84 1324.79 1863.78 1345.97 1814.07 1346.5C1764.14 1347.03 1716.46 1326.68 1683.47 1290.63L1327.05 901.124L434.447 1868.88C396.123 1910.1 341.982 1932.46 287.306 1934.33Z" fill="url(#paint3_linear_472_2869)"/>
<path d="M2574.17 790.859L2133.27 404.003L2699.07 214.029H2738.58L2609.82 787.378L2574.17 790.859Z" fill="url(#paint4_linear_472_2869)"/>
<path d="M326.815 1934.33C281.212 1935.9 235.236 1923.23 197.821 1895.37C114.945 1833.68 106.028 1721.56 178.027 1645.73L1230.27 529.682C1264.7 493.439 1314.46 473.487 1366.57 474.909C1418.44 476.325 1467.54 498.785 1501.27 536.398L1853.58 929.263L2253.9 489.096C2313.79 423.248 2417.51 419.246 2485.48 479.484C2553.03 539.352 2560.25 640.609 2501.69 706.299L1982.68 1288.52C1950.35 1324.79 1903.29 1345.97 1853.58 1346.5C1803.65 1347.03 1755.97 1326.68 1722.98 1290.63L1366.57 901.126L473.958 1868.89C435.632 1910.1 381.492 1932.46 326.815 1934.33Z" fill="url(#paint5_linear_472_2869)"/>
<path d="M2609.82 787.378L2172.77 404.003L2738.58 214.029L2609.82 787.378Z" fill="url(#paint6_linear_472_2869)"/>
<path d="M518.782 1297.51L308.354 2647.45C304.354 2673.48 322.927 2696.99 346.61 2695.88L1399.81 2646.17L518.782 1297.51Z" fill="url(#paint7_linear_472_2869)"/>
<path d="M748.216 2546.88C781.472 2445.53 815.321 2290.82 775.696 2119.05C730.194 1921.81 629.401 1882.35 538.901 1671.51C409.716 1370.55 555.922 1152.55 422.186 1060.56C356.968 1015.7 254.414 1015.67 191.186 1060.7C10.793 1189.19 60.246 1748.85 346.459 1967.24C475.904 2066.01 588.86 2054.29 685.998 2182.11C771.831 2295.05 765.1 2444.04 748.216 2546.88Z" fill="url(#paint8_linear_472_2869)"/>
<mask id="mask1_472_2869" style="mask-type:luminance" maskUnits="userSpaceOnUse" x="85" y="1026" width="709" height="1521">
<path d="M748.216 2546.88C781.472 2445.53 815.321 2290.82 775.696 2119.05C730.194 1921.81 629.401 1882.35 538.901 1671.51C409.716 1370.55 555.922 1152.55 422.186 1060.56C356.968 1015.7 254.414 1015.67 191.186 1060.7C10.793 1189.19 60.246 1748.85 346.459 1967.24C475.904 2066.01 588.86 2054.29 685.998 2182.11C771.831 2295.05 765.1 2444.04 748.216 2546.88Z" fill="white"/>
</mask>
<g mask="url(#mask1_472_2869)">
<path d="M768.316 2291.93C757.481 2249.34 742.902 2207.47 724.988 2167.49C683.84 2075.64 638.416 2025.11 580.912 1961.14C543.366 1919.37 500.813 1872.03 451.635 1804.16C359.622 1677.16 331.065 1632.54 305.47 1560.61C254.833 1418.28 262.609 1290.66 271.751 1227.25C284.722 1137.31 314.897 1051.72 361.444 972.855L364.659 974.75C318.359 1053.19 288.343 1138.33 275.444 1227.78C266.35 1290.85 258.617 1417.78 308.982 1559.35C334.422 1630.85 362.892 1675.31 454.655 1801.97C503.721 1869.69 546.201 1916.95 583.686 1958.64C641.411 2022.86 687.005 2073.58 728.392 2165.96C746.392 2206.14 761.043 2248.21 771.93 2291.01L768.316 2291.93Z" fill="white"/>
<path d="M281.229 1460.42L278.528 1458.96C277.996 1458.67 224.528 1429.28 177.026 1369.48C133.166 1314.26 85.509 1221.07 107.542 1090.68L111.22 1091.3C89.415 1220.34 136.558 1312.53 179.947 1367.16C220.925 1418.75 266.284 1447.42 277.629 1454.14C280.764 1350.18 347.45 1282.8 403.155 1244.46C463.983 1202.59 525.202 1185.42 525.814 1185.25L526.806 1188.85C526.201 1189.01 465.5 1206.05 405.183 1247.59C349.677 1285.81 283.125 1353.23 281.282 1457.35L281.229 1460.42Z" fill="white"/>
<path d="M296.213 1795.01C242.13 1795.01 178.597 1781.73 119.905 1736.04L122.193 1733.1C253.171 1835.04 408.818 1773.52 425.363 1766.51C398.852 1663.77 422.362 1587.95 446.842 1542.37C473.52 1492.7 507.145 1467.15 507.482 1466.9L509.719 1469.88C508.398 1470.87 378.046 1571.41 429.374 1767.11L429.772 1768.63L428.349 1769.28C427.379 1769.73 370.791 1795.01 296.213 1795.01Z" fill="white"/>
<path d="M416.743 1991.05C376.196 1991.05 327.655 1983.68 271.2 1963.06L272.482 1959.56C456.342 2026.73 555.038 1952.09 565.917 1943.14C521.022 1837.76 584.359 1667.6 585.007 1665.89L588.497 1667.21C587.853 1668.92 524.534 1839.05 569.885 1942.92L570.421 1944.15L569.433 1945.05C568.723 1945.69 517.358 1991.05 416.743 1991.05Z" fill="white"/>
</g>
<path d="M1076.49 2630.84C1087.74 2562.76 1094.21 2456.44 1038.8 2361.36C942.125 2195.48 765.914 2250.5 597.248 2072.79C461.212 1929.45 504.083 1818.05 353.344 1722.79C328.113 1706.85 194.796 1619.1 95.6562 1671.95C39.7892 1701.73 19.5471 1762.87 15.7481 1774.35C-41.6809 1947.81 135.003 2219.39 365.294 2343.6C497.606 2414.97 540.294 2391.64 773.131 2474.88C909.95 2523.78 1012.68 2586.76 1076.49 2630.84Z" fill="url(#paint9_linear_472_2869)"/>
<mask id="mask2_472_2869" style="mask-type:luminance" maskUnits="userSpaceOnUse" x="4" y="1655" width="1081" height="976">
<path d="M1076.49 2630.84C1087.74 2562.76 1094.21 2456.44 1038.8 2361.36C942.125 2195.48 765.914 2250.5 597.248 2072.79C461.212 1929.45 504.083 1818.05 353.344 1722.79C328.113 1706.85 194.796 1619.1 95.6562 1671.95C39.7892 1701.73 19.5471 1762.87 15.7481 1774.35C-41.6809 1947.81 135.003 2219.39 365.294 2343.6C497.606 2414.97 540.294 2391.64 773.131 2474.88C909.95 2523.78 1012.68 2586.76 1076.49 2630.84Z" fill="white"/>
</mask>
<g mask="url(#mask2_472_2869)">
<path d="M1095.77 2712.84C1062.09 2551.03 998.339 2442.4 906.3 2389.97C861.405 2364.4 825.524 2360.34 787.54 2356.04C746.001 2351.34 703.053 2346.48 646.229 2312.11C590.933 2278.67 571.162 2246.57 546.132 2205.92C523.911 2169.82 496.252 2124.91 434.204 2065.1C379.809 2012.68 340.174 1988.12 305.206 1966.46C266.911 1942.74 236.663 1924 201.539 1877.98C144.328 1803.01 114.428 1706.96 112.672 1592.49L116.401 1592.43C118.146 1706.09 147.789 1801.4 204.508 1875.72C239.208 1921.2 269.199 1939.77 307.168 1963.29C342.296 1985.05 382.108 2009.71 436.789 2062.42C499.181 2122.55 526.974 2167.69 549.307 2203.96C574.073 2244.18 593.634 2275.95 648.162 2308.92C704.284 2342.86 746.818 2347.68 787.956 2352.33C826.335 2356.67 862.584 2360.78 908.146 2386.73C1001.15 2439.72 1065.51 2549.18 1099.42 2712.09L1095.77 2712.84Z" fill="white"/>
<path d="M307.23 1976.48C76.3027 1976.48 -44.9333 1804.28 -46.1533 1802.51L-43.0833 1800.39C-41.8523 1802.18 82.5947 1978.59 318.935 1972.6C311.285 1947.96 249.998 1739.9 329.727 1650.44L332.515 1652.92C249.549 1746.02 322.483 1971.54 323.229 1973.81L324.011 1976.18L321.517 1976.26C316.722 1976.4 311.932 1976.48 307.23 1976.48Z" fill="white"/>
<path d="M298.203 2168.91C222.51 2168.91 125.972 2153.33 29.1113 2095.26L31.0303 2092.06C151.459 2164.26 271.413 2170.3 350.828 2162.66C429.319 2155.1 484.674 2133.09 494.231 2129.08C462.199 2010.73 490.763 1843.95 491.06 1842.28L494.731 1842.92C494.438 1844.6 465.769 2012.04 498.257 2129.66L498.681 2131.21L497.218 2131.86C496.635 2132.12 437.834 2158.03 351.187 2166.37C335.072 2167.92 317.3 2168.91 298.203 2168.91Z" fill="white"/>
<path d="M400.821 2443.66C395.047 2443.66 389.229 2443.6 383.331 2443.47L383.411 2439.74C504.383 2442.36 597.515 2417.21 654.331 2395.67C708.357 2375.18 740.682 2353.97 748.017 2348.92C659.273 2238.49 694.053 2058.4 694.419 2056.58L698.075 2057.32C697.713 2059.12 662.955 2239.21 752.166 2348.11L753.411 2349.63L751.829 2350.79C750.533 2351.75 622.904 2443.66 400.821 2443.66Z" fill="white"/>
</g>
<path d="M841.038 2879.72L300.58 2698.05L1077.97 2646.17L841.038 2879.72Z" fill="#D8DEE8"/>
<path d="M2445.18 1325.65L559.227 1267.32C531.722 1266.46 513.687 1287.53 519.029 1314.36L824.947 2850.79C830.29 2877.63 856.534 2897.8 883.483 2895.85L2731.23 2762.32C2752.14 2760.81 2765.24 2740.51 2760.55 2716.98L2492.25 1369.45C2487.56 1345.92 2466.51 1326.31 2445.18 1325.65Z" fill="url(#paint10_linear_472_2869)"/>
<path d="M2455.35 1325.65L569.405 1267.32C541.9 1266.46 523.865 1287.53 529.208 1314.36L835.126 2850.79C840.469 2877.63 866.714 2897.8 893.662 2895.85L2741.41 2762.32C2762.32 2760.81 2775.42 2740.51 2770.73 2716.98L2502.43 1369.45C2497.74 1345.92 2476.69 1326.31 2455.35 1325.65Z" fill="url(#paint11_linear_472_2869)"/>
<g opacity="0.3">
<path d="M1963.17 2139.77C1591.97 1938.07 1240.2 2094.86 986.921 1836.15C830.962 1676.85 802.332 1451.3 807.01 1274.66L569.405 1267.32C541.9 1266.46 523.865 1287.53 529.208 1314.36L835.126 2850.79C840.469 2877.62 866.713 2897.79 893.662 2895.85L2496.87 2779.99C2321.64 2399.63 2124.08 2227.19 1963.17 2139.77Z" fill="url(#paint12_linear_472_2869)"/>
</g>
<path d="M2678.3 2711.15L927.97 2830.62C898.888 2832.6 870.549 2810.69 864.769 2781.66L592.237 1412.91C586.458 1383.88 605.87 1360.96 635.495 1361.71L2418.54 1406.53C2441.83 1407.11 2464.78 1428.35 2469.88 1453.97L2710.4 2661.95C2715.5 2687.56 2701.16 2709.59 2678.3 2711.15Z" fill="#D8DEE8"/>
<path d="M2686.15 2710.61L937.919 2829.94C908.875 2831.92 880.568 2810.02 874.793 2781.01L602.434 1413.13C596.659 1384.13 616.043 1361.22 645.63 1361.96L2426.53 1406.73C2449.8 1407.31 2472.73 1428.54 2477.83 1454.14L2718.21 2661.44C2723.31 2687.04 2708.98 2709.05 2686.15 2710.61Z" fill="url(#paint13_linear_472_2869)"/>
<path d="M1532.81 1855.56L1341.97 1856.74C1336.25 1856.77 1330.66 1852.05 1329.49 1846.19L1297.93 1687.65C1296.76 1681.79 1300.47 1677.06 1306.2 1677.09L1497.49 1678.16C1503.08 1678.19 1508.54 1682.9 1509.69 1688.68L1540.82 1845.03C1541.97 1850.81 1538.38 1855.52 1532.81 1855.56ZM1348.11 1835.48L1518.52 1834.66L1491.53 1699.06L1320.8 1698.35L1348.11 1835.48Z" fill="#D8DEE8"/>
<path d="M1773.96 1854.06L1589.24 1855.21C1583.7 1855.24 1578.27 1850.59 1577.12 1844.83L1546.07 1688.86C1544.92 1683.09 1548.49 1678.45 1554.05 1678.48L1739.21 1679.51C1744.62 1679.54 1749.92 1684.18 1751.06 1689.86L1781.69 1843.7C1782.82 1849.39 1779.36 1854.03 1773.96 1854.06ZM1595.1 1834.29L1760.07 1833.5L1733.5 1700.08L1568.24 1699.39L1595.1 1834.29Z" fill="#D8DEE8"/>
<path d="M2007.51 1852.62L1828.6 1853.72C1823.23 1853.76 1817.97 1849.19 1816.84 1843.51L1786.28 1690.04C1785.15 1684.36 1788.6 1679.79 1793.97 1679.82L1973.3 1680.82C1978.55 1680.85 1983.7 1685.41 1984.81 1691.01L2014.96 1842.42C2016.07 1848.02 2012.74 1852.58 2007.51 1852.62ZM1834.22 1833.15L1993.99 1832.38L1967.84 1701.06L1807.78 1700.39L1834.22 1833.15Z" fill="#D8DEE8"/>
<path d="M2233.8 1851.22L2060.44 1852.29C2055.24 1852.32 2050.13 1847.82 2049.01 1842.24L2018.94 1691.18C2017.82 1685.59 2021.15 1681.09 2026.36 1681.12L2200.13 1682.09C2205.21 1682.12 2210.22 1686.61 2211.31 1692.12L2240.99 1841.18C2242.09 1846.69 2238.87 1851.19 2233.8 1851.22ZM2065.82 1832.03L2220.63 1831.29L2194.89 1702.02L2039.8 1701.37L2065.82 1832.03Z" fill="#D8DEE8"/>
<path d="M2453.17 1849.86L2285.1 1850.9C2280.07 1850.93 2275.09 1846.5 2274 1841L2244.39 1692.28C2243.29 1686.78 2246.5 1682.35 2251.55 1682.38L2420.01 1683.32C2424.94 1683.35 2429.81 1687.77 2430.89 1693.19L2460.12 1839.98C2461.2 1845.41 2458.09 1849.83 2453.17 1849.86ZM2290.26 1830.96L2440.35 1830.24L2415 1702.94L2264.64 1702.31L2290.26 1830.96Z" fill="#D8DEE8"/>
<path d="M1069.15 2074.78L865.727 2078.88C859.623 2079 853.693 2074.19 852.487 2068.13L819.841 1904.17C818.634 1898.11 822.619 1893.16 828.738 1893.11L1032.64 1891.42C1038.6 1891.37 1044.39 1896.17 1045.58 1902.14L1077.76 2063.75C1078.95 2069.72 1075.1 2074.66 1069.15 2074.78ZM872.404 2056.74L1054.07 2053.33L1026.16 1913.17L844.169 1914.93L872.404 2056.74Z" fill="#D8DEE8"/>
<path d="M1325.98 2069.61L1129.28 2073.57C1123.37 2073.69 1117.63 2068.96 1116.44 2063L1084.34 1901.79C1083.15 1895.83 1086.99 1890.96 1092.91 1890.92L1290.07 1889.28C1295.83 1889.23 1301.45 1893.96 1302.62 1899.83L1334.26 2058.76C1335.43 2064.64 1331.72 2069.49 1325.98 2069.61ZM1135.66 2051.81L1311.32 2048.51L1283.87 1910.67L1107.9 1912.38L1135.66 2051.81Z" fill="#D8DEE8"/>
<path d="M1574.43 2064.61L1384.13 2068.44C1378.42 2068.55 1372.84 2063.9 1371.67 2058.03L1340.11 1899.49C1338.94 1893.63 1342.63 1888.84 1348.36 1888.79L1539.11 1887.21C1544.68 1887.17 1550.13 1891.81 1551.28 1897.59L1582.41 2053.94C1583.56 2059.72 1579.99 2064.49 1574.43 2064.61ZM1390.23 2047.04L1560.18 2043.85L1533.18 1908.25L1362.93 1909.9L1390.23 2047.04Z" fill="#D8DEE8"/>
<path d="M1814.92 2059.76L1630.7 2063.47C1625.18 2063.58 1619.77 2059 1618.62 2053.23L1587.56 1897.27C1586.42 1891.5 1589.98 1886.79 1595.51 1886.74L1780.16 1885.21C1785.56 1885.17 1790.85 1889.74 1791.99 1895.43L1822.62 2049.27C1823.75 2054.96 1820.31 2059.65 1814.92 2059.76ZM1636.54 2042.42L1801.05 2039.34L1774.49 1905.92L1609.68 1907.51L1636.54 2042.42Z" fill="#D8DEE8"/>
<path d="M2047.82 2055.07L1869.41 2058.67C1864.06 2058.77 1858.8 2054.26 1857.67 2048.59L1827.11 1895.11C1825.99 1889.44 1829.42 1884.81 1834.78 1884.76L2013.62 1883.28C2018.84 1883.23 2023.98 1887.74 2025.1 1893.33L2055.25 2044.75C2056.36 2050.34 2053.04 2054.97 2047.82 2055.07ZM1875 2037.95L2034.32 2034.97L2008.18 1903.65L1848.56 1905.2L1875 2037.95Z" fill="#D8DEE8"/>
<path d="M2273.49 2050.53L2100.6 2054.01C2095.42 2054.11 2090.32 2049.67 2089.2 2044.09L2059.13 1893.03C2058.01 1887.44 2061.33 1882.88 2066.52 1882.84L2239.81 1881.4C2244.88 1881.36 2249.88 1885.79 2250.97 1891.3L2280.65 2040.37C2281.75 2045.88 2278.54 2050.43 2273.49 2050.53ZM2105.96 2033.62L2260.35 2030.73L2234.61 1901.46L2079.94 1902.96L2105.96 2033.62Z" fill="#D8DEE8"/>
<path d="M2492.25 2046.12L2324.65 2049.5C2319.62 2049.6 2314.66 2045.22 2313.57 2039.73L2283.96 1891C2282.86 1885.51 2286.06 1881.02 2291.09 1880.97L2459.09 1879.58C2464.01 1879.54 2468.86 1883.9 2469.94 1889.33L2499.17 2036.12C2500.25 2041.54 2497.15 2046.02 2492.25 2046.12ZM2329.77 2029.43L2479.45 2026.63L2454.1 1899.33L2304.16 1900.78L2329.77 2029.43Z" fill="#D8DEE8"/>
<path d="M1112.18 2290.87L909.318 2297.8C903.23 2298.01 897.314 2293.27 896.107 2287.21L863.462 2123.25C862.255 2117.19 866.227 2112.17 872.329 2112.03L1075.67 2107.51C1081.61 2107.37 1087.39 2112.11 1088.58 2118.08L1120.75 2279.69C1121.94 2285.66 1118.11 2290.67 1112.18 2290.87ZM915.964 2275.51L1097.12 2269.58L1069.22 2129.41L887.729 2133.7L915.964 2275.51Z" fill="#D8DEE8"/>
<path d="M1368.29 2282.12L1172.13 2288.83C1166.25 2289.03 1160.51 2284.36 1159.33 2278.4L1127.23 2117.2C1126.04 2111.24 1129.87 2106.3 1135.76 2106.17L1332.38 2101.79C1338.13 2101.66 1343.73 2106.32 1344.9 2112.2L1376.55 2271.13C1377.72 2277.01 1374.02 2281.93 1368.29 2282.12ZM1178.49 2266.91L1353.66 2261.17L1326.21 2123.33L1150.73 2127.48L1178.49 2266.91Z" fill="#D8DEE8"/>
<path d="M1616.05 2273.66L1426.28 2280.14C1420.59 2280.34 1415.02 2275.74 1413.85 2269.88L1382.29 2111.34C1381.12 2105.48 1384.8 2100.63 1390.51 2100.5L1580.73 2096.27C1586.29 2096.14 1591.73 2100.73 1592.88 2106.51L1624.01 2262.85C1625.16 2268.63 1621.6 2273.47 1616.05 2273.66ZM1432.35 2258.59L1601.83 2253.04L1574.83 2117.45L1405.05 2121.46L1432.35 2258.59Z" fill="#D8DEE8"/>
<path d="M1855.88 2265.46L1672.17 2271.74C1666.66 2271.93 1661.26 2267.41 1660.11 2261.64L1629.06 2105.67C1627.91 2099.91 1631.46 2095.13 1636.98 2095.01L1821.12 2090.91C1826.5 2090.79 1831.78 2095.31 1832.92 2100.99L1863.55 2254.83C1864.68 2260.52 1861.25 2265.28 1855.88 2265.46ZM1677.98 2250.55L1842.04 2245.17L1815.47 2111.75L1651.12 2115.64L1677.98 2250.55Z" fill="#D8DEE8"/>
<path d="M2088.13 2257.53L1910.21 2263.61C1904.88 2263.79 1899.63 2259.34 1898.5 2253.66L1867.95 2100.19C1866.82 2094.52 1870.24 2089.82 1875.59 2089.7L2053.93 2085.73C2059.14 2085.62 2064.27 2090.06 2065.38 2095.66L2095.53 2247.07C2096.64 2252.67 2093.33 2257.35 2088.13 2257.53ZM1915.78 2242.76L2074.66 2237.55L2048.52 2106.24L1889.34 2110L1915.78 2242.76Z" fill="#D8DEE8"/>
<path d="M2313.17 2249.84L2140.77 2255.73C2135.6 2255.91 2130.51 2251.52 2129.4 2245.94L2099.32 2094.88C2098.21 2089.29 2101.51 2084.67 2106.69 2084.56L2279.5 2080.71C2284.55 2080.6 2289.53 2084.97 2290.63 2090.49L2320.31 2239.55C2321.41 2245.06 2318.21 2249.67 2313.17 2249.84ZM2146.1 2235.21L2300.06 2230.17L2274.32 2100.9L2120.08 2104.54L2146.1 2235.21Z" fill="#D8DEE8"/>
<path d="M2531.33 2242.38L2364.19 2248.1C2359.18 2248.27 2354.23 2243.95 2353.14 2238.45L2323.52 2089.73C2322.43 2084.23 2325.61 2079.68 2330.64 2079.57L2498.17 2075.84C2503.07 2075.73 2507.92 2080.04 2509 2085.47L2538.22 2232.26C2539.3 2237.68 2536.22 2242.22 2531.33 2242.38ZM2369.29 2227.9L2518.55 2223.01L2493.21 2095.72L2343.68 2099.25L2369.29 2227.9Z" fill="#D8DEE8"/>
<path d="M1155.21 2506.97L952.908 2516.73C946.838 2517.02 940.935 2512.35 939.728 2506.29L907.083 2342.33C905.876 2336.27 909.834 2331.18 915.919 2330.96L1118.7 2323.6C1124.62 2323.38 1130.38 2328.05 1131.57 2334.03L1163.75 2495.63C1164.94 2501.61 1161.12 2506.68 1155.21 2506.97ZM959.524 2494.28L1140.18 2485.82L1112.27 2345.65L931.29 2352.48L959.524 2494.28Z" fill="#D8DEE8"/>
<path d="M1410.6 2494.64L1214.99 2504.08C1209.12 2504.36 1203.4 2499.76 1202.21 2493.8L1170.12 2332.6C1168.93 2326.64 1172.74 2321.64 1178.62 2321.42L1374.7 2314.31C1380.43 2314.1 1386.01 2318.69 1387.18 2324.57L1418.83 2483.5C1420 2489.37 1416.32 2494.36 1410.6 2494.64ZM1221.32 2482.02L1396 2473.83L1368.55 2335.99L1193.55 2342.59L1221.32 2482.02Z" fill="#D8DEE8"/>
<path d="M1657.68 2482.71L1468.43 2491.84C1462.75 2492.12 1457.2 2487.59 1456.04 2481.73L1424.47 2323.19C1423.3 2317.33 1426.97 2312.41 1432.66 2312.2L1622.36 2305.31C1627.9 2305.11 1633.33 2309.64 1634.48 2315.42L1665.61 2471.76C1666.76 2477.54 1663.21 2482.44 1657.68 2482.71ZM1474.48 2470.15L1643.48 2462.23L1616.48 2326.64L1447.17 2333.02L1474.48 2470.15Z" fill="#D8DEE8"/>
<path d="M1896.83 2471.16L1713.64 2480.01C1708.14 2480.27 1702.76 2475.81 1701.61 2470.05L1670.55 2314.08C1669.41 2308.31 1672.94 2303.48 1678.45 2303.28L1862.08 2296.61C1867.45 2296.42 1872.71 2300.87 1873.84 2306.56L1904.48 2460.4C1905.61 2466.09 1902.19 2470.91 1896.83 2471.16ZM1719.42 2458.68L1883.02 2451.01L1856.46 2317.59L1692.56 2323.77L1719.42 2458.68Z" fill="#D8DEE8"/>
<path d="M2128.44 2459.98L1951.02 2468.55C1945.7 2468.8 1940.47 2464.41 1939.34 2458.74L1908.78 2305.27C1907.65 2299.59 1911.06 2294.84 1916.39 2294.64L2094.24 2288.19C2099.44 2288 2104.55 2292.38 2105.67 2297.98L2135.81 2449.39C2136.93 2454.99 2133.63 2459.73 2128.44 2459.98ZM1956.55 2447.56L2115 2440.14L2088.85 2308.83L1930.12 2314.81L1956.55 2447.56Z" fill="#D8DEE8"/>
<path d="M2352.86 2449.15L2180.93 2457.45C2175.78 2457.7 2170.7 2453.37 2169.58 2447.79L2139.51 2296.73C2138.39 2291.14 2141.68 2286.46 2146.85 2286.28L2319.18 2280.02C2324.22 2279.84 2329.19 2284.16 2330.29 2289.67L2359.97 2438.73C2361.07 2444.24 2357.88 2448.91 2352.86 2449.15ZM2186.23 2436.8L2339.77 2429.61L2314.03 2300.33L2160.22 2306.13L2186.23 2436.8Z" fill="#D8DEE8"/>
<path d="M2570.41 2438.65L2403.73 2446.69C2398.74 2446.93 2393.8 2442.67 2392.7 2437.17L2363.09 2288.45C2362 2282.96 2365.17 2278.35 2370.18 2278.17L2537.24 2272.11C2542.13 2271.93 2546.97 2276.18 2548.05 2281.61L2577.27 2428.4C2578.36 2433.82 2575.28 2438.41 2570.41 2438.65ZM2408.81 2426.37L2557.65 2419.4L2532.31 2292.1L2383.2 2297.73L2408.81 2426.37Z" fill="#D8DEE8"/>
<path d="M1198.23 2723.06L996.499 2735.66C990.445 2736.03 984.556 2731.43 983.349 2725.37L950.704 2561.41C949.497 2555.35 953.441 2550.19 959.51 2549.88L1161.72 2539.69C1167.63 2539.39 1173.38 2543.99 1174.57 2549.97L1206.75 2711.57C1207.94 2717.55 1204.13 2722.69 1198.23 2723.06ZM1003.08 2713.06L1183.24 2702.06L1155.33 2561.89L974.85 2571.25L1003.08 2713.06Z" fill="#D8DEE8"/>
<path d="M1452.92 2707.15L1257.85 2719.33C1252 2719.7 1246.29 2715.16 1245.1 2709.2L1213.01 2548C1211.82 2542.04 1215.62 2536.97 1221.48 2536.68L1417.01 2526.82C1422.72 2526.53 1428.3 2531.06 1429.47 2536.93L1461.11 2695.87C1462.29 2701.74 1458.62 2706.79 1452.92 2707.15ZM1264.15 2697.12L1438.34 2686.49L1410.9 2548.65L1236.38 2557.69L1264.15 2697.12Z" fill="#D8DEE8"/>
<path d="M1699.3 2691.76L1510.58 2703.55C1504.92 2703.9 1499.38 2699.44 1498.22 2693.58L1466.65 2535.03C1465.48 2529.17 1469.14 2524.19 1474.81 2523.9L1663.98 2514.37C1669.51 2514.09 1674.92 2518.55 1676.07 2524.33L1707.2 2680.67C1708.35 2686.45 1704.82 2691.42 1699.3 2691.76ZM1516.6 2681.71L1685.13 2671.43L1658.13 2535.83L1489.3 2544.58L1516.6 2681.71Z" fill="#D8DEE8"/>
<path d="M1937.79 2676.86L1755.11 2688.27C1749.63 2688.62 1744.25 2684.22 1743.11 2678.45L1712.05 2522.49C1710.9 2516.72 1714.43 2511.82 1719.92 2511.54L1903.04 2502.31C1908.39 2502.04 1913.64 2506.43 1914.78 2512.12L1945.41 2665.96C1946.54 2671.65 1943.13 2676.53 1937.79 2676.86ZM1760.86 2666.8L1924.01 2656.85L1897.44 2523.43L1734 2531.9L1760.86 2666.8Z" fill="#D8DEE8"/>
<path d="M975.972 1648.76L768.685 1647.25L759.844 1602.85L967.247 1604.94L975.972 1648.76Z" fill="url(#paint14_linear_472_2869)"/>
<path d="M1237.57 1650.67L1037.22 1649.21L1028.53 1605.56L1228.99 1607.58L1237.57 1650.67Z" fill="url(#paint15_linear_472_2869)"/>
<path d="M1490.54 1652.51L1296.78 1651.1L1288.24 1608.18L1482.1 1610.13L1490.54 1652.51Z" fill="url(#paint16_linear_472_2869)"/>
<path d="M1735.3 1654.29L1547.82 1652.93L1539.41 1610.71L1727 1612.6L1735.3 1654.29Z" fill="url(#paint17_linear_472_2869)"/>
<path d="M1972.25 1656.02L1790.74 1654.7L1782.47 1613.16L1964.08 1615L1972.25 1656.02Z" fill="url(#paint18_linear_472_2869)"/>
<path d="M2201.74 1657.69L2025.93 1656.41L2017.79 1615.54L2193.7 1617.31L2201.74 1657.69Z" fill="url(#paint19_linear_472_2869)"/>
<path d="M2424.14 1659.31L2253.76 1658.07L2245.75 1617.84L2416.23 1619.56L2424.14 1659.31Z" fill="url(#paint20_linear_472_2869)"/>
<path d="M2405.47 1565.53L747.829 1542.5L731.118 1458.57L2390.51 1490.39L2405.47 1565.53Z" fill="#D8DEE8"/>
<g opacity="0.3">
<path d="M1963.17 2139.77C1591.97 1938.07 1240.2 2094.86 986.921 1836.15C857.033 1703.48 815.389 1524.4 807.876 1366.04L644.61 1361.94C615.585 1361.21 596.57 1383.68 602.235 1412.13L874.993 2782.02C880.658 2810.47 908.425 2831.95 936.917 2830.01L2470.84 2725.31C2302.35 2382.92 2116.17 2222.9 1963.17 2139.77Z" fill="#D8DEE8"/>
</g>
<path d="M1773.52 1576.42C1769.23 1566.65 1754.64 1560.26 1745.64 1568.61C1719.86 1592.53 1714.69 1632.24 1701.47 1664.09C1691.37 1688.39 1680.14 1712.19 1669.25 1736.14C1645.99 1703.03 1626.1 1667.44 1602.09 1634.84C1593.76 1623.53 1573.91 1633.88 1580.2 1647.15C1605.04 1699.56 1621.55 1754.04 1654.62 1802.53C1666.21 1819.52 1691.22 1814.28 1699.52 1797.43C1718.7 1758.54 1738.26 1719.78 1754.9 1679.71C1767.89 1648.45 1788.11 1609.68 1773.52 1576.42Z" fill="url(#paint21_linear_472_2869)"/>
<path d="M1071.23 404.231C1082.34 409.872 1096.3 404.692 1102.41 392.662C1108.52 380.632 1104.46 366.307 1093.35 360.666C1092.78 360.374 1092.19 360.128 1091.6 359.893C1093.67 353.236 1095.22 346.528 1096.27 339.816C1096.9 339.814 1097.54 339.803 1098.19 339.746C1110.87 338.616 1120.93 326.969 1120.66 313.729C1120.4 300.49 1109.9 290.674 1097.23 291.803C1096.57 291.862 1095.92 291.967 1095.27 292.082C1093.94 285.521 1092.13 279.112 1089.84 272.91C1090.42 272.569 1091 272.216 1091.57 271.819C1102.42 264.222 1105.88 249.226 1099.32 238.326C1092.75 227.426 1078.63 224.749 1067.79 232.346C1067.23 232.736 1066.71 233.156 1066.19 233.583C1061.91 228.848 1057.21 224.46 1052.13 220.455C1052.49 219.869 1052.84 219.275 1053.15 218.652C1059.26 206.622 1067.24 193.481 1056.04 188.015C1030.14 175.37 1019.03 186.195 1012.92 198.225C1012.6 198.848 1012.33 199.481 1012.07 200.115C1005.83 198.375 999.52 197.172 993.169 196.508C993.209 195.839 993.24 195.169 993.226 194.49C992.96 181.252 996.888 174.087 984.165 173.84C956.419 173.301 947.058 185.344 947.324 198.582C947.338 199.274 947.396 199.951 947.464 200.623C941.106 202.436 934.861 204.753 928.783 207.555C928.494 206.964 928.194 206.378 927.851 205.807C921.283 194.907 907.168 192.23 896.323 199.828C885.478 207.426 882.011 222.421 888.579 233.321C888.915 233.88 889.284 234.402 889.658 234.917C884.855 239.72 880.359 244.935 876.203 250.53C875.666 250.193 875.119 249.863 874.544 249.571C863.434 243.93 849.476 249.11 843.368 261.139C837.26 273.169 841.315 287.494 852.425 293.135C853.001 293.427 853.588 293.673 854.177 293.908C852.113 300.565 850.556 307.273 849.513 313.985C848.876 313.987 848.237 313.997 847.588 314.055C834.912 315.186 824.852 326.833 825.117 340.072C825.382 353.311 835.874 363.127 848.549 361.997C849.211 361.938 849.862 361.834 850.509 361.718C851.833 368.279 853.647 374.688 855.936 380.89C855.353 381.231 854.773 381.584 854.206 381.981C843.361 389.579 839.894 404.575 846.462 415.475C853.03 426.375 874.773 431.439 885.618 423.842C886.174 423.453 879.069 420.645 879.585 420.218C883.869 424.953 888.566 429.341 893.649 433.346C893.292 433.932 892.942 434.526 892.625 435.149C886.517 447.179 890.572 461.504 901.682 467.145C912.792 472.786 926.75 467.607 932.858 455.577C933.174 454.954 933.447 454.321 933.709 453.687C939.942 455.427 946.256 456.63 952.607 457.294C952.567 457.963 952.536 458.633 952.55 459.312C952.815 472.55 963.306 482.367 975.982 481.237C988.658 480.107 998.718 468.459 998.452 455.22C998.438 454.528 998.38 453.852 998.312 453.18C1004.67 451.368 1010.92 449.05 1016.99 446.248C1017.28 446.838 1017.58 447.425 1017.93 447.995C1024.49 458.895 1038.61 461.572 1049.45 453.974C1060.3 446.376 1063.77 431.381 1057.2 420.48C1056.86 419.922 1056.49 419.4 1056.12 418.885C1060.92 414.082 1065.42 408.867 1069.57 403.272C1070.11 403.609 1070.66 403.938 1071.23 404.231ZM932.735 405.988C892.396 385.507 877.673 333.496 899.85 289.818C922.026 246.139 972.705 227.334 1013.04 247.815C1053.38 268.296 1068.11 320.307 1045.93 363.985C1023.75 407.664 973.074 426.469 932.735 405.988Z" fill="url(#paint22_linear_472_2869)"/>
<path d="M1098.19 339.747C1110.87 338.617 1120.93 326.968 1120.66 313.729C1120.39 300.49 1109.9 290.675 1097.23 291.805C1096.56 291.864 1095.91 291.968 1095.27 292.083C1093.94 285.522 1092.13 279.114 1089.84 272.911C1090.42 272.57 1091 272.217 1091.57 271.82C1102.41 264.223 1115.83 245.864 1108.18 235.696C1093.66 216.397 1078.63 224.751 1067.79 232.349C1067.23 232.739 1066.71 233.158 1066.19 233.584C1061.91 228.849 1057.21 224.461 1052.13 220.456C1052.48 219.87 1052.83 219.277 1053.15 218.654C1056.48 212.107 1056.77 204.888 1054.57 198.751C1044.1 217.187 1033.77 235.701 1023.62 254.315C1055.8 277.896 1066.04 324.368 1045.93 363.987C1028.88 397.56 995 416.411 961.915 414.049C960.439 417.876 958.99 421.726 957.41 425.516C953.121 435.803 948.249 445.877 943.371 455.938C946.439 456.516 949.521 456.971 952.611 457.295C952.571 457.964 952.54 458.634 952.554 459.313C952.819 472.552 960.857 483.8 983.83 482.581C996.538 481.907 998.722 468.46 998.457 455.221C998.443 454.53 998.385 453.854 998.317 453.182C1004.67 451.37 1010.92 449.051 1017 446.248C1017.29 446.839 1017.59 447.425 1017.93 447.995C1024.5 458.896 1047.28 463.528 1058.13 455.93C1068.97 448.332 1063.77 431.383 1057.2 420.482C1056.86 419.923 1056.5 419.4 1056.12 418.885C1060.92 414.082 1065.42 408.867 1069.58 403.273C1070.12 403.61 1070.66 403.941 1071.24 404.232C1082.35 409.874 1096.3 404.694 1102.41 392.664C1108.52 380.635 1104.47 366.308 1093.35 360.667C1092.78 360.375 1092.19 360.129 1091.6 359.894C1093.67 353.237 1095.22 346.528 1096.27 339.818C1096.9 339.815 1097.54 339.805 1098.19 339.747Z" fill="url(#paint23_linear_472_2869)"/>
<path d="M1083.18 405.589C1094.29 411.23 1108.25 406.05 1114.36 394.02C1120.47 381.99 1116.41 367.665 1105.3 362.024C1104.73 361.732 1104.14 361.486 1103.55 361.251C1105.61 354.594 1107.17 347.886 1108.21 341.174C1108.85 341.172 1109.49 341.162 1110.14 341.104C1122.82 339.974 1132.88 328.326 1132.61 315.087C1132.34 301.848 1121.85 292.032 1109.18 293.162C1108.52 293.221 1107.86 293.326 1107.22 293.441C1105.89 286.88 1104.08 280.471 1101.79 274.269C1102.37 273.928 1102.95 273.575 1103.52 273.178C1114.36 265.581 1117.83 250.585 1111.26 239.685C1104.7 228.785 1090.58 226.108 1079.74 233.706C1079.18 234.095 1078.66 234.516 1078.14 234.943C1073.86 230.208 1069.16 225.82 1064.08 221.815C1064.43 221.229 1064.78 220.636 1065.1 220.013C1071.21 207.983 1067.15 193.657 1056.04 188.016C1044.93 182.375 1030.98 187.556 1024.87 199.586C1024.55 200.209 1024.28 200.841 1024.02 201.475C1017.78 199.735 1011.47 198.532 1005.12 197.867C1005.16 197.198 1005.19 196.528 1005.18 195.85C1004.91 182.611 994.421 172.795 981.745 173.925C969.069 175.055 959.009 186.703 959.275 199.941C959.289 200.633 959.347 201.309 959.415 201.981C953.057 203.794 946.812 206.112 940.734 208.914C940.445 208.324 940.145 207.736 939.803 207.165C933.235 196.265 919.119 193.588 908.275 201.186C897.43 208.785 893.963 223.78 900.531 234.68C900.867 235.238 901.236 235.761 901.61 236.276C896.808 241.079 892.31 246.294 888.154 251.889C887.617 251.552 887.072 251.222 886.496 250.93C875.386 245.289 861.428 250.47 855.32 262.5C849.212 274.53 853.267 288.854 864.377 294.495C864.953 294.787 865.54 295.033 866.13 295.268C864.066 301.925 862.509 308.634 861.466 315.346C860.829 315.348 860.19 315.358 859.541 315.415C846.865 316.546 836.805 328.193 837.07 341.432C837.335 354.671 847.827 364.486 860.502 363.357C861.164 363.298 861.815 363.194 862.462 363.078C863.786 369.639 865.6 376.048 867.889 382.25C867.306 382.591 866.726 382.944 866.159 383.341C855.315 390.938 851.847 405.934 858.415 416.834C864.983 427.735 879.098 430.411 889.943 422.814C890.499 422.424 891.022 422.004 891.538 421.577C895.821 426.312 900.519 430.701 905.602 434.706C905.245 435.292 904.895 435.884 904.578 436.508C898.47 448.538 902.525 462.864 913.635 468.505C924.745 474.146 938.703 468.965 944.811 456.935C945.128 456.312 945.4 455.679 945.662 455.045C951.895 456.785 958.209 457.988 964.56 458.652C964.52 459.321 964.49 459.991 964.503 460.67C964.769 473.908 975.259 483.726 987.935 482.596C1000.61 481.466 1010.67 469.817 1010.4 456.578C1010.39 455.886 1010.33 455.211 1010.26 454.539C1016.62 452.726 1022.87 450.409 1028.95 447.607C1029.23 448.197 1029.53 448.784 1029.88 449.354C1036.45 460.254 1050.56 462.931 1061.41 455.333C1072.25 447.735 1075.72 432.739 1069.15 421.839C1068.81 421.281 1068.45 420.759 1068.07 420.244C1072.87 415.441 1077.37 410.226 1081.53 404.631C1082.06 404.968 1082.61 405.297 1083.18 405.589ZM944.686 407.347C904.347 386.866 889.624 334.855 911.801 291.177C933.978 247.499 984.655 228.694 1024.99 249.174C1065.33 269.655 1080.06 321.666 1057.88 365.344C1035.7 409.023 985.024 427.827 944.686 407.347Z" fill="url(#paint24_linear_472_2869)"/>
<path d="M702.009 736.385C723.773 747.435 751.115 737.29 763.08 713.725C775.044 690.16 767.101 662.098 745.337 651.048C744.209 650.475 743.059 649.993 741.905 649.533C745.949 636.493 748.997 623.352 751.042 610.205C752.289 610.201 753.541 610.18 754.813 610.067C779.643 607.853 799.35 585.037 798.83 559.103C798.31 533.169 777.76 513.94 752.93 516.153C751.632 516.27 750.357 516.474 749.09 516.699C746.496 503.847 742.943 491.293 738.459 479.143C739.601 478.475 740.737 477.784 741.848 477.006C763.091 462.123 769.883 432.748 757.018 411.396C744.153 390.044 716.501 384.8 695.258 399.683C694.169 400.446 693.145 401.269 692.133 402.106C683.742 392.83 674.54 384.234 664.583 376.39C665.283 375.242 665.968 374.08 666.588 372.859C678.553 349.294 694.188 323.552 672.254 312.844C621.514 288.074 599.741 309.278 587.775 332.843C587.156 334.064 586.621 335.304 586.108 336.546C573.899 333.137 561.529 330.78 549.089 329.48C549.167 328.17 549.227 326.857 549.201 325.528C548.68 299.595 556.375 285.561 531.451 285.077C477.1 284.02 458.762 307.611 459.283 333.543C459.31 334.899 459.423 336.224 459.558 337.54C447.103 341.09 434.871 345.629 422.964 351.12C422.398 349.963 421.811 348.814 421.139 347.697C408.274 326.345 380.623 321.102 359.379 335.986C338.135 350.87 331.344 380.244 344.209 401.596C344.868 402.69 345.59 403.713 346.323 404.722C336.915 414.131 328.105 424.348 319.964 435.307C318.911 434.646 317.843 434 316.716 433.428C294.952 422.378 267.61 432.524 255.646 456.089C243.681 479.654 251.625 507.716 273.388 518.766C274.516 519.339 275.667 519.82 276.821 520.281C272.777 533.321 269.729 546.461 267.684 559.608C266.437 559.612 265.185 559.634 263.914 559.746C239.083 561.961 219.376 584.776 219.896 610.71C220.416 636.643 240.967 655.871 265.797 653.658C267.094 653.543 268.369 653.338 269.637 653.113C272.23 665.965 275.784 678.519 280.268 690.67C279.126 691.338 277.989 692.029 276.88 692.806C255.637 707.689 248.845 737.064 261.71 758.416C274.575 779.768 317.168 789.688 338.411 774.805C339.5 774.042 325.581 768.543 326.593 767.707C334.984 776.982 344.187 785.578 354.143 793.423C353.444 794.571 352.758 795.733 352.138 796.954C340.173 820.519 348.117 848.582 369.881 859.632C391.645 870.682 418.987 860.536 430.951 836.971C431.571 835.75 432.105 834.51 432.619 833.268C444.828 836.677 457.198 839.034 469.638 840.335C469.56 841.645 469.5 842.957 469.526 844.286C470.046 870.219 490.597 889.447 515.427 887.234C540.257 885.02 559.965 862.203 559.444 836.27C559.417 834.915 559.303 833.589 559.169 832.273C571.625 828.723 583.857 824.185 595.763 818.695C596.329 819.851 596.917 821.001 597.589 822.117C610.454 843.469 638.105 848.714 659.349 833.83C680.593 818.946 687.384 789.571 674.519 768.218C673.86 767.125 673.138 766.103 672.405 765.093C681.812 755.685 690.623 745.468 698.764 734.509C699.814 735.168 700.882 735.813 702.009 736.385ZM430.705 739.827C351.686 699.707 322.845 597.824 366.287 512.263C409.728 426.701 509.001 389.864 588.02 429.984C667.039 470.103 695.88 571.987 652.439 657.548C608.997 743.11 509.724 779.947 430.705 739.827Z" fill="url(#paint25_linear_472_2869)"/>
<path d="M754.812 610.067C779.642 607.853 799.349 585.036 798.829 559.103C798.309 533.17 777.759 513.94 752.929 516.154C751.631 516.269 750.356 516.476 749.089 516.701C746.496 503.849 742.942 491.295 738.458 479.144C739.6 478.477 740.736 477.786 741.847 477.008C763.09 462.125 789.372 426.163 774.384 406.243C745.938 368.437 716.5 384.803 695.257 399.685C694.168 400.448 693.144 401.271 692.133 402.107C683.742 392.831 674.539 384.236 664.583 376.391C665.283 375.243 665.968 374.08 666.588 372.86C673.1 360.034 673.674 345.894 669.374 333.873C648.855 369.987 628.613 406.254 608.734 442.716C671.773 488.91 691.842 579.94 652.439 657.549C619.048 723.315 552.674 760.244 487.864 755.617C484.973 763.114 482.134 770.652 479.038 778.077C470.637 798.228 461.093 817.964 451.537 837.673C457.547 838.806 463.583 839.698 469.637 840.331C469.559 841.642 469.499 842.955 469.525 844.284C470.045 870.217 485.79 892.25 530.791 889.863C555.685 888.543 559.963 862.202 559.443 836.268C559.416 834.913 559.303 833.589 559.169 832.272C571.624 828.722 583.856 824.181 595.762 818.691C596.328 819.848 596.916 820.998 597.588 822.113C610.453 843.466 655.084 852.538 676.328 837.654C697.572 822.77 687.382 789.569 674.517 768.216C673.858 767.122 673.136 766.1 672.403 765.091C681.81 755.683 690.621 745.466 698.762 734.508C699.815 735.169 700.883 735.813 702.01 736.384C723.774 747.435 751.116 737.288 763.081 713.723C775.045 690.159 767.102 662.097 745.338 651.048C744.21 650.475 743.06 649.994 741.905 649.534C745.949 636.494 748.997 623.351 751.042 610.206C752.288 610.202 753.54 610.18 754.812 610.067Z" fill="url(#paint26_linear_472_2869)"/>
<path d="M725.417 739.048C747.18 750.098 774.523 739.951 786.487 716.385C798.452 692.82 790.508 664.759 768.744 653.708C767.617 653.136 766.466 652.654 765.312 652.195C769.355 639.155 772.404 626.014 774.448 612.867C775.696 612.864 776.947 612.844 778.219 612.73C803.049 610.516 822.756 587.699 822.236 561.765C821.716 535.831 801.166 516.603 776.336 518.816C775.038 518.933 773.764 519.137 772.496 519.363C769.902 506.511 766.349 493.957 761.865 481.807C763.007 481.138 764.144 480.448 765.254 479.67C786.497 464.787 793.289 435.412 780.424 414.06C767.559 392.708 739.908 387.464 718.664 402.347C717.575 403.11 716.551 403.933 715.539 404.769C707.149 395.494 697.946 386.897 687.989 379.052C688.689 377.904 689.374 376.741 689.994 375.521C701.959 351.956 694.015 323.894 672.252 312.844C650.488 301.794 623.146 311.941 611.182 335.506C610.562 336.727 610.028 337.967 609.514 339.208C597.305 335.799 584.935 333.442 572.496 332.141C572.573 330.831 572.633 329.517 572.608 328.188C572.087 302.255 551.537 283.026 526.707 285.24C501.877 287.453 482.17 310.271 482.69 336.203C482.718 337.559 482.831 338.884 482.965 340.201C470.51 343.752 458.278 348.291 446.371 353.781C445.805 352.624 445.218 351.474 444.546 350.357C431.681 329.005 404.03 323.762 382.786 338.646C361.542 353.53 354.751 382.904 367.616 404.256C368.275 405.35 368.997 406.372 369.73 407.381C360.323 416.79 351.512 427.007 343.371 437.966C342.318 437.306 341.251 436.659 340.123 436.087C318.359 425.037 291.018 435.183 279.053 458.748C267.088 482.313 275.032 510.375 296.795 521.425C297.922 521.998 299.074 522.479 300.228 522.94C296.184 535.979 293.135 549.121 291.092 562.268C289.844 562.272 288.592 562.292 287.321 562.404C262.491 564.619 242.783 587.435 243.303 613.369C243.823 639.302 264.374 658.53 289.204 656.317C290.501 656.202 291.776 655.998 293.043 655.772C295.637 668.624 299.19 681.178 303.674 693.329C302.532 693.997 301.395 694.688 300.285 695.466C279.042 710.348 272.25 739.723 285.115 761.075C297.98 782.427 325.631 787.671 346.874 772.788C347.963 772.025 348.987 771.2 349.999 770.364C358.39 779.64 367.593 788.236 377.549 796.081C376.85 797.229 376.164 798.391 375.544 799.612C363.58 823.177 371.523 851.239 393.287 862.289C415.05 873.339 442.393 863.194 454.357 839.628C454.977 838.408 455.511 837.167 456.024 835.925C468.233 839.334 480.603 841.691 493.043 842.992C492.965 844.302 492.905 845.615 492.931 846.944C493.451 872.876 514.001 892.106 538.832 889.892C563.662 887.678 583.369 864.861 582.849 838.928C582.822 837.573 582.708 836.246 582.574 834.93C595.03 831.38 607.262 826.842 619.168 821.351C619.734 822.507 620.321 823.657 620.994 824.772C633.859 846.124 661.51 851.368 682.753 836.484C703.997 821.6 710.788 792.226 697.924 770.873C697.264 769.78 696.542 768.757 695.809 767.748C705.217 758.34 714.027 748.124 722.168 737.165C723.222 737.829 724.289 738.475 725.417 739.048ZM454.113 742.489C375.095 702.369 346.253 600.487 389.694 514.925C433.135 429.364 532.408 392.527 611.427 432.646C690.446 472.765 719.287 574.649 675.846 660.21C632.405 745.773 533.132 782.608 454.113 742.489Z" fill="url(#paint27_linear_472_2869)"/>
<defs>
<linearGradient id="paint0_linear_472_2869" x1="2557.43" y1="1000.25" x2="1727.67" y2="2197.51" gradientUnits="userSpaceOnUse">
<stop stop-color="#AA80F9"/>
<stop offset="0.9964" stop-color="#6165D7"/>
</linearGradient>
<linearGradient id="paint1_linear_472_2869" x1="2891.68" y1="1488.93" x2="1448.1" y2="1488.93" gradientUnits="userSpaceOnUse">
<stop stop-color="#FF9085"/>
<stop offset="1" stop-color="#FB6FBB"/>
</linearGradient>
<linearGradient id="paint2_linear_472_2869" x1="2891.72" y1="1616.06" x2="1279.38" y2="2204" gradientUnits="userSpaceOnUse">
<stop offset="0.0036" stop-color="#E38DDD"/>
<stop offset="1" stop-color="#9571F6"/>
</linearGradient>
<linearGradient id="paint3_linear_472_2869" x1="953.094" y1="1595.48" x2="-192.366" y2="2980.04" gradientUnits="userSpaceOnUse">
<stop offset="0.0036" stop-color="#F36F56"/>
<stop offset="1" stop-color="#FFC444"/>
</linearGradient>
<linearGradient id="paint4_linear_472_2869" x1="1304.14" y1="1885.9" x2="158.677" y2="3270.46" gradientUnits="userSpaceOnUse">
<stop offset="0.0036" stop-color="#F36F56"/>
<stop offset="1" stop-color="#FFC444"/>
</linearGradient>
<linearGradient id="paint5_linear_472_2869" x1="593.271" y1="1922.47" x2="2639.63" y2="-123.895" gradientUnits="userSpaceOnUse">
<stop stop-color="#FFC444"/>
<stop offset="0.9964" stop-color="#F36F56"/>
</linearGradient>
<linearGradient id="paint6_linear_472_2869" x1="828.897" y1="2158.09" x2="2875.26" y2="111.732" gradientUnits="userSpaceOnUse">
<stop stop-color="#FFC444"/>
<stop offset="0.9964" stop-color="#F36F56"/>
</linearGradient>
<linearGradient id="paint7_linear_472_2869" x1="-13.928" y1="2469.77" x2="376.688" y2="2269.92" gradientUnits="userSpaceOnUse">
<stop stop-color="#AA80F9"/>
<stop offset="0.9964" stop-color="#6165D7"/>
</linearGradient>
<linearGradient id="paint8_linear_472_2869" x1="193.28" y1="1039.34" x2="624.591" y2="2411.7" gradientUnits="userSpaceOnUse">
<stop stop-color="#FF9085"/>
<stop offset="1" stop-color="#FB6FBB"/>
</linearGradient>
<linearGradient id="paint9_linear_472_2869" x1="-198.514" y1="1280.11" x2="1506.79" y2="3393.2" gradientUnits="userSpaceOnUse">
<stop offset="0.0036" stop-color="#E38DDD"/>
<stop offset="1" stop-color="#9571F6"/>
</linearGradient>
<linearGradient id="paint10_linear_472_2869" x1="518.091" y1="2081.63" x2="2761.5" y2="2081.63" gradientUnits="userSpaceOnUse">
<stop offset="0.0036" stop-color="#EBEFF2"/>
<stop offset="1" stop-color="white"/>
</linearGradient>
<linearGradient id="paint11_linear_472_2869" x1="1191.56" y1="1485.82" x2="2760.52" y2="4028.58" gradientUnits="userSpaceOnUse">
<stop stop-color="#AA80F9"/>
<stop offset="0.9964" stop-color="#6165D7"/>
</linearGradient>
<linearGradient id="paint12_linear_472_2869" x1="846.655" y1="1707.92" x2="2439.46" y2="4289.34" gradientUnits="userSpaceOnUse">
<stop stop-color="#FF9085"/>
<stop offset="1" stop-color="#FB6FBB"/>
</linearGradient>
<linearGradient id="paint13_linear_472_2869" x1="1738.01" y1="2974.31" x2="1985.09" y2="1140.55" gradientUnits="userSpaceOnUse">
<stop offset="0.0036" stop-color="#EBEFF2"/>
<stop offset="1" stop-color="white"/>
</linearGradient>
<linearGradient id="paint14_linear_472_2869" x1="817.937" y1="1455.81" x2="891.849" y2="2465.96" gradientUnits="userSpaceOnUse">
<stop offset="0.0036" stop-color="#E38DDD"/>
<stop offset="1" stop-color="#9571F6"/>
</linearGradient>
<linearGradient id="paint15_linear_472_2869" x1="1078.58" y1="1442.81" x2="1150.91" y2="2431.3" gradientUnits="userSpaceOnUse">
<stop offset="0.0036" stop-color="#E38DDD"/>
<stop offset="1" stop-color="#9571F6"/>
</linearGradient>
<linearGradient id="paint16_linear_472_2869" x1="1330.61" y1="1430.38" x2="1401.42" y2="2398.09" gradientUnits="userSpaceOnUse">
<stop offset="0.0036" stop-color="#E38DDD"/>
<stop offset="1" stop-color="#9571F6"/>
</linearGradient>
<linearGradient id="paint17_linear_472_2869" x1="1574.46" y1="1418.49" x2="1643.8" y2="2366.24" gradientUnits="userSpaceOnUse">
<stop offset="0.0036" stop-color="#E38DDD"/>
<stop offset="1" stop-color="#9571F6"/>
</linearGradient>
<linearGradient id="paint18_linear_472_2869" x1="1810.5" y1="1407.12" x2="1878.44" y2="2335.65" gradientUnits="userSpaceOnUse">
<stop offset="0.0036" stop-color="#E38DDD"/>
<stop offset="1" stop-color="#9571F6"/>
</linearGradient>
<linearGradient id="paint19_linear_472_2869" x1="2039.11" y1="1396.21" x2="2105.7" y2="2306.29" gradientUnits="userSpaceOnUse">
<stop offset="0.0036" stop-color="#E38DDD"/>
<stop offset="1" stop-color="#9571F6"/>
</linearGradient>
<linearGradient id="paint20_linear_472_2869" x1="2260.65" y1="1385.75" x2="2325.93" y2="2278.07" gradientUnits="userSpaceOnUse">
<stop offset="0.0036" stop-color="#E38DDD"/>
<stop offset="1" stop-color="#9571F6"/>
</linearGradient>
<linearGradient id="paint21_linear_472_2869" x1="1575.02" y1="1668.45" x2="1765.66" y2="1696.31" gradientUnits="userSpaceOnUse">
<stop stop-color="#AB316D"/>
<stop offset="1" stop-color="#792D3D"/>
</linearGradient>
<linearGradient id="paint22_linear_472_2869" x1="1339.39" y1="429.229" x2="992.467" y2="331.058" gradientUnits="userSpaceOnUse">
<stop stop-color="#311944"/>
<stop offset="1" stop-color="#A03976"/>
</linearGradient>
<linearGradient id="paint23_linear_472_2869" x1="1338.48" y1="432.442" x2="991.556" y2="334.271" gradientUnits="userSpaceOnUse">
<stop stop-color="#311944"/>
<stop offset="1" stop-color="#A03976"/>
</linearGradient>
<linearGradient id="paint24_linear_472_2869" x1="983.375" y1="209.995" x2="988.8" y2="648.076" gradientUnits="userSpaceOnUse">
<stop stop-color="#FF9085"/>
<stop offset="1" stop-color="#FB6FBB"/>
</linearGradient>
<linearGradient id="paint25_linear_472_2869" x1="1227.29" y1="785.353" x2="547.712" y2="593.048" gradientUnits="userSpaceOnUse">
<stop stop-color="#311944"/>
<stop offset="1" stop-color="#A03976"/>
</linearGradient>
<linearGradient id="paint26_linear_472_2869" x1="1225.5" y1="791.647" x2="545.929" y2="599.341" gradientUnits="userSpaceOnUse">
<stop stop-color="#311944"/>
<stop offset="1" stop-color="#A03976"/>
</linearGradient>
<linearGradient id="paint27_linear_472_2869" x1="529.902" y1="355.899" x2="540.529" y2="1214.05" gradientUnits="userSpaceOnUse">
<stop stop-color="#FF9085"/>
<stop offset="1" stop-color="#FB6FBB"/>
</linearGradient>
</defs>
</svg>
