<svg width="22" height="26" viewBox="0 0 22 26" fill="none" xmlns="http://www.w3.org/2000/svg">
<g clip-path="url(#clip0_2509_20282)">
<path d="M21.4324 18.6319C20.9311 20.1771 20.1791 21.5877 19.1701 22.8572C18.7009 23.447 18.1996 24.0241 17.6405 24.5306C16.7729 25.3192 15.7253 25.5436 14.5942 25.2038C13.9515 25.0114 13.3281 24.755 12.6854 24.5626C11.4257 24.1779 10.2046 24.3639 8.98995 24.8191C8.39225 25.0435 7.7817 25.2487 7.15187 25.3513C6.25853 25.4987 5.50659 25.1076 4.8382 24.5434C3.85488 23.7163 3.10294 22.684 2.42169 21.6133C1.11704 19.5744 0.332963 17.3368 0.0758883 14.9324C-0.129771 13.0346 0.0501809 11.1752 1.01421 9.47613C2.26102 7.28977 4.14409 6.08439 6.68271 6.09722C7.42822 6.10363 8.17374 6.41138 8.91283 6.61014C9.41412 6.74479 9.90257 6.93714 10.3974 7.10384C10.7188 7.21283 11.0401 7.21283 11.3679 7.10384C12.2548 6.80249 13.1417 6.48832 14.0415 6.23186C16.3873 5.56505 19.0994 6.43062 20.5776 8.2964C20.6354 8.37334 20.6933 8.45027 20.7447 8.52721C16.7536 10.7328 16.9464 16.6251 21.4324 18.6319Z" fill="white"/>
<path d="M16.0392 1.59867e-05C16.1742 1.37851 15.795 2.57748 14.9981 3.65463C14.1883 4.73819 13.205 5.59735 11.8425 5.91151C11.6433 5.9564 11.444 5.97563 11.2384 5.99486C10.7692 6.03975 10.7114 5.99486 10.7242 5.53323C10.7499 4.62278 10.9941 3.77004 11.4504 2.98782C12.4466 1.28234 13.9505 0.320596 15.885 0.00642759C15.93 -0.00639562 15.9685 1.59867e-05 16.0392 1.59867e-05Z" fill="white"/>
</g>
<defs>
<clipPath id="clip0_2509_20282">
<rect width="21.4336" height="25.4028" fill="white"/>
</clipPath>
</defs>
</svg>
