<svg width="14" height="13" viewBox="0 0 14 13" fill="none" xmlns="http://www.w3.org/2000/svg">
<path d="M7.11117 8.9445C8.12369 8.9445 8.9445 8.12369 8.9445 7.11117C8.9445 6.09864 8.12369 5.27783 7.11117 5.27783C6.09864 5.27783 5.27783 6.09864 5.27783 7.11117C5.27783 8.12369 6.09864 8.9445 7.11117 8.9445Z" stroke="white" stroke-width="0.916667"/>
<path d="M1 7.33331C1 5.46074 1 4.52441 1.45773 3.85181C1.65589 3.56064 1.91052 3.31064 2.20709 3.11608C2.64728 2.8273 3.19837 2.72408 4.04211 2.68719C4.44474 2.68719 4.79141 2.38764 4.87037 2C4.98881 1.41854 5.50881 1 6.11274 1H8.10948C8.71338 1 9.23338 1.41854 9.35187 2C9.43083 2.38764 9.77745 2.68719 10.1801 2.68719C11.0239 2.72408 11.5749 2.8273 12.0152 3.11608C12.3117 3.31064 12.5663 3.56064 12.7645 3.85181C13.2222 4.52441 13.2222 5.46074 13.2222 7.33331C13.2222 9.20594 13.2222 10.1423 12.7645 10.8149C12.5663 11.106 12.3117 11.356 12.0152 11.5506C11.3301 12 10.3765 12 8.46912 12H5.75309C3.84579 12 2.89215 12 2.20709 11.5506C1.91052 11.356 1.65589 11.106 1.45773 10.8149C1.32845 10.6249 1.23568 10.4139 1.16911 10.1667" stroke="white" stroke-width="0.916667" stroke-linecap="round"/>
<path d="M11.3889 5.27783H10.7778" stroke="white" stroke-width="0.916667" stroke-linecap="round"/>
</svg>
