<svg width="24" height="24" viewBox="0 0 24 24" fill="none" xmlns="http://www.w3.org/2000/svg">
<path d="M9.99936 5.11579H12.2096C12.4129 5.11579 12.578 4.9582 12.578 4.76403V3.70877C12.578 2.9328 11.9171 2.30176 11.1045 2.30176C10.2918 2.30176 9.63098 2.9328 9.63098 3.70877V4.76403C9.63098 4.9582 9.79601 5.11579 9.99936 5.11579ZM10.3677 3.70877C10.3677 3.32114 10.6985 3.00526 11.1045 3.00526C11.5104 3.00526 11.8412 3.32114 11.8412 3.70877V4.41228H10.3677V3.70877Z" fill="#0B1719" stroke="black" stroke-width="0.4"/>
<path d="M20.987 5.38387L17.861 2.39889C17.3047 1.86704 16.3337 1.86704 15.7774 2.39889C15.4989 2.66411 15.3457 3.01727 15.3457 3.39365C15.3457 3.76932 15.4989 4.12248 15.7774 4.38841L16.0382 4.63745C16.1819 4.77463 16.1819 4.99764 16.0449 5.1292L14.5566 6.48134C14.3039 6.71139 14.1824 7.03289 14.2229 7.36213C14.2656 7.69911 14.4682 7.99107 14.7791 8.16202C17.3504 9.57818 18.7679 12.3078 18.4128 15.1345C18.0076 18.3291 15.3 20.8969 11.9449 21.2515C9.81272 21.4787 7.77119 20.8554 6.19012 19.5033C4.63116 18.1694 3.73675 16.258 3.73675 14.2607C3.73675 10.6538 6.56513 7.64635 10.3159 7.26575C10.4286 7.25449 10.531 7.28685 10.6136 7.35721C10.6924 7.42474 10.7359 7.51831 10.7359 7.61891V13.5952C10.7359 14.177 11.2317 14.6505 11.841 14.6505H14.4196C14.623 14.6505 14.788 14.4929 14.788 14.2987C14.788 14.1045 14.623 13.947 14.4196 13.947H11.841C11.6376 13.947 11.4726 13.7894 11.4726 13.5952V7.61891C11.4726 7.32062 11.3385 7.0343 11.1057 6.8338C10.87 6.63189 10.5495 6.53481 10.2378 6.56576C6.11203 6.98505 3 10.2929 3 14.2607C3 16.4585 3.98356 18.5606 5.69945 20.0274C7.20536 21.3148 9.09292 22 11.091 22C11.4004 22 11.7128 21.9838 12.0267 21.9508C15.6853 21.5645 18.6412 18.7857 19.1296 15.3146L19.1355 15.3153C19.14 15.2843 19.1407 15.2541 19.1444 15.2231C19.1473 15.1978 19.154 15.1725 19.1569 15.1471L19.1518 15.1464C19.5091 12.0651 17.9545 9.09838 15.1483 7.55278C15.04 7.49298 14.9692 7.39308 14.9552 7.27841C14.9471 7.2151 14.9515 7.09409 15.065 6.99068L16.5591 5.63221C16.7676 5.43311 16.8826 5.16789 16.8826 4.88579C16.8826 4.60438 16.7676 4.33916 16.5591 4.13936L16.2983 3.89103C16.1591 3.75806 16.0825 3.58148 16.0825 3.39365C16.0825 3.20581 16.1591 3.02923 16.2983 2.89627C16.5768 2.63034 17.0616 2.63034 17.3401 2.89627L20.4661 5.88125C20.6054 6.01421 20.682 6.19079 20.682 6.37863C20.682 6.56646 20.6054 6.74304 20.4661 6.87601C20.1788 7.15037 19.7117 7.15037 19.4243 6.87601L19.1635 6.62696C18.7325 6.21541 18.0312 6.21612 17.6002 6.62696L17.1058 7.09972C16.9621 7.23691 16.9621 7.45992 17.1058 7.5971C17.2495 7.73429 17.483 7.73429 17.6267 7.5971L18.121 7.12505C18.2647 6.98786 18.4983 6.98716 18.6427 7.12505L18.9035 7.37409C19.4774 7.92282 20.4131 7.92282 20.987 7.37409C21.2655 7.10746 21.4187 6.7543 21.4187 6.37863C21.4187 6.00225 21.2655 5.64909 20.987 5.38387Z" fill="#0B1719" stroke="black" stroke-width="0.4"/>
</svg>
