<svg width="20" height="20" viewBox="0 0 20 20" fill="none" xmlns="http://www.w3.org/2000/svg">
<g clip-path="url(#clip0_2349_13002)">
<path d="M1.45801 0C1.29225 0 1.13328 0.065848 1.01607 0.183058C0.898856 0.300269 0.833008 0.45924 0.833008 0.625V19.375C0.833008 19.5408 0.898856 19.6997 1.01607 19.8169C1.13328 19.9342 1.29225 20 1.45801 20C1.62377 20 1.78274 19.9342 1.89995 19.8169C2.01716 19.6997 2.08301 19.5408 2.08301 19.375V11.0817C2.76134 10.5567 5.26884 8.93833 9.19384 10.1258C14.5747 11.76 18.8813 5.41 19.0613 5.13917C19.1318 5.03322 19.1683 4.90828 19.1659 4.78105C19.1635 4.65382 19.1223 4.53035 19.0478 4.42716C18.9734 4.32397 18.8692 4.24597 18.7492 4.20359C18.6292 4.16121 18.4991 4.15647 18.3763 4.19C18.333 4.20333 14.0305 5.33333 10.1488 2.61417C7.18384 0.535833 3.61801 0.715833 2.08301 0.919167V0.625C2.08301 0.45924 2.01716 0.300269 1.89995 0.183058C1.78274 0.065848 1.62377 0 1.45801 0ZM9.43301 3.63667C12.2747 5.6275 15.2663 5.7925 17.0655 5.65C15.6255 7.28417 12.7313 9.89167 9.55551 8.92917C5.98967 7.8475 3.42217 8.8 2.08301 9.57917V2.1825C3.33217 2.00417 6.73634 1.74917 9.43301 3.63667Z" fill="black"/>
</g>
<defs>
<clipPath id="clip0_2349_13002">
<rect width="20" height="20" fill="white"/>
</clipPath>
</defs>
</svg>
