<svg width="14" height="17" viewBox="0 0 14 17" fill="none" xmlns="http://www.w3.org/2000/svg">
<path d="M10.7029 2.35294C9.94837 1.73516 9.06618 1.29253 8.11992 1.05698C7.17366 0.821416 6.18692 0.798799 5.23086 0.990754C4.00157 1.24278 2.87063 1.84286 1.97277 2.71952C1.07491 3.59617 0.447966 4.71244 0.166627 5.93535C-0.114712 7.15827 -0.0385894 8.43628 0.385927 9.61716C0.810443 10.798 1.56546 11.832 2.56104 12.5959C3.69771 13.4278 4.66551 14.4687 5.41268 15.6628L5.92177 16.5093C5.98642 16.6168 6.0778 16.7058 6.18702 16.7676C6.29623 16.8294 6.41957 16.8618 6.54504 16.8618C6.67051 16.8618 6.79385 16.8294 6.90306 16.7676C7.01228 16.7058 7.10366 16.6168 7.16831 16.5093L7.65631 15.6962C8.30694 14.5525 9.19408 13.5607 10.2585 12.7871C11.0931 12.2129 11.7829 11.4526 12.2734 10.5661C12.7638 9.6797 13.0416 8.69141 13.0848 7.67925C13.1279 6.66708 12.9353 5.65873 12.5221 4.73376C12.1088 3.80879 11.4863 2.9925 10.7036 2.3493L10.7029 2.35294ZM6.54431 10.3173C5.96895 10.3173 5.40651 10.1467 4.92811 9.82704C4.44971 9.50738 4.07684 9.05305 3.85666 8.52148C3.63648 7.98991 3.57887 7.40499 3.69112 6.84068C3.80336 6.27637 4.08043 5.75802 4.48727 5.35118C4.89412 4.94433 5.41247 4.66727 5.97678 4.55502C6.54109 4.44277 7.12601 4.50038 7.65758 4.72056C8.18914 4.94075 8.64348 5.31361 8.96314 5.79201C9.28279 6.27041 9.45341 6.83285 9.45341 7.40822C9.45341 8.17976 9.14691 8.9197 8.60135 9.46526C8.05579 10.0108 7.31585 10.3173 6.54431 10.3173Z" fill="#F99AC9"/>
</svg>
