<svg width="24" height="24" viewBox="0 0 24 24" fill="none" xmlns="http://www.w3.org/2000/svg">
<path d="M17.5428 11.3499C17.5693 11.5206 17.6625 11.6738 17.802 11.7758C17.9415 11.8777 18.1158 11.9201 18.2865 11.8936C18.4573 11.8671 18.6105 11.7738 18.7124 11.6343C18.8144 11.4949 18.8568 11.3206 18.8303 11.1498C18.6786 9.62631 18.0002 8.2034 16.912 7.12638C15.8238 6.04935 14.394 5.38569 12.8689 5.24977C12.781 5.24208 12.6923 5.25234 12.6084 5.27991C12.5245 5.30748 12.4471 5.3518 12.3808 5.41017C12.3146 5.46855 12.2608 5.53977 12.2229 5.61952C12.185 5.69928 12.1636 5.7859 12.1602 5.87415C12.1567 5.96239 12.1712 6.05043 12.2027 6.13291C12.2343 6.2154 12.2822 6.29063 12.3437 6.35403C12.4052 6.41743 12.4789 6.4677 12.5604 6.50177C12.6418 6.53585 12.7294 6.55304 12.8177 6.55229C12.8577 6.55479 16.839 6.76479 17.5428 11.3486V11.3499ZM18.9965 5.12977C14.5627 0.694707 10.5152 2.25098 10.3464 2.31973C10.1937 2.38935 10.0738 2.5151 10.0114 2.67087C9.94903 2.82664 9.94906 3.00044 10.0115 3.15619C10.0739 3.31193 10.1939 3.43765 10.3466 3.50721C10.4993 3.57677 10.6729 3.58485 10.8314 3.52975C10.8652 3.516 14.244 2.21848 18.0753 6.05228C21.6053 9.58358 20.5691 13.1686 20.5253 13.3174C20.486 13.4784 20.5094 13.6484 20.5909 13.7927C20.6723 13.9371 20.8056 14.0451 20.9638 14.0947C21.1219 14.1443 21.293 14.1319 21.4424 14.06C21.5917 13.9881 21.7081 13.862 21.7678 13.7074C21.8241 13.5261 23.1053 9.23982 18.9965 5.12977ZM17.4715 20.4875C17.409 20.55 17.2053 20.6962 16.6528 20.6962C14.8627 20.6962 11.4314 19.19 8.12764 15.8849C3.79133 11.5436 2.80631 7.2573 3.53007 6.53354C3.99758 6.06353 4.97134 5.08852 5.89261 5.08852C6.40136 5.08852 6.88512 5.38227 7.36763 5.98603C8.76139 7.72355 8.15764 8.31856 7.15762 9.30607L6.97262 9.48983C6.72262 9.73983 6.58886 10.0711 6.58886 10.4461C6.58886 11.0461 6.87762 12.1299 9.3789 14.6324C11.8814 17.1349 12.9652 17.4237 13.5627 17.4237C13.9377 17.4237 14.2665 17.2924 14.5165 17.0424L14.7002 16.8574C15.244 16.3049 15.714 15.8287 16.3077 15.8287C16.769 15.8287 17.3453 16.1037 18.0203 16.6462C18.594 17.1087 18.8865 17.5687 18.9115 18.0512C18.964 18.9962 17.9565 20.0037 17.4715 20.4887V20.4875ZM16.309 14.5249C15.169 14.5249 14.4277 15.2774 13.7727 15.9412L13.5627 16.1199C13.3627 16.1199 12.5364 15.9462 10.3002 13.7099C7.69138 11.0998 7.89388 10.4123 7.89388 10.4123L8.07264 10.2336C9.10265 9.21732 10.5127 7.8248 8.38514 5.16977C7.64763 4.25101 6.81012 3.78475 5.89261 3.78475C4.43258 3.78475 3.24507 4.97227 2.60881 5.60977C0.725034 7.4973 3.48257 13.0774 7.20762 16.8074C10.7914 20.395 14.5327 22 16.6528 22C17.4165 22 18.0028 21.8 18.3928 21.41C19.0103 20.7925 20.2953 19.5062 20.2128 17.9812C20.1665 17.1187 19.7028 16.3274 18.8353 15.6299C17.9103 14.8862 17.0828 14.5249 16.3077 14.5249H16.309Z" fill="black"/>
</svg>
