<svg width="22" height="22" viewBox="0 0 22 22" fill="none" xmlns="http://www.w3.org/2000/svg">
<g clip-path="url(#clip0_2349_13018)">
<path d="M5.15625 15.4036V18.0898H3.22266C2.8664 18.0898 2.57812 18.3781 2.57812 18.7344C2.57812 19.0906 2.8664 19.3789 3.22266 19.3789H5.15625V21.3555C5.15625 21.7117 5.44453 22 5.80078 22C6.15704 22 6.44531 21.7117 6.44531 21.3555V19.3789H8.37891C8.73516 19.3789 9.02344 19.0906 9.02344 18.7344C9.02344 18.3781 8.73516 18.0898 8.37891 18.0898H6.44531V15.4062C6.88372 15.3499 7.31186 15.261 7.71779 15.1176C7.34783 14.8097 7.0122 14.4631 6.71133 14.0871C6.41174 14.1487 6.10665 14.1798 5.80078 14.1797C3.31328 14.1797 1.28906 12.1555 1.28906 9.66797C1.28906 7.18046 3.31328 5.15625 5.80078 5.15625C8.37152 5.15625 10.3125 7.34899 10.3125 9.66797C10.3125 10.4146 10.1127 11.1088 9.79021 11.7297C10.072 12.0648 10.4165 12.3398 10.8112 12.5382C11.3001 11.6882 11.6016 10.717 11.6016 9.66797C11.6016 6.67838 9.14289 3.86719 5.80078 3.86719C2.60206 3.86719 0 6.46925 0 9.66797C0 12.646 2.26381 15.0782 5.15625 15.4036Z" fill="black" stroke="black" stroke-width="0.2"/>
<path d="M21.3555 0H17.4883C17.132 0 16.8438 0.288277 16.8438 0.644531C16.8438 1.00079 17.132 1.28906 17.4883 1.28906H19.7995L15.8467 5.15595C14.8543 4.36206 13.6131 3.86719 12.2461 3.86719C11.571 3.86719 10.9322 4.00533 10.3291 4.21833C10.699 4.52629 11.0347 4.87287 11.3355 5.24885C11.6351 5.18719 11.9402 5.15616 12.2461 5.15625C14.7336 5.15625 16.7578 7.18046 16.7578 9.66797C16.7578 12.1555 14.7336 14.1797 12.2461 14.1797C9.69276 14.1797 7.73438 12.011 7.73438 9.66797C7.73438 8.92139 7.93414 8.22714 8.25666 7.6062C7.97491 7.27113 7.63039 6.99613 7.23572 6.79779C6.74674 7.64775 6.44531 8.61897 6.44531 9.66797C6.44531 12.6867 8.97003 15.4688 12.2461 15.4688C15.4448 15.4688 18.0469 12.8667 18.0469 9.66797C18.0469 8.301 17.552 7.05981 16.7581 6.06736L20.7109 2.20047V4.51172C20.7109 4.86797 20.9992 5.15625 21.3555 5.15625C21.7117 5.15625 22 4.86797 22 4.51172V0.644531C22 0.291887 21.7109 0 21.3555 0Z" fill="black" stroke="black" stroke-width="0.2"/>
</g>
<defs>
<clipPath id="clip0_2349_13018">
<rect width="22" height="22" fill="white"/>
</clipPath>
</defs>
</svg>
