<svg width="20" height="20" viewBox="0 0 20 20" fill="none" xmlns="http://www.w3.org/2000/svg">
<path d="M15.6577 2.17017C12.7486 -0.72339 8.05048 -0.72339 5.14136 2.17017C2.2478 5.06373 2.2478 9.77743 5.14136 12.6865L10.3995 17.8203L15.6422 12.671C18.5513 9.77743 18.5513 5.06373 15.6577 2.17017ZM14.771 11.7843L10.3995 16.0779L6.0281 11.7998C4.86134 10.6331 4.22351 9.07737 4.22351 7.42836C4.22351 5.77934 4.86134 4.22366 6.0281 3.05691C7.19485 1.89015 8.75053 1.23676 10.3995 1.23676C12.0486 1.23676 13.6042 1.87459 14.771 3.04135C15.9378 4.20811 16.5756 5.76378 16.5756 7.4128C16.5911 9.07738 15.9378 10.6175 14.771 11.7843Z" fill="black"/>
<path d="M10.3997 4.23926C8.64174 4.23926 7.22607 5.67048 7.22607 7.41284C7.22607 9.1552 8.64174 10.602 10.3997 10.602C12.1576 10.602 13.5732 9.17075 13.5732 7.4284C13.5732 5.68604 12.1576 4.23926 10.3997 4.23926ZM10.3997 9.35744C9.34179 9.35744 8.47062 8.48626 8.47062 7.4284C8.47062 6.37054 9.34179 5.4838 10.3997 5.4838C11.4575 5.4838 12.3287 6.35498 12.3287 7.41284C12.3287 8.4707 11.4575 9.35744 10.3997 9.35744Z" fill="black"/>
<path d="M16.1556 18.3491H4.64355V19.5937H16.1556V18.3491Z" fill="black"/>
</svg>
