<svg width="24" height="24" viewBox="0 0 24 24" fill="none" xmlns="http://www.w3.org/2000/svg">
<g clip-path="url(#clip0_2349_12985)">
<path d="M23.9709 13.3789C23.7936 12.1502 22.8284 11.185 21.5997 11.0076V10.2804C21.5997 8.27407 20.0745 6.6405 18.1997 6.6405C16.379 6.6405 14.8546 8.22447 14.7998 10.1716H14.823L14.7998 10.1756V18.0583C14.7998 20.5783 12.9158 22.6247 10.5998 22.6247C8.28388 22.6247 6.39991 20.5755 6.39991 18.0583V17.3755C6.9799 17.3755 7.59989 16.9551 7.59989 15.7756V14.7696C10.1671 14.1132 11.9998 11.9088 11.9998 9.40966V8.57567H11.1998L11.183 3.36975C11.1772 2.40611 10.4857 1.58332 9.53746 1.41177C9.33291 0.785134 8.65907 0.442939 8.03238 0.647536C7.40574 0.852083 7.06355 1.52592 7.26814 2.15261C7.47269 2.77925 8.14653 3.12145 8.77322 2.91685C8.93898 2.86274 9.09087 2.77296 9.2182 2.65384C9.34554 2.53472 9.44523 2.38915 9.51026 2.22736C9.75975 2.29834 9.97953 2.44825 10.1367 2.65464C10.2938 2.86102 10.3798 3.11276 10.3818 3.37215L10.3998 8.57567H9.59986V9.42126C9.56796 10.8126 8.63517 12.0217 7.29749 12.4056C6.58175 12.6327 5.81327 12.6327 5.09753 12.4056C3.7614 12.0204 2.83071 10.8115 2.79996 9.42126V8.57567H1.59998V3.37575C1.6011 3.11272 1.68862 2.85735 1.84906 2.64892C2.0095 2.44049 2.23398 2.29055 2.48796 2.22216C2.73141 2.8419 3.43115 3.1469 4.05089 2.90345C4.67063 2.66001 4.97563 1.96022 4.73218 1.34053C4.48873 0.720835 3.78894 0.415789 3.16925 0.659236C3.00341 0.724391 2.85408 0.825494 2.73199 0.955271C2.6099 1.08505 2.51809 1.24027 2.46316 1.40977C1.50453 1.57357 0.802638 2.40321 0.799988 3.37575V8.57567H0V9.40766C0 11.9096 1.83397 14.1148 4.39994 14.7696V15.7756C4.39994 16.9551 5.01993 17.3755 5.59992 17.3755V18.0583C5.59992 21.0183 7.84269 23.4247 10.5998 23.4247C13.357 23.4247 15.5998 21.0155 15.5998 18.0583V10.1948C15.6398 8.67687 16.807 7.44169 18.1997 7.44169C19.6333 7.44169 20.7997 8.71527 20.7997 10.2816V11.0076C19.2692 11.2285 18.2075 12.6484 18.4284 14.1789C18.6493 15.7094 20.0692 16.771 21.5997 16.5502C23.1302 16.3293 24.1918 14.9094 23.9709 13.3789ZM8.39988 2.17576C8.29379 2.17576 8.19205 2.13362 8.11704 2.05861C8.04203 1.98359 7.99988 1.88185 7.99988 1.77577C7.99988 1.66968 8.04203 1.56794 8.11704 1.49293C8.19205 1.41792 8.29379 1.37578 8.39988 1.37578C8.50596 1.37578 8.6077 1.41792 8.68272 1.49293C8.75773 1.56794 8.79987 1.66968 8.79987 1.77577C8.79987 1.88185 8.75773 1.98359 8.68272 2.05861C8.6077 2.13362 8.50596 2.17576 8.39988 2.17576ZM3.59995 1.37578C3.70603 1.37578 3.80777 1.41792 3.88279 1.49293C3.9578 1.56794 3.99994 1.66968 3.99994 1.77577C3.99994 1.88185 3.9578 1.98359 3.88279 2.05861C3.80777 2.13362 3.70603 2.17576 3.59995 2.17576C3.49386 2.17576 3.39212 2.13362 3.31711 2.05861C3.2421 1.98359 3.19995 1.88185 3.19995 1.77577C3.19995 1.66968 3.2421 1.56794 3.31711 1.49293C3.39212 1.41792 3.49386 1.37578 3.59995 1.37578ZM0.799988 9.40766V9.37566H1.99997V9.42126C2.02997 11.1598 3.1866 12.677 4.85513 13.1664C5.72946 13.4432 6.66796 13.4432 7.54229 13.1664C9.21162 12.6777 10.3693 11.1604 10.3998 9.42126V9.37566H11.1998V9.40766C11.1998 11.6328 9.48466 13.5908 7.1199 14.0644C6.5646 14.1756 5.99584 14.2035 5.43232 14.1472C5.24683 14.1292 5.06244 14.1013 4.87993 14.0636C2.51516 13.5908 0.799988 11.6328 0.799988 9.40766ZM5.59992 16.5756C5.23992 16.5756 5.19992 16.0156 5.19992 15.7756V14.9268C5.23192 14.9308 5.26472 14.9324 5.29712 14.9356C5.33712 14.94 5.37712 14.9432 5.41712 14.9468C5.60632 14.9636 5.79712 14.9748 5.98951 14.9752H6.00951C6.20151 14.9752 6.39191 14.9636 6.5799 14.9468C6.6199 14.9432 6.6623 14.94 6.7035 14.9356C6.7351 14.932 6.7679 14.9308 6.7995 14.9268V15.7756C6.7995 16.0156 6.7595 16.5756 6.39951 16.5756H5.59992ZM21.1997 15.7756C20.0952 15.7756 19.1997 14.8801 19.1997 13.7756C19.1997 12.6711 20.0952 11.7756 21.1997 11.7756C22.3042 11.7756 23.1997 12.6711 23.1997 13.7756C23.1984 14.8796 22.3037 15.7743 21.1997 15.7756Z" fill="black"/>
<path d="M21.2 12.5757C20.5372 12.5757 20 13.1129 20 13.7757C20 14.4384 20.5372 14.9756 21.2 14.9756C21.8627 14.9756 22.4 14.4384 22.4 13.7757C22.4 13.1129 21.8627 12.5757 21.2 12.5757ZM21.2 14.1757C21.0939 14.1757 20.9922 14.1335 20.9171 14.0585C20.8421 13.9835 20.8 13.8818 20.8 13.7757C20.8 13.6696 20.8421 13.5678 20.9171 13.4928C20.9922 13.4178 21.0939 13.3757 21.2 13.3757C21.3061 13.3757 21.4078 13.4178 21.4828 13.4928C21.5578 13.5678 21.6 13.6696 21.6 13.7757C21.6 13.8818 21.5578 13.9835 21.4828 14.0585C21.4078 14.1335 21.3061 14.1757 21.2 14.1757Z" fill="black"/>
</g>
<defs>
<clipPath id="clip0_2349_12985">
<rect width="24" height="24" fill="white"/>
</clipPath>
</defs>
</svg>
