<svg width="27" height="27" viewBox="0 0 27 27" fill="none" xmlns="http://www.w3.org/2000/svg">
<path d="M23.0625 9.84375H16.875V6.1875C16.8741 5.44185 16.5775 4.727 16.0503 4.19975C15.523 3.6725 14.8081 3.37589 14.0625 3.375H3.9375C3.19185 3.37589 2.477 3.6725 1.94975 4.19975C1.4225 4.727 1.12589 5.44185 1.125 6.1875V12.9375C1.12589 13.6831 1.4225 14.398 1.94975 14.9253C2.477 15.4525 3.19185 15.7491 3.9375 15.75V16.9256C3.93708 17.1475 4.0027 17.3646 4.12601 17.5491C4.24931 17.7336 4.42473 17.8772 4.62994 17.9618C4.83604 18.0476 5.06302 18.0701 5.28199 18.0266C5.50096 17.983 5.70202 17.8753 5.85956 17.7171C5.8801 17.6973 5.89892 17.6759 5.91581 17.6529L7.31531 15.75H10.125V19.4063C10.1259 20.1519 10.4225 20.8668 10.9497 21.394C11.477 21.9213 12.1919 22.2179 12.9375 22.2188H19.1734L21.1421 24.1875C21.2995 24.3448 21.4999 24.4519 21.7181 24.4953C21.9363 24.5387 22.1624 24.5164 22.368 24.4313C22.5735 24.3461 22.7492 24.202 22.8728 24.017C22.9964 23.8321 23.0625 23.6146 23.0625 23.3921V22.2188C23.8081 22.2179 24.523 21.9213 25.0502 21.394C25.5775 20.8668 25.8741 20.1519 25.875 19.4063V12.6563C25.8741 11.9106 25.5775 11.1958 25.0502 10.6685C24.523 10.1412 23.8081 9.84464 23.0625 9.84375ZM7.03125 14.625C6.94359 14.6255 6.85725 14.6464 6.77912 14.6861C6.70099 14.7259 6.63323 14.7834 6.58125 14.8539L5.0625 16.9127V15.1875C5.0625 15.0383 5.00324 14.8952 4.89775 14.7898C4.79226 14.6843 4.64918 14.625 4.5 14.625H3.9375C3.48995 14.625 3.06072 14.4472 2.74426 14.1307C2.42779 13.8143 2.25 13.3851 2.25 12.9375V6.1875C2.25 5.73995 2.42779 5.31072 2.74426 4.99426C3.06072 4.67779 3.48995 4.5 3.9375 4.5H14.0625C14.5101 4.5 14.9393 4.67779 15.2557 4.99426C15.5722 5.31072 15.75 5.73995 15.75 6.1875V9.84375H12.9375C12.3391 9.84552 11.7571 10.0398 11.2776 10.3978L9.51187 6.51656C9.46713 6.41836 9.39508 6.33509 9.30432 6.27671C9.21356 6.21832 9.10792 6.18728 9 6.18728C8.89208 6.18728 8.78644 6.21832 8.69568 6.27671C8.60492 6.33509 8.53287 6.41836 8.48812 6.51656L5.67562 12.7041C5.64513 12.7714 5.62822 12.8441 5.62586 12.918C5.62349 12.9919 5.63572 13.0656 5.66184 13.1347C5.68797 13.2039 5.72747 13.2673 5.77809 13.3212C5.82872 13.375 5.88947 13.4184 5.95687 13.4488C6.02916 13.4823 6.10783 13.4998 6.1875 13.5C6.29546 13.5 6.40112 13.4689 6.49189 13.4104C6.58265 13.352 6.65468 13.2686 6.69937 13.1704L7.57237 11.25H10.4287L10.4687 11.3372C10.2464 11.7415 10.1282 12.1948 10.125 12.6563V14.625H7.03125ZM9.91744 10.125H8.08369L9 8.109L9.91744 10.125ZM24.75 19.4063C24.75 19.8538 24.5722 20.283 24.2557 20.5995C23.9393 20.916 23.51 21.0938 23.0625 21.0938H22.5C22.3508 21.0938 22.2077 21.153 22.1022 21.2585C21.9968 21.364 21.9375 21.5071 21.9375 21.6563V23.3921L19.8039 21.2586C19.6985 21.1531 19.5554 21.0938 19.4062 21.0938H12.9375C12.4899 21.0938 12.0607 20.916 11.7443 20.5995C11.4278 20.283 11.25 19.8538 11.25 19.4063V12.6563C11.25 12.2087 11.4278 11.7795 11.7443 11.463C12.0607 11.1465 12.4899 10.9688 12.9375 10.9688H23.0625C23.51 10.9688 23.9393 11.1465 24.2557 11.463C24.5722 11.7795 24.75 12.2087 24.75 12.6563V19.4063Z" fill="black"/>
<path d="M20.8125 14.0625H18.5625V12.9375C18.5625 12.7883 18.5032 12.6452 18.3977 12.5398C18.2923 12.4343 18.1492 12.375 18 12.375C17.8508 12.375 17.7077 12.4343 17.6023 12.5398C17.4968 12.6452 17.4375 12.7883 17.4375 12.9375V14.0625H15.1875C15.0383 14.0625 14.8952 14.1218 14.7898 14.2273C14.6843 14.3327 14.625 14.4758 14.625 14.625C14.625 14.7742 14.6843 14.9173 14.7898 15.0227C14.8952 15.1282 15.0383 15.1875 15.1875 15.1875H19.3612C19.2235 16.1431 18.7375 17.0142 17.9966 17.6332C17.5639 17.2718 17.2141 16.8213 16.9712 16.3125C16.9406 16.244 16.8967 16.1824 16.8419 16.1312C16.7872 16.0799 16.7227 16.0402 16.6524 16.0142C16.582 15.9882 16.5072 15.9766 16.4323 15.98C16.3574 15.9833 16.2839 16.0016 16.2162 16.0338C16.1485 16.066 16.0879 16.1114 16.0379 16.1673C15.988 16.2233 15.9498 16.2886 15.9255 16.3595C15.9012 16.4305 15.8913 16.5055 15.8964 16.5803C15.9015 16.6551 15.9216 16.7282 15.9553 16.7951C16.2167 17.3371 16.574 17.8272 17.01 18.2419C16.5101 18.4548 15.9722 18.5639 15.4288 18.5625C15.356 18.5628 15.2839 18.5778 15.2169 18.6064C15.1499 18.635 15.0893 18.6768 15.0387 18.7292C14.9881 18.7817 14.9486 18.8437 14.9223 18.9117C14.8961 18.9796 14.8837 19.0522 14.886 19.125C14.8905 19.2763 14.954 19.4197 15.0629 19.5248C15.1718 19.6299 15.3174 19.6883 15.4688 19.6875C16.3627 19.6872 17.2404 19.4483 18.0113 18.9956C18.7892 19.4465 19.672 19.685 20.5712 19.6875C20.644 19.6872 20.7161 19.6722 20.7831 19.6436C20.8501 19.615 20.9107 19.5732 20.9613 19.5208C21.0119 19.4683 21.0514 19.4063 21.0777 19.3383C21.1039 19.2704 21.1163 19.1978 21.114 19.125C21.1095 18.9737 21.046 18.8303 20.9371 18.7252C20.8282 18.6201 20.6826 18.5617 20.5312 18.5625C20.005 18.5604 19.4846 18.4522 19.0012 18.2441C19.8391 17.4294 20.3682 16.349 20.4981 15.1875H20.8125C20.9617 15.1875 21.1048 15.1282 21.2102 15.0227C21.3157 14.9173 21.375 14.7742 21.375 14.625C21.375 14.4758 21.3157 14.3327 21.2102 14.2273C21.1048 14.1218 20.9617 14.0625 20.8125 14.0625Z" fill="black"/>
</svg>
