<svg width="20" height="20" viewBox="0 0 20 20" fill="none" xmlns="http://www.w3.org/2000/svg">
<path d="M15.9814 2.47758C14.3837 0.879883 12.2595 0 10 0C7.74055 0 5.61625 0.879883 4.01859 2.47758C2.4209 4.07531 1.54102 6.19953 1.54102 8.45894C1.54102 13.0297 5.86281 16.8315 8.18465 18.8739C8.50731 19.1577 8.78594 19.4028 9.00793 19.6102C9.28606 19.87 9.64305 19.9999 9.99996 19.9999C10.357 19.9999 10.7139 19.87 10.992 19.6102C11.214 19.4028 11.4927 19.1577 11.8153 18.8739C14.1371 16.8314 18.4589 13.0297 18.4589 8.45894C18.4589 6.19953 17.5791 4.07531 15.9814 2.47758ZM11.0415 17.9943C10.7118 18.2843 10.427 18.5348 10.1923 18.7541C10.0844 18.8548 9.91551 18.8548 9.80762 18.7541C9.57289 18.5348 9.28813 18.2843 8.9584 17.9943C6.77559 16.0741 2.7125 12.5 2.7125 8.45898C2.7125 4.4407 5.9816 1.1716 9.99992 1.1716C14.0182 1.1716 17.2873 4.4407 17.2873 8.45898C17.2873 12.5 13.2243 16.0741 11.0415 17.9943Z" fill="black"/>
<path d="M9.99999 4.41162C7.94448 4.41162 6.27222 6.08385 6.27222 8.13936C6.27222 10.1949 7.94448 11.8671 9.99999 11.8671C12.0555 11.8671 13.7277 10.1949 13.7277 8.13936C13.7277 6.08385 12.0555 4.41162 9.99999 4.41162ZM9.99999 10.6955C8.5905 10.6955 7.44378 9.54877 7.44378 8.13932C7.44378 6.72986 8.5905 5.58314 9.99999 5.58314C11.4095 5.58314 12.5562 6.72986 12.5562 8.13932C12.5562 9.54877 11.4095 10.6955 9.99999 10.6955Z" fill="black"/>
</svg>
