<svg width="24" height="24" viewBox="0 0 24 24" fill="none" xmlns="http://www.w3.org/2000/svg">
<path d="M11.992 13.3223C9.06687 13.2269 8.36536 10.7225 8.2152 9.91397C7.9336 9.84872 7.6827 9.68934 7.50395 9.46218C7.29989 9.181 7.20524 8.83512 7.23768 8.48921C7.2145 8.30283 7.2307 8.11366 7.28523 7.93394C7.33975 7.75422 7.43139 7.58794 7.55422 7.44586C7.62356 7.37478 7.70328 7.31464 7.79066 7.26748C7.247 6.38976 6.97924 5.3691 7.02201 4.33753C7.3606 1.91807 9.31044 1.68261 9.92114 1.66899C10.2022 1.34208 10.5536 1.08297 10.9489 0.911046C11.6895 0.612319 12.5081 0.566711 13.2773 0.781316C14.7893 1.17602 15.7976 1.93299 16.276 3.03148C16.957 4.59278 16.3596 6.38986 16.0165 7.19678C16.1474 7.2393 16.268 7.30855 16.3707 7.40013C16.5104 7.542 16.6157 7.71406 16.6784 7.90305C16.7412 8.09203 16.7597 8.2929 16.7326 8.49018C16.7654 8.83607 16.6708 9.18202 16.4667 9.46315C16.2877 9.69026 16.0367 9.84961 15.7551 9.91494C15.6049 10.7225 14.905 13.2269 11.992 13.3223ZM8.3326 7.78607C8.21758 7.78072 8.10505 7.82079 8.01931 7.89764C7.95994 7.98079 7.91766 8.07488 7.89489 8.17447C7.87212 8.27406 7.86932 8.37718 7.88666 8.47786C7.88801 8.4995 7.88725 8.52123 7.88439 8.54272C7.86676 8.72888 7.91484 8.91533 8.02028 9.06975C8.08605 9.14322 8.16583 9.2028 8.25494 9.24502C8.34405 9.28724 8.44069 9.31123 8.5392 9.31559C8.61335 9.32435 8.68222 9.35844 8.73415 9.41209C8.78609 9.46574 8.81792 9.53567 8.82428 9.61007C8.83498 9.73072 9.12266 12.5799 11.9926 12.674C14.8467 12.5799 15.1356 9.73072 15.1463 9.60943C15.1528 9.53514 15.1847 9.46536 15.2366 9.41184C15.2886 9.35832 15.3574 9.32433 15.4314 9.31559C15.5299 9.31126 15.6266 9.28729 15.7157 9.24507C15.8048 9.20285 15.8846 9.14324 15.9503 9.06975C16.0562 8.91456 16.1043 8.72713 16.0862 8.54013C16.0835 8.51927 16.0828 8.49821 16.084 8.47721C16.1015 8.37323 16.0976 8.26676 16.0724 8.16435C16.0472 8.06195 16.0014 7.96577 15.9377 7.88175C15.8364 7.80714 15.7103 7.77418 15.5855 7.78964C15.5254 7.80029 15.4636 7.79381 15.4071 7.77094C15.3506 7.74807 15.3017 7.70974 15.266 7.66034C15.2303 7.61095 15.2092 7.55249 15.2052 7.49166C15.2012 7.43084 15.2144 7.37011 15.2433 7.31645C15.2553 7.29375 16.4433 5.03905 15.6798 3.28672C15.2845 2.38121 14.4215 1.7491 13.1141 1.40791C12.4858 1.23009 11.8163 1.26429 11.2094 1.50521C10.8641 1.65398 10.5631 1.88949 10.3356 2.18888C10.3029 2.23342 10.2592 2.26876 10.2088 2.29149C10.1584 2.31421 10.103 2.32356 10.048 2.31861C9.96395 2.3118 7.97812 2.18337 7.66676 4.40337C7.35541 6.62337 7.57693 6.16932 8.59985 7.23959C8.64442 7.28619 8.67409 7.34502 8.68507 7.40857C8.69605 7.47211 8.68783 7.53749 8.66147 7.59634C8.63718 7.65671 8.59434 7.7078 8.53914 7.74225C8.48394 7.7767 8.41923 7.79272 8.35433 7.78802L8.3326 7.78607Z" fill="black"/>
<path d="M15.5287 7.79386C15.445 7.79393 15.3645 7.76164 15.304 7.70373C15.2436 7.64583 15.2079 7.56679 15.2044 7.48316C15.2005 7.39916 15.0999 5.43991 13.6372 5.25148C12.9682 5.33645 12.2889 5.28348 11.6411 5.09583C10.9933 4.90819 10.3909 4.58986 9.87084 4.16045C9.45732 4.47148 8.50446 5.41689 8.6877 7.43321C8.69012 7.51574 8.66097 7.59609 8.6062 7.65787C8.55143 7.71966 8.47515 7.75822 8.39292 7.76571C8.3107 7.7732 8.22871 7.74904 8.16368 7.69816C8.09865 7.64729 8.05547 7.57353 8.04294 7.49191C7.77408 4.53375 9.67365 3.50694 9.7544 3.46478C9.81452 3.43341 9.88296 3.42166 9.95009 3.43121C10.0172 3.44075 10.0797 3.47109 10.1287 3.51797C10.5909 3.93667 11.1382 4.25059 11.733 4.43828C12.3278 4.62596 12.9561 4.68298 13.5749 4.60543C13.6046 4.60062 13.6348 4.59953 13.6648 4.60218C15.3136 4.77375 15.8173 6.54521 15.853 7.45624C15.8563 7.54205 15.8255 7.62569 15.7673 7.6888C15.709 7.75191 15.6281 7.78934 15.5423 7.79289L15.5287 7.79386ZM21.1096 23.3514H2.88975C2.80374 23.3514 2.72124 23.3172 2.66042 23.2564C2.5996 23.1956 2.56543 23.1131 2.56543 23.027V19.4115C2.56775 18.2687 3.02315 17.1736 3.83176 16.3661C4.64038 15.5586 5.73621 15.1048 6.87894 15.1041H7.50165C7.58766 15.1041 7.67016 15.1383 7.73098 15.1991C7.7918 15.2599 7.82597 15.3424 7.82597 15.4285C7.82597 15.5145 7.7918 15.597 7.73098 15.6578C7.67016 15.7186 7.58766 15.7528 7.50165 15.7528H6.87894C5.90819 15.7533 4.97724 16.1387 4.29024 16.8246C3.60323 17.5104 3.21623 18.4407 3.21408 19.4115V22.7027H20.7853V19.4115C20.7842 18.4415 20.3984 17.5115 19.7125 16.8256C19.0266 16.1397 18.0966 15.7539 17.1266 15.7528H16.4592C16.3731 15.7528 16.2907 15.7186 16.2298 15.6578C16.169 15.597 16.1348 15.5145 16.1348 15.4285C16.1348 15.3424 16.169 15.2599 16.2298 15.1991C16.2907 15.1383 16.3731 15.1041 16.4592 15.1041H17.1266C18.2685 15.1058 19.3631 15.5601 20.1706 16.3675C20.978 17.175 21.4323 18.2696 21.434 19.4115V23.027C21.434 23.1131 21.3998 23.1956 21.339 23.2564C21.2782 23.3172 21.1957 23.3514 21.1096 23.3514Z" fill="black"/>
<path d="M13.0837 23.3514C13.037 23.3514 12.9909 23.3413 12.9484 23.3219C12.906 23.3024 12.8683 23.274 12.8378 23.2386C12.8074 23.2033 12.7849 23.1617 12.772 23.1169C12.7591 23.072 12.756 23.0249 12.7629 22.9787L14.0755 14.2924C14.0824 14.2464 14.0992 14.2025 14.1246 14.1636C14.15 14.1246 14.1834 14.0916 14.2227 14.0668C14.262 14.0419 14.3062 14.0258 14.3522 14.0195C14.3983 14.0132 14.4451 14.0169 14.4896 14.0303L16.7547 14.713C16.7998 14.7266 16.8414 14.7499 16.8766 14.7812C16.9118 14.8125 16.9398 14.8511 16.9585 14.8943C16.9773 14.9375 16.9864 14.9843 16.9853 15.0314C16.9841 15.0785 16.9727 15.1248 16.9519 15.1671L16.0516 16.9735L16.5737 17.5596C16.62 17.6119 16.6482 17.6778 16.654 17.7474C16.6598 17.817 16.6431 17.8866 16.6062 17.9459L13.3594 23.1977C13.3303 23.2446 13.2897 23.2834 13.2415 23.3103C13.1932 23.3372 13.1389 23.3514 13.0837 23.3514ZM14.6612 14.7594L13.6412 21.5095L15.9286 17.8123L15.4217 17.2431C15.3786 17.1947 15.3509 17.1345 15.3423 17.0703C15.3337 17.0061 15.3445 16.9408 15.3734 16.8827L16.1998 15.2241L14.6612 14.7594ZM10.8786 23.3514C10.8233 23.3514 10.7689 23.3373 10.7206 23.3104C10.6723 23.2835 10.6317 23.2447 10.6026 23.1977L7.35481 17.9468C7.31791 17.8876 7.30113 17.8179 7.30697 17.7483C7.31281 17.6787 7.34097 17.6129 7.38724 17.5606L7.90941 16.9745L7.00908 15.168C6.98823 15.1258 6.97683 15.0795 6.97568 15.0324C6.97453 14.9853 6.98366 14.9385 7.00243 14.8953C7.0212 14.8521 7.04915 14.8135 7.08436 14.7822C7.11956 14.7509 7.16116 14.7276 7.20627 14.714L9.47135 14.0313C9.51584 14.0179 9.56267 14.0143 9.60867 14.0206C9.65468 14.0269 9.6988 14.0431 9.73804 14.0679C9.77727 14.0928 9.81072 14.1258 9.8361 14.1646C9.86149 14.2035 9.87823 14.2474 9.88519 14.2933L11.1984 22.9797C11.2052 23.0257 11.202 23.0726 11.189 23.1173C11.1761 23.162 11.1537 23.2033 11.1234 23.2386C11.0931 23.2738 11.0555 23.3022 11.0133 23.3216C10.971 23.3411 10.9251 23.3512 10.8786 23.3514ZM8.03362 17.8113L10.3211 21.5086L9.30108 14.7594L7.76249 15.2232L8.58854 16.8818C8.61745 16.9397 8.62832 17.0051 8.61977 17.0693C8.61121 17.1335 8.58362 17.1937 8.54054 17.2421L8.03362 17.8113Z" fill="black"/>
<path d="M12.005 17.3043C11.3037 17.3038 10.6031 17.2614 9.9069 17.1772C9.86373 17.1732 9.82179 17.1607 9.78356 17.1402C9.74532 17.1198 9.71158 17.0919 9.68432 17.0582C9.65705 17.0244 9.63682 16.9856 9.62483 16.9439C9.61283 16.9023 9.60931 16.8586 9.61447 16.8156C9.61963 16.7725 9.63337 16.731 9.65488 16.6933C9.67638 16.6557 9.70522 16.6227 9.73968 16.5964C9.77414 16.5701 9.81352 16.551 9.8555 16.5402C9.89748 16.5293 9.94121 16.527 9.98409 16.5334C11.3096 16.6964 12.6501 16.6964 13.9756 16.5334C14.0601 16.5243 14.1448 16.5487 14.2115 16.6014C14.2782 16.6541 14.3216 16.7309 14.3322 16.8153C14.3428 16.8997 14.3199 16.9848 14.2684 17.0524C14.2168 17.1201 14.1408 17.1647 14.0566 17.1769C13.3761 17.2623 12.6908 17.3048 12.005 17.3043ZM14.3965 14.665C14.346 14.6648 14.2963 14.6528 14.2512 14.63C14.2062 14.6072 14.1671 14.5742 14.1371 14.5336C13.6551 13.882 13.5679 12.5906 13.5598 12.4456C13.5548 12.3598 13.5841 12.2755 13.6413 12.2113C13.6985 12.147 13.7788 12.1081 13.8646 12.1031C13.9502 12.0991 14.034 12.1288 14.098 12.1857C14.162 12.2427 14.2012 12.3225 14.2071 12.408C14.2269 12.7492 14.3469 13.727 14.6583 14.148C14.6938 14.1962 14.7154 14.2533 14.7205 14.313C14.7256 14.3726 14.7141 14.4326 14.6872 14.4861C14.6603 14.5397 14.6192 14.5847 14.5683 14.6163C14.5174 14.6478 14.4587 14.6647 14.3988 14.665H14.3965ZM9.56507 14.665C9.50516 14.6647 9.44651 14.6478 9.3956 14.6163C9.34469 14.5847 9.30352 14.5397 9.27665 14.4861C9.24978 14.4326 9.23826 14.3726 9.24337 14.313C9.24848 14.2533 9.27002 14.1962 9.30561 14.148C9.61761 13.7264 9.73728 12.7489 9.75707 12.408C9.75954 12.3654 9.77037 12.3237 9.78895 12.2853C9.80753 12.2469 9.8335 12.2125 9.86536 12.1842C9.89722 12.1558 9.93436 12.134 9.97466 12.12C10.0149 12.1059 10.0576 12.1 10.1002 12.1025C10.1428 12.1049 10.1845 12.1158 10.2229 12.1344C10.2613 12.1529 10.2957 12.1789 10.324 12.2108C10.3524 12.2426 10.3742 12.2798 10.3882 12.3201C10.4022 12.3604 10.4082 12.403 10.4057 12.4456C10.3976 12.5906 10.3084 13.882 9.82842 14.5336C9.79799 14.5747 9.75827 14.608 9.7125 14.6309C9.66673 14.6537 9.61621 14.6654 9.56507 14.665ZM18.5362 18.8056C18.4518 18.8056 18.3707 18.7728 18.3101 18.714C18.2496 18.6552 18.2143 18.5751 18.2119 18.4907C18.1512 16.3787 17.3482 15.7141 17.3404 15.7077C17.2734 15.6545 17.23 15.5771 17.2194 15.4922C17.2088 15.4073 17.232 15.3216 17.284 15.2536C17.3356 15.1862 17.4117 15.1418 17.4958 15.1301C17.5799 15.1185 17.6652 15.1405 17.7332 15.1913C17.776 15.2238 18.7895 16.0109 18.8605 18.4719C18.863 18.5578 18.8312 18.6412 18.7722 18.7037C18.7132 18.7662 18.6318 18.8027 18.5459 18.8053L18.5362 18.8056Z" fill="black"/>
<path d="M18.5376 20.7205C18.2841 20.7205 18.0361 20.6454 17.8253 20.5045C17.6144 20.3637 17.45 20.1635 17.3529 19.9292C17.2559 19.695 17.2304 19.4372 17.2798 19.1885C17.3293 18.9398 17.4514 18.7113 17.6306 18.532C17.8099 18.3526 18.0384 18.2305 18.2871 18.181C18.5358 18.1315 18.7936 18.1569 19.0279 18.2539C19.2621 18.3509 19.4624 18.5153 19.6033 18.7261C19.7442 18.9369 19.8194 19.1848 19.8194 19.4384C19.819 19.7783 19.6839 20.1041 19.4436 20.3445C19.2033 20.5848 18.8775 20.72 18.5376 20.7205ZM18.5376 18.805C18.4123 18.8049 18.2898 18.842 18.1856 18.9116C18.0814 18.9811 18.0002 19.08 17.9522 19.1958C17.9042 19.3115 17.8916 19.4389 17.916 19.5618C17.9404 19.6847 18.0007 19.7976 18.0893 19.8862C18.1779 19.9748 18.2907 20.0351 18.4136 20.0596C18.5365 20.0841 18.6639 20.0716 18.7796 20.0236C18.8954 19.9757 18.9943 19.8945 19.0639 19.7903C19.1336 19.6862 19.1707 19.5637 19.1707 19.4384C19.1705 19.2705 19.1038 19.1096 18.9851 18.9908C18.8664 18.8721 18.7055 18.8053 18.5376 18.805ZM5.21504 18.8056C5.13287 18.8059 5.05368 18.7749 4.99348 18.7189C4.93328 18.663 4.89655 18.5863 4.89071 18.5043C4.71396 16.0152 6.08552 15.2196 6.1439 15.1868C6.21882 15.1446 6.30747 15.1338 6.39034 15.1569C6.47321 15.1799 6.54352 15.235 6.58579 15.3099C6.62807 15.3848 6.63885 15.4735 6.61577 15.5563C6.59269 15.6392 6.53763 15.7095 6.46271 15.7518C6.41342 15.781 5.39244 16.4112 5.53742 18.4586C5.54348 18.5444 5.51521 18.6291 5.45883 18.6941C5.40245 18.759 5.32257 18.7989 5.23677 18.805L5.21504 18.8056Z" fill="black"/>
<path d="M4.55937 21.4025C4.50919 21.4028 4.45963 21.3913 4.41461 21.3692C4.36959 21.347 4.33033 21.3147 4.29991 21.2747C4.1416 21.0668 4.02497 20.8303 3.95645 20.5781C3.8059 20.0869 3.85529 19.5561 4.0939 19.1011C4.33251 18.6461 4.74105 18.3037 5.23072 18.1483C5.46299 18.0829 5.70594 18.0646 5.94539 18.0942C6.18483 18.1238 6.41598 18.2008 6.62532 18.3208C6.9922 18.5328 7.28565 18.8517 7.46647 19.2348C7.64728 19.618 7.70685 20.0473 7.63721 20.4652C7.6231 20.5501 7.57587 20.6259 7.50589 20.6759C7.43591 20.7259 7.34893 20.7461 7.26408 20.732C7.17922 20.7179 7.10345 20.6706 7.05342 20.6007C7.00339 20.5307 6.98321 20.4437 6.99732 20.3589C7.04492 20.0725 7.00449 19.7784 6.88138 19.5155C6.75826 19.2526 6.55826 19.0332 6.30781 18.8864C6.17276 18.8084 6.02354 18.7582 5.86884 18.7385C5.71415 18.7188 5.55709 18.7302 5.40683 18.7719C5.08185 18.8806 4.81283 19.1131 4.65813 19.4188C4.50342 19.7246 4.47551 20.079 4.58045 20.4052C4.62739 20.5779 4.70735 20.7398 4.81591 20.882C4.85244 20.9301 4.87482 20.9874 4.88054 21.0475C4.88627 21.1076 4.8751 21.1681 4.8483 21.2222C4.82151 21.2763 4.78015 21.3218 4.72887 21.3537C4.6776 21.3855 4.61845 21.4025 4.55808 21.4025H4.55937Z" fill="black"/>
<path d="M7.32166 20.737C7.30901 20.737 7.29604 20.737 7.28306 20.7351L6.91755 20.6919C6.87524 20.6869 6.83433 20.6736 6.79716 20.6528C6.75999 20.6319 6.72728 20.604 6.70092 20.5705C6.67455 20.537 6.65504 20.4987 6.64349 20.4577C6.63194 20.4166 6.62858 20.3738 6.6336 20.3314C6.63863 20.2891 6.65194 20.2482 6.67278 20.211C6.69361 20.1739 6.72157 20.1412 6.75504 20.1148C6.82264 20.0616 6.90863 20.0373 6.99409 20.0475L7.3596 20.091C7.44169 20.1007 7.51695 20.1415 7.57 20.2048C7.62306 20.2682 7.64991 20.3495 7.64507 20.432C7.64022 20.5145 7.60405 20.5921 7.54394 20.6488C7.48383 20.7056 7.40432 20.7369 7.32166 20.737ZM4.55939 21.4054C4.48324 21.4055 4.40948 21.3788 4.35103 21.33C4.29259 21.2812 4.25318 21.2134 4.23973 21.1384C4.22627 21.0635 4.23961 20.9862 4.27742 20.9201C4.31523 20.854 4.37509 20.8033 4.44652 20.7769L4.83571 20.6332C4.87564 20.6183 4.91811 20.6114 4.96071 20.6129C5.0033 20.6144 5.04518 20.6243 5.08396 20.642C5.12273 20.6597 5.15764 20.6849 5.18669 20.716C5.21575 20.7472 5.23837 20.7838 5.25328 20.8238C5.26819 20.8637 5.27508 20.9062 5.27357 20.9488C5.27207 20.9914 5.26218 21.0332 5.24449 21.072C5.2268 21.1108 5.20164 21.1457 5.17045 21.1747C5.13927 21.2038 5.10267 21.2264 5.06274 21.2413L4.67355 21.3853C4.63701 21.3988 4.59834 21.4056 4.55939 21.4054Z" fill="black"/>
</svg>
