<svg width="17" height="10" viewBox="0 0 17 10" fill="none" xmlns="http://www.w3.org/2000/svg">
<path d="M8.38165 9.23099C8.65089 9.22473 8.90821 9.11874 9.10368 8.93368L15.8993 2.40985C16.1786 2.13947 16.293 1.74092 16.1993 1.36356C16.1054 0.986241 15.818 0.687398 15.4445 0.579152C15.0711 0.470883 14.6684 0.569672 14.3874 0.838543L8.34751 6.64009L2.30763 0.838542C2.02662 0.569672 1.62389 0.470887 1.25056 0.579151C0.877031 0.68742 0.58959 0.986245 0.495713 1.36356C0.402045 1.74089 0.51638 2.13943 0.795678 2.40985L7.59133 8.93368C7.80388 9.13523 8.08867 9.24237 8.38123 9.23099L8.38165 9.23099Z" fill="#C5114C"/>
</svg>
