<svg width="25" height="26" viewBox="0 0 25 26" fill="none" xmlns="http://www.w3.org/2000/svg">
<path d="M5.52786 15.2817L4.65952 18.5681L1.48638 18.6366C0.526434 16.824 0.0164046 14.8017 0.000389197 12.7444C-0.0156262 10.6872 0.462855 8.65692 1.39446 6.82922L4.21949 7.35465L5.45745 10.2019C4.90089 11.8528 4.92577 13.6483 5.52786 15.2827V15.2817Z" fill="#FBBB00"/>
<path d="M24.7248 10.281C25.148 12.5356 24.9578 14.8645 24.1745 17.0178C23.3911 19.1711 22.0443 21.0676 20.2785 22.5037L16.7201 22.3193L16.2165 19.132C17.6863 18.2588 18.8155 16.9001 19.4151 15.2835H12.7461V10.281H24.7258H24.7248Z" fill="#518EF8"/>
<path d="M20.2778 22.5037C18.8506 23.6649 17.189 24.4936 15.4107 24.9311C13.6323 25.3685 11.7808 25.404 9.98746 25.0351C8.19408 24.6661 6.5027 23.9017 5.03323 22.7961C3.56377 21.6904 2.35218 20.2706 1.48438 18.6373L5.52585 15.2834C5.90541 16.309 6.50134 17.2381 7.27197 18.0057C8.04261 18.7734 8.96935 19.3612 9.9874 19.7279C11.0054 20.0947 12.0902 20.2315 13.1659 20.1289C14.2415 20.0263 15.2821 19.6868 16.2148 19.134L20.2778 22.5037Z" fill="#28B446"/>
<path d="M20.4324 2.90922L16.3919 6.26306C15.4453 5.66549 14.3781 5.292 13.2695 5.17035C12.1609 5.04871 11.0395 5.18205 9.98871 5.56045C8.93796 5.93886 7.98488 6.55259 7.20039 7.35599C6.41589 8.15938 5.82016 9.13177 5.45752 10.2008L1.39453 6.83013C2.25161 5.1526 3.46849 3.69106 4.95579 2.55287C6.44309 1.41468 8.16301 0.62877 9.9892 0.252872C11.8154 -0.123026 13.7014 -0.0793607 15.5088 0.380661C17.3161 0.840683 18.9989 1.70537 20.4334 2.91121L20.4324 2.90922Z" fill="#F14336"/>
</svg>
