<svg width="24" height="24" viewBox="0 0 24 24" fill="none" xmlns="http://www.w3.org/2000/svg">
<path d="M2.5 22H21.5C21.6326 22 21.7598 21.9473 21.8536 21.8536C21.9473 21.7598 22 21.6326 22 21.5V9.5C22 9.36739 21.9473 9.24021 21.8536 9.14645C21.7598 9.05268 21.6326 9 21.5 9H19V4.5C19 4.36739 18.9473 4.24021 18.8536 4.14645C18.7598 4.05268 18.6326 4 18.5 4H16V3.5C16 3.10218 15.842 2.72064 15.5607 2.43934C15.2794 2.15804 14.8978 2 14.5 2H9.5C9.10218 2 8.72064 2.15804 8.43934 2.43934C8.15804 2.72064 8 3.10218 8 3.5V4H5.5C5.36739 4 5.24021 4.05268 5.14645 4.14645C5.05268 4.24021 5 4.36739 5 4.5V9H2.5C2.36739 9 2.24021 9.05268 2.14645 9.14645C2.05268 9.24021 2 9.36739 2 9.5V21.5C2 21.6326 2.05268 21.7598 2.14645 21.8536C2.24021 21.9473 2.36739 22 2.5 22ZM19 10H21V21H19V10ZM13.5 21H10.5V17.5H13.5V21ZM9 3.5C9 3.36739 9.05268 3.24021 9.14645 3.14645C9.24021 3.05268 9.36739 3 9.5 3H14.5C14.6326 3 14.7598 3.05268 14.8536 3.14645C14.9473 3.24021 15 3.36739 15 3.5V8.5C15 8.63261 14.9473 8.75979 14.8536 8.85355C14.7598 8.94732 14.6326 9 14.5 9H9.5C9.36739 9 9.24021 8.94732 9.14645 8.85355C9.05268 8.75979 9 8.63261 9 8.5V3.5ZM6 5H8V8.5C8 8.89782 8.15804 9.27936 8.43934 9.56066C8.72064 9.84196 9.10218 10 9.5 10H14.5C14.8978 10 15.2794 9.84196 15.5607 9.56066C15.842 9.27936 16 8.89782 16 8.5V5H18V21H14.5V17C14.5 16.8674 14.4473 16.7402 14.3536 16.6464C14.2598 16.5527 14.1326 16.5 14 16.5H10C9.86739 16.5 9.74021 16.5527 9.64645 16.6464C9.55268 16.7402 9.5 16.8674 9.5 17V21H6V5ZM3 10H5V21H3V10Z" fill="black"/>
<path d="M10.5 6.5H11.5V7.5C11.5 7.63261 11.5527 7.75979 11.6464 7.85355C11.7402 7.94732 11.8674 8 12 8C12.1326 8 12.2598 7.94732 12.3536 7.85355C12.4473 7.75979 12.5 7.63261 12.5 7.5V6.5H13.5C13.6326 6.5 13.7598 6.44732 13.8536 6.35355C13.9473 6.25979 14 6.13261 14 6C14 5.86739 13.9473 5.74021 13.8536 5.64645C13.7598 5.55268 13.6326 5.5 13.5 5.5H12.5V4.5C12.5 4.36739 12.4473 4.24021 12.3536 4.14645C12.2598 4.05268 12.1326 4 12 4C11.8674 4 11.7402 4.05268 11.6464 4.14645C11.5527 4.24021 11.5 4.36739 11.5 4.5V5.5H10.5C10.3674 5.5 10.2402 5.55268 10.1464 5.64645C10.0527 5.74021 10 5.86739 10 6C10 6.13261 10.0527 6.25979 10.1464 6.35355C10.2402 6.44732 10.3674 6.5 10.5 6.5ZM8.5 12.5H9.5C9.63261 12.5 9.75979 12.4473 9.85355 12.3536C9.94732 12.2598 10 12.1326 10 12C10 11.8674 9.94732 11.7402 9.85355 11.6464C9.75979 11.5527 9.63261 11.5 9.5 11.5H8.5C8.36739 11.5 8.24021 11.5527 8.14645 11.6464C8.05268 11.7402 8 11.8674 8 12C8 12.1326 8.05268 12.2598 8.14645 12.3536C8.24021 12.4473 8.36739 12.5 8.5 12.5ZM10 14.5C10 14.3674 9.94732 14.2402 9.85355 14.1464C9.75979 14.0527 9.63261 14 9.5 14H8.5C8.36739 14 8.24021 14.0527 8.14645 14.1464C8.05268 14.2402 8 14.3674 8 14.5C8 14.6326 8.05268 14.7598 8.14645 14.8536C8.24021 14.9473 8.36739 15 8.5 15H9.5C9.63261 15 9.75979 14.9473 9.85355 14.8536C9.94732 14.7598 10 14.6326 10 14.5ZM11.5 12.5H12.5C12.6326 12.5 12.7598 12.4473 12.8536 12.3536C12.9473 12.2598 13 12.1326 13 12C13 11.8674 12.9473 11.7402 12.8536 11.6464C12.7598 11.5527 12.6326 11.5 12.5 11.5H11.5C11.3674 11.5 11.2402 11.5527 11.1464 11.6464C11.0527 11.7402 11 11.8674 11 12C11 12.1326 11.0527 12.2598 11.1464 12.3536C11.2402 12.4473 11.3674 12.5 11.5 12.5ZM11.5 15H12.5C12.6326 15 12.7598 14.9473 12.8536 14.8536C12.9473 14.7598 13 14.6326 13 14.5C13 14.3674 12.9473 14.2402 12.8536 14.1464C12.7598 14.0527 12.6326 14 12.5 14H11.5C11.3674 14 11.2402 14.0527 11.1464 14.1464C11.0527 14.2402 11 14.3674 11 14.5C11 14.6326 11.0527 14.7598 11.1464 14.8536C11.2402 14.9473 11.3674 15 11.5 15ZM14.5 12.5H15.5C15.6326 12.5 15.7598 12.4473 15.8536 12.3536C15.9473 12.2598 16 12.1326 16 12C16 11.8674 15.9473 11.7402 15.8536 11.6464C15.7598 11.5527 15.6326 11.5 15.5 11.5H14.5C14.3674 11.5 14.2402 11.5527 14.1464 11.6464C14.0527 11.7402 14 11.8674 14 12C14 12.1326 14.0527 12.2598 14.1464 12.3536C14.2402 12.4473 14.3674 12.5 14.5 12.5ZM14.5 15H15.5C15.6326 15 15.7598 14.9473 15.8536 14.8536C15.9473 14.7598 16 14.6326 16 14.5C16 14.3674 15.9473 14.2402 15.8536 14.1464C15.7598 14.0527 15.6326 14 15.5 14H14.5C14.3674 14 14.2402 14.0527 14.1464 14.1464C14.0527 14.2402 14 14.3674 14 14.5C14 14.6326 14.0527 14.7598 14.1464 14.8536C14.2402 14.9473 14.3674 15 14.5 15Z" fill="black"/>
</svg>
