<svg width="24" height="24" viewBox="0 0 24 24" fill="none" xmlns="http://www.w3.org/2000/svg">
<path d="M16.8293 1.38916C15.0005 1.38916 13.2701 2.12233 11.9927 3.41983C10.7147 2.12233 8.97941 1.38916 7.14139 1.38916C3.40527 1.38916 0.365234 4.42891 0.365234 8.1656C0.365234 15.8489 11.2509 22.266 11.714 22.5355C11.8001 22.5858 11.8964 22.6107 11.9927 22.6107C12.089 22.6107 12.1848 22.5858 12.2708 22.536C12.7351 22.2666 23.6356 15.8489 23.6356 8.1656C23.6355 4.42891 20.5822 1.38916 16.8293 1.38916ZM11.9927 21.4084C10.2991 20.3566 1.47331 14.5676 1.47331 8.1656C1.47331 5.04035 4.01609 2.49729 7.14134 2.49729C8.86034 2.49729 10.4722 3.26346 11.5635 4.59883C11.669 4.7276 11.8265 4.80227 11.9926 4.80227C12.1588 4.80227 12.3162 4.7276 12.4217 4.59883C13.5136 3.26346 15.1201 2.49729 16.8293 2.49729C19.9714 2.49729 22.5274 5.04035 22.5274 8.1656C22.5274 14.5682 13.6884 20.3571 11.9927 21.4084Z" fill="black"/>
<path d="M18.9047 10.7736H15.1534C15.0529 10.7736 14.9543 10.8009 14.8681 10.8527C14.7819 10.9045 14.7115 10.9787 14.6643 11.0674L13.7996 12.6917L12.3182 7.22741C12.287 7.11209 12.2194 7.00995 12.1254 6.93623C12.0313 6.86251 11.916 6.82117 11.7966 6.81838C11.5536 6.81623 11.3313 6.9688 11.2561 7.20252L9.98727 11.1367L9.2893 9.73855C9.247 9.65363 9.18357 9.581 9.10511 9.52765C9.02666 9.4743 8.9358 9.44202 8.84127 9.43391C8.6427 9.41282 8.46144 9.50155 8.34725 9.65737L7.31759 11.0561H5.09703C4.7908 11.0561 4.54297 11.3039 4.54297 11.6101C4.54297 11.9164 4.7908 12.1642 5.09703 12.1642H7.59791C7.7743 12.1642 7.93986 12.0803 8.0443 11.9386L8.7028 11.0442L9.60261 12.846C9.70269 13.0473 9.90941 13.1712 10.1399 13.1511C10.2497 13.1428 10.3546 13.102 10.4411 13.0339C10.5277 12.9658 10.5919 12.8734 10.6258 12.7686L11.7377 9.32033L13.0969 14.3329C13.126 14.44 13.1865 14.536 13.2707 14.6083C13.355 14.6807 13.459 14.7261 13.5693 14.7387C13.8088 14.7632 14.019 14.6395 14.1206 14.4481L15.4863 11.8818H18.9048C19.211 11.8818 19.4588 11.6339 19.4588 11.3277C19.4587 11.0214 19.2109 10.7736 18.9047 10.7736Z" fill="black"/>
</svg>
