<svg width="22" height="22" viewBox="0 0 22 22" fill="none" xmlns="http://www.w3.org/2000/svg">
<g clip-path="url(#clip0_2349_13026)">
<path d="M20.625 0.6875H1.375C1.19266 0.6875 1.0178 0.759933 0.888864 0.888864C0.759933 1.0178 0.6875 1.19266 0.6875 1.375V10.4699C0.6875 15.2824 4.66125 19.5291 10.8109 21.2857C10.9344 21.3214 11.0656 21.3214 11.1891 21.2857C17.3387 19.5284 21.3125 15.2831 21.3125 10.4699V1.375C21.3125 1.19266 21.2401 1.0178 21.1111 0.888864C20.9822 0.759933 20.8073 0.6875 20.625 0.6875ZM19.9375 10.4699C19.9375 14.6059 16.4361 18.2944 11 19.9086C5.56394 18.2944 2.0625 14.6059 2.0625 10.4699V2.0625H19.9375V10.4699Z" fill="black"/>
<path d="M8.25 10.3125H10.3125V12.375C10.3125 12.5573 10.3849 12.7322 10.5139 12.8611C10.6428 12.9901 10.8177 13.0625 11 13.0625C11.1823 13.0625 11.3572 12.9901 11.4861 12.8611C11.6151 12.7322 11.6875 12.5573 11.6875 12.375V10.3125H13.75C13.9323 10.3125 14.1072 10.2401 14.2361 10.1111C14.3651 9.9822 14.4375 9.80734 14.4375 9.625C14.4375 9.44266 14.3651 9.2678 14.2361 9.13886C14.1072 9.00993 13.9323 8.9375 13.75 8.9375H11.6875V6.875C11.6875 6.69266 11.6151 6.5178 11.4861 6.38886C11.3572 6.25993 11.1823 6.1875 11 6.1875C10.8177 6.1875 10.6428 6.25993 10.5139 6.38886C10.3849 6.5178 10.3125 6.69266 10.3125 6.875V8.9375H8.25C8.06766 8.9375 7.8928 9.00993 7.76386 9.13886C7.63493 9.2678 7.5625 9.44266 7.5625 9.625C7.5625 9.80734 7.63493 9.9822 7.76386 10.1111C7.8928 10.2401 8.06766 10.3125 8.25 10.3125Z" fill="black"/>
</g>
<defs>
<clipPath id="clip0_2349_13026">
<rect width="22" height="22" fill="white"/>
</clipPath>
</defs>
</svg>
