<svg width="23" height="26" viewBox="0 0 23 26" fill="none" xmlns="http://www.w3.org/2000/svg">
<path d="M1.89302 19.1116C2.45116 19.6698 3.20465 19.9767 4.01395 19.9767H10.2372H13.1674H19.3907C20.2 19.9767 20.9535 19.6698 21.5116 19.1116C22.0977 18.5256 22.4047 17.7442 22.3767 16.9349C22.3488 16.0977 22.014 15.3442 21.4 14.786L20.7023 14.1721C20.4233 13.9209 20.3395 13.6977 20.3395 13.307V9.65116C20.3395 7.55814 19.4744 5.52093 18.0791 3.90233C16.4884 2.03256 14.3116 1 11.9116 1C11.8279 1 11.7721 1 11.7163 1.02791C11.6326 1 11.5488 1 11.493 1C9.09302 1 6.88837 2.03256 5.32558 3.90233C3.90233 5.52093 3.03721 7.55814 3.03721 9.65116V13.2791C3.03721 13.6419 2.95349 13.893 2.67442 14.1442L1.97674 14.7581C1.36279 15.3163 1.02791 16.0698 1 16.907C1 17.7442 1.30698 18.5256 1.89302 19.1116ZM3.12093 16.014L3.8186 15.4C4.43256 14.814 4.71163 14.1163 4.71163 13.2791V9.65116C4.71163 5.26977 8.25581 2.67442 11.493 2.67442C11.5767 2.67442 11.6326 2.67442 11.6884 2.64651C11.7442 2.67442 11.8279 2.67442 11.8837 2.67442C15.1209 2.67442 18.6651 5.26977 18.6651 9.65116V13.2791C18.6651 14.1163 18.9442 14.814 19.5581 15.3721L20.2558 15.986C20.5349 16.2372 20.6744 16.5721 20.6744 16.9349C20.6744 17.2977 20.5349 17.6326 20.2837 17.9116C20.0605 18.1628 19.7256 18.3023 19.3628 18.3023H13.1674H10.2093H4.01395C3.65116 18.3023 3.31628 18.1628 3.09302 17.9116C2.84186 17.6605 2.70233 17.2977 2.70233 16.9349C2.70233 16.5721 2.84186 16.2372 3.12093 16.014Z" fill="#1D1D24" stroke="#1D1D24" stroke-width="0.6"/>
<path d="M13.7814 21.2325C13.7814 22.3767 12.8325 23.3256 11.6883 23.3256C10.5442 23.3256 9.59532 22.3767 9.59532 21.2325C9.59532 20.7581 9.23253 20.3953 8.75811 20.3953C8.28369 20.3953 7.9209 20.7581 7.9209 21.2325C7.9209 23.2977 9.62322 25 11.6883 25C13.7535 25 15.4558 23.2977 15.4558 21.2325C15.4558 20.7581 15.093 20.3953 14.6186 20.3953C14.1442 20.3953 13.7814 20.7581 13.7814 21.2325Z" fill="#1D1D24" stroke="#1D1D24" stroke-width="0.6"/>
</svg>
