<svg width="24" height="24" viewBox="0 0 24 24" fill="none" xmlns="http://www.w3.org/2000/svg">
<g clip-path="url(#clip0_2349_13035)">
<path d="M15.2022 9.80733C15.2022 9.5482 14.9921 9.3382 14.7329 9.3382H10.6057C10.3466 9.3382 10.1365 9.5482 10.1365 9.80733C10.1365 10.0665 10.3465 10.2764 10.6057 10.2764H14.7328C14.9919 10.2764 15.2022 10.0664 15.2022 9.80733ZM6.2655 4.64648H5.39597C4.86 4.64648 4.4242 5.08172 4.4242 5.61656V6.06811H3.97191C3.43598 6.06811 3 6.50405 3 7.03969V7.90997C3 8.44556 3.43594 8.88136 3.97191 8.88136H4.4242V9.33291C4.4242 9.86869 4.86 10.3044 5.39592 10.3044H6.2655C6.80147 10.3044 7.23741 9.86864 7.23741 9.33291V8.88136H7.6897C8.22548 8.88136 8.66142 8.44556 8.66142 7.90997V7.03969C8.66142 6.50409 8.22548 6.06811 7.6897 6.06811H7.23741V5.61656C7.23741 5.08172 6.80147 4.64648 6.2655 4.64648ZM7.68952 7.00655C7.70709 7.00655 7.72303 7.0223 7.72303 7.03969V7.90997C7.72303 7.92717 7.70709 7.94292 7.68952 7.94292H6.76814C6.50902 7.94292 6.29902 8.15316 6.29902 8.41223V9.33286C6.29902 9.3503 6.28308 9.36605 6.2655 9.36605H5.39597C5.37853 9.36605 5.36259 9.3503 5.36259 9.33291V8.41219C5.36259 8.15311 5.15241 7.94287 4.89333 7.94287H3.97191C3.95433 7.94287 3.93844 7.92712 3.93844 7.90992V7.03969C3.93844 7.0223 3.95438 7.00655 3.97191 7.00655H4.89333C5.15241 7.00655 5.36259 6.79655 5.36259 6.53742V5.61656C5.36259 5.6003 5.37872 5.58492 5.39592 5.58492H6.2655C6.2827 5.58492 6.29902 5.6003 6.29902 5.61656V6.53742C6.29902 6.7965 6.50902 7.00655 6.76814 7.00655H7.68952ZM15.4069 7.00763C15.4069 6.74855 15.1969 6.5385 14.9377 6.5385H10.6057C10.3466 6.5385 10.1365 6.7485 10.1365 7.00763C10.1365 7.26689 10.3465 7.47694 10.6057 7.47694H14.9377C15.1968 7.47694 15.4069 7.26694 15.4069 7.00763ZM3.78441 13.0748H14.5268C14.786 13.0748 14.996 12.8646 14.996 12.6055C14.996 12.3465 14.786 12.1364 14.5268 12.1364H3.78441C3.52533 12.1364 3.31514 12.3464 3.31514 12.6055C3.31514 12.8646 3.52533 13.0748 3.78441 13.0748Z" fill="black"/>
<path d="M20.8828 14.8231C19.7761 14.6541 18.8763 14.4272 18.1898 14.1445V10.0651C18.1899 10.0035 18.1777 9.94249 18.1542 9.88555C18.1306 9.82861 18.096 9.77687 18.0524 9.73329C18.0089 9.68971 17.9571 9.65514 17.9002 9.63155C17.8433 9.60797 17.7823 9.59583 17.7206 9.59583C17.4615 9.59583 17.2515 9.80583 17.2515 10.0651V13.6276C17.1467 13.5476 17.0535 13.465 16.9724 13.3792C16.9286 13.3328 16.8757 13.2959 16.8171 13.2707C16.7585 13.2454 16.6954 13.2324 16.6316 13.2324C16.5678 13.2324 16.5047 13.2454 16.4461 13.2707C16.3875 13.2959 16.3347 13.3328 16.2908 13.3792C15.6693 14.0363 14.3531 14.5221 12.3792 14.8231C12.2906 14.8366 12.2078 14.8753 12.1406 14.9346H3.78441C3.52533 14.9346 3.31514 15.1446 3.31514 15.4037C3.31514 15.6629 3.52533 15.8729 3.78441 15.8729H11.9806V17.7329H3.46931C3.21019 17.7329 3 17.9429 3 18.202C3 18.4611 3.21019 18.6711 3.46931 18.6711H12.0181C12.1728 19.8465 12.7194 20.942 13.6489 21.9408H2.32308C1.58531 21.9408 0.985266 21.3419 0.985266 20.6056V3.30998C0.985266 2.57372 1.58531 1.9748 2.32308 1.9748H4.56244V2.1487C4.56244 2.62355 4.94953 3.00989 5.42522 3.00989H12.8115C13.2872 3.00989 13.6743 2.62355 13.6743 2.14875V1.9748H15.9137C16.6514 1.9748 17.2516 2.57372 17.2516 3.30998V6.32208C17.2516 6.58116 17.4616 6.79139 17.7208 6.79139C17.9798 6.79139 18.1899 6.58116 18.1899 6.32208V3.30998C18.1899 2.05627 17.1689 1.03636 15.9137 1.03636H13.6744V0.861141C13.6743 0.386344 13.2872 0 12.8115 0H5.42522C4.94953 0 4.56244 0.386344 4.56244 0.861141V1.03636H2.32308C1.06805 1.03641 0.046875 2.05627 0.046875 3.30998V20.6056C0.046875 21.8593 1.06786 22.8792 2.32308 22.8792H14.6571C15.5017 23.6039 16.0232 23.9993 16.6285 24H16.6304C17.3114 24 17.8848 23.5038 18.9252 22.604C20.3954 21.3312 21.1879 19.8799 21.2805 18.2904C21.2811 18.2814 21.2814 18.2723 21.2814 18.2631V15.2869C21.2814 15.1747 21.2411 15.0663 21.168 14.9812C21.0949 14.8961 20.9937 14.8401 20.8828 14.8231ZM5.50087 0.938438H12.7359V2.07141H5.50087V0.938438ZM20.343 18.249C20.2617 19.5711 19.578 20.7975 18.3111 21.8943C17.4987 22.5972 16.9618 23.0616 16.6302 23.0616H16.6298C16.3006 23.0612 15.793 22.622 14.9522 21.8945C13.6853 20.7977 13.0014 19.5714 12.919 18.249V15.6861C14.6347 15.3906 15.8577 14.9458 16.6317 14.3344C16.873 14.5248 17.1579 14.6993 17.4878 14.8581C17.5091 14.8703 17.5314 14.8806 17.5545 14.8894C18.2734 15.2249 19.1982 15.4887 20.343 15.6861V18.249Z" fill="black"/>
<path d="M16.0843 19.0819L15.2591 18.3077C15.0701 18.1305 14.7731 18.1398 14.5959 18.329C14.4184 18.5179 14.4279 18.8147 14.6169 18.9922L15.7897 20.0923C15.8767 20.1739 15.9914 20.2193 16.1107 20.2193C16.1761 20.2193 16.2407 20.2057 16.3005 20.1793C16.3603 20.1528 16.4139 20.1142 16.4579 20.0659L18.8366 17.451C19.0111 17.2592 18.997 16.9624 18.8053 16.7881C18.6136 16.6136 18.3167 16.6277 18.1425 16.8195L16.0843 19.0819ZM17.721 7.71582C17.4618 7.71582 17.2518 7.92601 17.2518 8.18509V8.19296C17.2518 8.45209 17.4618 8.66209 17.7209 8.66209C17.9802 8.66209 18.1902 8.45209 18.1902 8.19296V8.18509C18.1902 7.92601 17.9802 7.71582 17.7209 7.71582H17.721Z" fill="black"/>
</g>
<defs>
<clipPath id="clip0_2349_13035">
<rect width="24" height="24" fill="white"/>
</clipPath>
</defs>
</svg>
