<svg width="104" height="81" viewBox="0 0 104 81" fill="none" xmlns="http://www.w3.org/2000/svg">
<g clip-path="url(#clip0_1175_863)">
<path d="M53.5908 8.58598C55.1832 6.6634 58.1317 6.6634 59.7241 8.58598C60.9493 10.0652 63.0559 10.459 64.7327 9.52226C66.9122 8.30475 69.6615 9.36985 70.4519 11.7379C71.06 13.5598 72.882 14.688 74.7841 14.4202C77.2561 14.0723 79.435 16.0586 79.3166 18.5522C79.2255 20.4708 80.517 22.181 82.3873 22.6184C84.8181 23.1869 86.1323 25.8263 85.1211 28.1087C84.3431 29.8649 84.9296 31.9261 86.5155 33.0096C88.5768 34.4179 88.8489 37.3537 87.0814 39.1167C85.7216 40.4732 85.5238 42.6071 86.6113 44.1904C88.0247 46.2482 87.2178 49.084 84.9328 50.0895C83.1748 50.8632 82.2195 52.7816 82.6616 54.6508C83.2362 57.0802 81.4594 59.4331 78.9655 59.5452C77.0467 59.6315 75.4629 61.0753 75.2 62.978C74.8582 65.4509 72.3514 67.003 69.9853 66.2067C68.1649 65.594 66.1666 66.3682 65.234 68.0474C64.022 70.2299 61.1237 70.7716 59.2052 69.1744C57.729 67.9455 55.5859 67.9455 54.1098 69.1744C52.1912 70.7716 49.2929 70.2299 48.0809 68.0474C47.1484 66.3682 45.15 65.594 43.3296 66.2067C40.9636 67.003 38.4568 65.4509 38.115 62.978C37.852 61.0753 36.2682 59.6315 34.3494 59.5452C31.8555 59.4331 30.0787 57.0802 30.6533 54.6508C31.0954 52.7816 30.1401 50.8632 28.3821 50.0895C26.0971 49.084 25.2902 46.2482 26.7036 44.1904C27.7911 42.6071 27.5934 40.4732 26.2335 39.1167C24.466 37.3537 24.7381 34.4179 26.7994 33.0096C28.3854 31.9261 28.9718 29.8649 28.1938 28.1087C27.1826 25.8263 28.4968 23.1869 30.9276 22.6184C32.7979 22.181 34.0894 20.4708 33.9983 18.5522C33.8799 16.0586 36.0588 14.0723 38.5309 14.4202C40.4329 14.688 42.2549 13.5598 42.8631 11.7379C43.6534 9.36985 46.4028 8.30475 48.5822 9.52226C50.259 10.459 52.3656 10.0652 53.5908 8.58598Z" fill="#1BAEFF"/>
<path d="M95.1661 1.19175C95.0543 0.785203 94.6525 0.5 94.1915 0.5C93.7306 0.5 93.3288 0.785203 93.217 1.19175L91.7558 6.50491L85.9114 7.8332C85.4642 7.93484 85.1504 8.30012 85.1504 8.71918C85.1504 9.13824 85.4642 9.50352 85.9114 9.60515L91.7558 10.9334L93.217 16.2466C93.3288 16.6532 93.7306 16.9384 94.1915 16.9384C94.6525 16.9384 95.0543 16.6532 95.1661 16.2466L96.6272 10.9334L102.472 9.60515C102.919 9.50352 103.233 9.13824 103.233 8.71918C103.233 8.30012 102.919 7.93484 102.472 7.8332L96.6272 6.50491L95.1661 1.19175Z" fill="#1BAEFF"/>
<path d="M7.44469 41.5089C7.37016 41.2379 7.10229 41.0479 6.79498 41.0479C6.48767 41.0479 6.2198 41.2379 6.14526 41.5089L5.17118 45.0511L1.27486 45.9366C0.976727 46.0043 0.767578 46.2479 0.767578 46.5273C0.767578 46.8067 0.976727 47.0502 1.27486 47.118L5.17118 48.0035L6.14526 51.5456C6.2198 51.8166 6.48767 52.0068 6.79498 52.0068C7.10229 52.0068 7.37016 51.8166 7.44469 51.5456L8.41877 48.0035L12.3151 47.118C12.6132 47.0502 12.8224 46.8067 12.8224 46.5273C12.8224 46.2479 12.6132 46.0043 12.3151 45.9366L8.41877 45.0511L7.44469 41.5089Z" fill="#1BAEFF"/>
<path d="M34.7237 72.1018C34.6628 71.885 34.4436 71.7329 34.1922 71.7329C33.9407 71.7329 33.7216 71.885 33.6606 72.1018L32.8636 74.9355L29.6757 75.644C29.4318 75.6982 29.2607 75.893 29.2607 76.1165C29.2607 76.34 29.4318 76.5348 29.6757 76.589L32.8636 77.2974L33.6606 80.1311C33.7216 80.3479 33.9407 80.5 34.1922 80.5C34.4436 80.5 34.6628 80.3479 34.7237 80.1311L35.5207 77.2974L38.7086 76.589C38.9525 76.5348 39.1237 76.34 39.1237 76.1165C39.1237 75.893 38.9525 75.6982 38.7086 75.644L35.5207 74.9355L34.7237 72.1018Z" fill="#1BAEFF"/>
<path d="M46.665 38.9531L55.1582 47.4463L69.6465 32.958" stroke="white" stroke-width="3" stroke-linecap="round"/>
<path d="M48.9699 16.2112C48.9089 15.9944 48.6898 15.8423 48.4383 15.8423C48.1869 15.8423 47.9677 15.9944 47.9068 16.2112L47.1098 19.0449L43.9219 19.7533C43.678 19.8076 43.5068 20.0024 43.5068 20.2259C43.5068 20.4494 43.678 20.6442 43.9219 20.6984L47.1098 21.4068L47.9068 24.2405C47.9677 24.4573 48.1869 24.6094 48.4383 24.6094C48.6898 24.6094 48.9089 24.4573 48.9699 24.2405L49.7669 21.4068L52.9548 20.6984C53.1987 20.6442 53.3699 20.4494 53.3699 20.2259C53.3699 20.0024 53.1987 19.8076 52.9548 19.7533L49.7669 19.0449L48.9699 16.2112Z" fill="white"/>
</g>
<defs>
<clipPath id="clip0_1175_863">
<rect width="104" height="81" fill="white"/>
</clipPath>
</defs>
</svg>
