<svg width="105" height="81" viewBox="0 0 105 81" fill="none" xmlns="http://www.w3.org/2000/svg">
<g clip-path="url(#clip0_650_2130)">
<path d="M54.5607 6.88745C55.6141 5.61564 57.5645 5.61564 58.6179 6.88745L60.4364 9.08301C61.2469 10.0616 62.6405 10.322 63.7497 9.70236L66.2387 8.31199C67.6803 7.5066 69.4992 8.21117 70.022 9.7777L70.9242 12.4819C71.3266 13.6872 72.5324 14.4334 73.7902 14.2563L76.6133 13.8589C78.2485 13.6288 79.69 14.9427 79.6116 16.5923L79.4766 19.4399C79.4161 20.7091 80.2708 21.8405 81.5076 22.1299L84.284 22.7791C85.8915 23.1551 86.7614 24.9011 86.0923 26.411L84.9372 29.0175C84.4229 30.1792 84.8108 31.5428 85.8598 32.2595L88.2141 33.8677C89.5773 34.7993 89.7571 36.7414 88.5882 37.9077L86.5697 39.921C85.6702 40.8183 85.5391 42.23 86.2589 43.2773L87.873 45.6273C88.8081 46.9886 88.274 48.8645 86.7627 49.5297L84.1529 50.678C82.9899 51.1897 82.3584 52.4588 82.6508 53.6952L83.3067 56.4696C83.6867 58.0767 82.5118 59.6331 80.8616 59.7074L78.014 59.8354C76.7444 59.8925 75.6966 60.8476 75.5228 62.1063L75.1323 64.9303C74.9064 66.5661 73.2482 67.5927 71.6829 67.0659L68.9809 66.1571C67.7771 65.7515 66.4547 66.2638 65.8379 67.3748L64.4538 69.8667C63.652 71.3108 61.7348 71.6691 60.4656 70.6121L58.2746 68.788C57.2981 67.9753 55.8804 67.9753 54.904 68.788L52.7129 70.6121C51.4437 71.6691 49.5265 71.3108 48.7247 69.8667L47.3406 67.3748C46.7237 66.2638 45.4018 65.7515 44.1975 66.1571L41.4956 67.0659C39.9304 67.5927 38.2721 66.5661 38.046 64.9303L37.6557 62.1063C37.4817 60.8476 36.434 59.8925 35.1647 59.8354L32.3167 59.7074C30.667 59.6331 29.4916 58.0767 29.8717 56.4696L30.5278 53.6952C30.8203 52.4588 30.1884 51.1897 29.0254 50.678L26.416 49.5297C24.9044 48.8645 24.3707 46.9885 25.3057 45.6272L26.9198 43.2773C27.6392 42.23 27.5084 40.8183 26.6087 39.921L24.5904 37.9077C23.4212 36.7414 23.6011 34.7993 24.9647 33.8677L27.3187 32.2595C28.3678 31.5428 28.7558 30.1792 28.2411 29.0175L27.0863 26.411C26.4174 24.9011 27.2868 23.1551 28.8949 22.7791L31.6708 22.1298C32.908 21.8405 33.7624 20.7091 33.7021 19.4399L33.5668 16.5923C33.4885 14.9427 34.9299 13.6288 36.5652 13.8589L39.3882 14.2563C40.6464 14.4334 41.8518 13.6872 42.2541 12.4819L43.1566 9.7777C43.6795 8.21117 45.4983 7.5066 46.94 8.31199L49.4288 9.70236C50.5381 10.322 51.9316 10.0616 52.7421 9.08301L54.5607 6.88745Z" fill="#FF4144"/>
<path d="M95.5778 0.700393C95.4645 0.288768 95.0582 0 94.5913 0C94.1244 0 93.7175 0.288768 93.6048 0.700393L92.1251 6.07997L86.2075 7.42487C85.7551 7.5278 85.437 7.89763 85.437 8.32193C85.437 8.74622 85.7551 9.11606 86.2075 9.21899L92.1251 10.5638L93.6048 15.9434C93.7175 16.3551 94.1244 16.6439 94.5913 16.6439C95.0582 16.6439 95.4645 16.3551 95.5778 15.9434L97.0575 10.5638L102.975 9.21899C103.428 9.11606 103.746 8.74622 103.746 8.32193C103.746 7.89763 103.428 7.5278 102.975 7.42487L97.0575 6.07997L95.5778 0.700393Z" fill="#FF4144"/>
<path d="M6.7606 41.5216C6.68513 41.2472 6.41389 41.0547 6.10274 41.0547C5.79159 41.0547 5.52037 41.2472 5.44491 41.5216L4.45865 45.108L0.513623 46.0046C0.211764 46.0732 0 46.3198 0 46.6026C0 46.8855 0.211763 47.1321 0.513623 47.2006L4.45865 48.0972L5.44491 51.6836C5.52037 51.958 5.79159 52.1506 6.10274 52.1506C6.41389 52.1506 6.68513 51.958 6.7606 51.6836L7.74683 48.0972L11.6919 47.2006C11.9937 47.1321 12.2054 46.8855 12.2054 46.6026C12.2054 46.3198 11.9937 46.0732 11.6919 46.0046L7.74683 45.108L6.7606 41.5216Z" fill="#FF4144"/>
<path d="M55.1035 44.4972V28.6879C55.1035 28.097 55.5632 27.6383 56.153 27.6383C56.7429 27.6383 57.2026 28.098 57.2026 28.6879V44.4972H55.1035ZM55.1035 46.5627H57.2026V48.5305H55.1035V46.5627ZM39.3604 39.1833C39.3604 29.9012 46.8709 22.3906 56.153 22.3906C65.4352 22.3906 72.946 29.9012 72.946 39.1833C72.946 48.4654 65.4352 55.976 56.153 55.976C46.8709 55.976 39.3604 48.4654 39.3604 39.1833ZM70.8789 39.1833C70.8789 31.0819 64.2534 24.4897 56.153 24.4897C48.0527 24.4897 41.4594 31.0819 41.4594 39.1833C41.4594 47.2848 48.0517 53.8769 56.153 53.8769C64.2545 53.8769 70.8789 47.2848 70.8789 39.1833Z" fill="white"/>
<path d="M34.381 72.4974C34.3192 72.2775 34.0974 72.124 33.8428 72.124C33.5882 72.124 33.3662 72.2775 33.3045 72.4974L32.4976 75.3667L29.2698 76.0838C29.0229 76.1385 28.8496 76.336 28.8496 76.5619C28.8496 76.7884 29.0229 76.9853 29.2698 77.0407L32.4976 77.7578L33.3045 80.627C33.3662 80.8463 33.5882 81.0004 33.8428 81.0004C34.0974 81.0004 34.3192 80.8463 34.381 80.627L35.1879 77.7578L38.4156 77.0407C38.6627 76.9853 38.8359 76.7884 38.8359 76.5619C38.8359 76.336 38.6627 76.1385 38.4156 76.0838L35.1879 75.3667L34.381 72.4974Z" fill="#FF4144"/>
</g>
<defs>
<clipPath id="clip0_650_2130">
<rect width="104.049" height="81" fill="white"/>
</clipPath>
</defs>
</svg>
