<svg width="41" height="41" viewBox="0 0 41 41" fill="none" xmlns="http://www.w3.org/2000/svg">
<rect x="0.403198" y="0.40332" width="40.2094" height="40.2094" rx="20.1047" fill="#F1E3E9"/>
<path d="M20.0266 20.5771C21.357 20.5771 22.509 20.0999 23.4505 19.1584C24.3917 18.2171 24.869 17.0653 24.869 15.7347C24.869 14.4045 24.3918 13.2526 23.4503 12.3109C22.5088 11.3697 21.3569 10.8926 20.0266 10.8926C18.696 10.8926 17.5441 11.3697 16.6028 12.3111C15.6615 13.2524 15.1842 14.4044 15.1842 15.7347C15.1842 17.0653 15.6615 18.2172 16.6029 19.1586C17.5445 20.0998 18.6964 20.5771 20.0266 20.5771H20.0266ZM17.436 13.1441C18.1583 12.4218 19.0057 12.0707 20.0266 12.0707C21.0474 12.0707 21.8948 12.4218 22.6173 13.1441C23.3396 13.8666 23.6908 14.714 23.6908 15.7347C23.6908 16.7556 23.3396 17.6029 22.6173 18.3254C21.8948 19.0478 21.0474 19.3989 20.0266 19.3989C19.0059 19.3989 18.1587 19.0477 17.436 18.3254C16.7136 17.6031 16.3623 16.7556 16.3623 15.7347C16.3623 14.714 16.7136 13.8666 17.436 13.1441ZM28.4995 26.3521C28.4723 25.9604 28.4174 25.533 28.3366 25.0818C28.255 24.6271 28.15 24.1973 28.0241 23.8045C27.8941 23.3985 27.7175 22.9976 27.4989 22.6133C27.2724 22.2145 27.0061 21.8672 26.7073 21.5815C26.3949 21.2825 26.0123 21.0422 25.57 20.8668C25.1291 20.6925 24.6406 20.6041 24.118 20.6041C23.9128 20.6041 23.7143 20.6883 23.331 20.9379C23.0585 21.1153 22.7852 21.2915 22.5111 21.4664C22.2478 21.6342 21.891 21.7915 21.4503 21.9338C21.0204 22.0729 20.5838 22.1435 20.1528 22.1435C19.7221 22.1435 19.2856 22.0729 18.8553 21.9338C18.4151 21.7916 18.0582 21.6344 17.7953 21.4666C17.4902 21.2716 17.2141 21.0937 16.9747 20.9377C16.5916 20.6881 16.3932 20.6039 16.1879 20.6039C15.6652 20.6039 15.1768 20.6924 14.7361 20.867C14.2941 21.042 13.9114 21.2824 13.5986 21.5816C13.2998 21.8675 13.0336 22.2146 12.8071 22.6133C12.5889 22.9975 12.4122 23.3983 12.2821 23.8046C12.1564 24.1975 12.0514 24.6271 11.9698 25.0818C11.8888 25.5324 11.8341 25.9599 11.8069 26.3526C11.7802 26.7365 11.7667 27.1361 11.7667 27.5398C11.7667 28.5892 12.1003 29.4388 12.7582 30.0654C13.408 30.6838 14.2676 30.9972 15.3132 30.9972H24.9937C26.039 30.9972 26.8986 30.6837 27.5485 30.0654C28.2065 29.4393 28.5401 28.5894 28.5401 27.5396C28.54 27.1345 28.5264 26.7349 28.4995 26.3521ZM26.7362 29.2118C26.3068 29.6204 25.7368 29.8191 24.9935 29.8191H15.3132C14.5698 29.8191 13.9998 29.6204 13.5706 29.212C13.1495 28.8112 12.9449 28.2641 12.9449 27.5398C12.9449 27.163 12.9573 26.7911 12.9822 26.434C13.0064 26.0837 13.056 25.6988 13.1295 25.2899C13.202 24.886 13.2943 24.507 13.4042 24.1639C13.5095 23.8348 13.6533 23.5091 13.8315 23.1953C14.0016 22.8961 14.1973 22.6395 14.4133 22.4328C14.6153 22.2393 14.87 22.0811 15.1699 21.9624C15.4474 21.8525 15.7593 21.7924 16.0978 21.7833C16.139 21.8053 16.2125 21.8472 16.3315 21.9247C16.5737 22.0826 16.8529 22.2627 17.1615 22.4598C17.5094 22.6816 17.9576 22.8819 18.4931 23.0547C19.0405 23.2317 19.5988 23.3216 20.153 23.3216C20.7072 23.3216 21.2657 23.2317 21.8128 23.0549C22.3487 22.8817 22.7968 22.6816 23.1451 22.4594C23.461 22.2576 23.7323 22.0828 23.9745 21.9247C24.0935 21.8473 24.167 21.8053 24.2083 21.7833C24.5469 21.7924 24.8588 21.8525 25.1364 21.9623C25.4363 22.0811 25.6909 22.2395 25.8929 22.4327C26.1089 22.6394 26.3046 22.896 26.4747 23.1954C26.6531 23.5091 26.797 23.835 26.9022 24.1637C27.0122 24.5073 27.1046 24.8862 27.177 25.2897C27.2503 25.6994 27.3001 26.0844 27.3243 26.4342V26.4345C27.3493 26.7902 27.3619 27.162 27.362 27.5398C27.3619 28.2642 27.1572 28.8112 26.7362 29.2118H26.7362Z" fill="#89124B"/>
</svg>
