<svg xmlns="http://www.w3.org/2000/svg" xmlns:xlink="http://www.w3.org/1999/xlink" viewBox="0 0 102.28 98.03"><defs><style>.cls-1{fill:url(#linear-gradient);}.cls-2{fill:url(#linear-gradient-2);}.cls-3{fill:#b58517;}.cls-4{fill:url(#linear-gradient-3);}.cls-5{fill:url(#linear-gradient-4);}.cls-6{fill:url(#linear-gradient-5);}.cls-7{fill:url(#linear-gradient-6);}.cls-8{fill:url(#linear-gradient-7);}.cls-9{fill:url(#linear-gradient-8);}</style><linearGradient id="linear-gradient" x1="16.68" y1="80.23" x2="85.6" y2="80.23" gradientUnits="userSpaceOnUse"><stop offset="0" stop-color="#ffffbd"/><stop offset="0" stop-color="#ffffdf"/><stop offset="0.23" stop-color="#f1be49"/><stop offset="0.41" stop-color="#a9822d"/><stop offset="0.59" stop-color="#a47d28"/><stop offset="0.77" stop-color="#c4993d"/><stop offset="1" stop-color="#ffed98"/></linearGradient><linearGradient id="linear-gradient-2" x1="28.45" y1="41.21" x2="40.01" y2="41.21" xlink:href="#linear-gradient"/><linearGradient id="linear-gradient-3" x1="28.45" y1="52.27" x2="42.23" y2="52.27" xlink:href="#linear-gradient"/><linearGradient id="linear-gradient-4" x1="0.25" y1="31.71" x2="102.03" y2="31.71" xlink:href="#linear-gradient"/><linearGradient id="linear-gradient-5" x1="24.03" y1="73.62" x2="33.96" y2="73.62" xlink:href="#linear-gradient"/><linearGradient id="linear-gradient-6" x1="33.46" y1="73.62" x2="49.59" y2="73.62" xlink:href="#linear-gradient"/><linearGradient id="linear-gradient-7" x1="49.09" y1="73.62" x2="62.62" y2="73.62" xlink:href="#linear-gradient"/><linearGradient id="linear-gradient-8" x1="62.12" y1="73.62" x2="78.25" y2="73.62" xlink:href="#linear-gradient"/></defs><title>logo-loto</title><g id="Layer_2" data-name="Layer 2"><g id="Layer_1-2" data-name="Layer 1"><path class="cls-1" d="M80.46,62.92,85,89.36a7,7,0,0,1-10.12,7.35L51.14,84.23,27.41,96.71a7,7,0,0,1-10.12-7.35l4.54-26.43H80.46m.42-.5H21.4l-.07.42L16.79,89.27a7.33,7.33,0,0,0,1.63,6.06A7.51,7.51,0,0,0,24.16,98a7.41,7.41,0,0,0,3.48-.87L51.14,84.79l23.5,12.36a7.4,7.4,0,0,0,3.48.88,7.51,7.51,0,0,0,5.74-2.7,7.33,7.33,0,0,0,1.63-6.06L81,62.84l-.07-.42Z"/><path class="cls-2" d="M28.45,44.78V37.64h8a3.57,3.57,0,0,1,0,7.14Z"/><path class="cls-3" d="M36.45,37.89a3.32,3.32,0,0,1,0,6.64H28.7V37.89h7.75m0-.5H28.2V45h8.25a3.84,3.84,0,0,0,2.71-6.53,3.75,3.75,0,0,0-2.71-1.11Z"/><path class="cls-4" d="M28.45,55.84V48.7h10.2a3.57,3.57,0,0,1,0,7.14Z"/><path class="cls-3" d="M38.65,49a3.32,3.32,0,0,1,0,6.64h-10V49h10m0-.5H28.2v7.64H38.65a3.82,3.82,0,0,0,0-7.64Z"/><path class="cls-5" d="M21.72,63.17,2.44,44.38a7.23,7.23,0,0,1,4-12.33l26.42-3.83L44.66,4.29a7.22,7.22,0,0,1,13,0L69.43,28.22l26.42,3.83a7.23,7.23,0,0,1,4,12.33L80.56,63.17ZM68,33.72a13,13,0,0,0-13,13A13,13,0,0,0,77.18,56a1.88,1.88,0,0,0,.57-1.4V46.73a2,2,0,0,0-2-2H66.87a1.88,1.88,0,0,0-1.4.57,1.86,1.86,0,0,0-.57,1.38,2,2,0,0,0,2,2h7v5l-.09.07A9.1,9.1,0,0,1,61.53,40.3a9.11,9.11,0,0,1,12.88,0,1.89,1.89,0,0,0,1.4.57,2,2,0,0,0,1.38-3.35A12.59,12.59,0,0,0,68,33.72Zm-17.48,0a1.89,1.89,0,0,0-1.4.57,1.87,1.87,0,0,0-.57,1.38V57.79a2,2,0,0,0,2,2,2,2,0,0,0,2-2V35.67a2,2,0,0,0-2-2Zm-24,0a1.89,1.89,0,0,0-1.4.57,1.87,1.87,0,0,0-.57,1.38V57.79a2,2,0,0,0,2,2H38.65a7.51,7.51,0,0,0,7.5-7.5,7.08,7.08,0,0,0-3.53-6.35l-.23-.14.16-.22a7.34,7.34,0,0,0,1.4-4.35,7.49,7.49,0,0,0-7.5-7.48Z"/><path class="cls-3" d="M51.14.5a6.89,6.89,0,0,1,6.25,3.9L69.26,28.45,95.81,32.3a7,7,0,0,1,3.86,11.9L80.46,62.92H21.82L2.62,44.2A7,7,0,0,1,6.47,32.3L33,28.45,44.88,4.4A6.89,6.89,0,0,1,51.14.5M68,60a12.78,12.78,0,0,0,9.38-3.88A2.14,2.14,0,0,0,78,54.56V46.73a2.21,2.21,0,0,0-2.2-2.2H66.87a2.14,2.14,0,0,0-1.57.65,2.12,2.12,0,0,0-.65,1.55A2.21,2.21,0,0,0,66.87,49h6.71v4.62a8.85,8.85,0,0,1-11.87-13.1,8.86,8.86,0,0,1,12.52,0,2.15,2.15,0,0,0,1.57.65,2.21,2.21,0,0,0,1.55-3.77,13.28,13.28,0,0,0-18.77,0,13.28,13.28,0,0,0,0,18.77A12.8,12.8,0,0,0,68,60M50.5,60a2.21,2.21,0,0,0,2.2-2.22V35.67a2.21,2.21,0,0,0-2.2-2.2,2.21,2.21,0,0,0-2.22,2.2V57.79A2.21,2.21,0,0,0,50.5,60m-24,0H38.65a7.77,7.77,0,0,0,7.75-7.75,7.29,7.29,0,0,0-3.64-6.57A7.55,7.55,0,0,0,44.2,41.2a7.74,7.74,0,0,0-7.75-7.73h-10a2.21,2.21,0,0,0-2.22,2.2V57.79A2.21,2.21,0,0,0,26.5,60M51.14,0a7.43,7.43,0,0,0-6.7,4.18L32.69,28,6.4,31.8A7.48,7.48,0,0,0,2.27,44.56l19.2,18.72.15.14h59l.15-.14L100,44.56A7.48,7.48,0,0,0,95.88,31.8L69.59,28,57.84,4.18A7.43,7.43,0,0,0,51.14,0ZM68,59.51A12.76,12.76,0,0,1,55.2,46.73a12.78,12.78,0,0,1,21.81-9,1.62,1.62,0,0,1,.5,1.2,1.64,1.64,0,0,1-.5,1.22,1.62,1.62,0,0,1-1.2.5,1.65,1.65,0,0,1-1.22-.5A9.35,9.35,0,0,0,61.35,53.36,9.35,9.35,0,0,0,73.9,54l.18-.15V48.45H66.87a1.71,1.71,0,0,1-1.72-1.72,1.62,1.62,0,0,1,.5-1.2,1.65,1.65,0,0,1,1.22-.5H75.8a1.71,1.71,0,0,1,1.7,1.7v7.82a1.64,1.64,0,0,1-.5,1.22,12.35,12.35,0,0,1-9,3.74Zm-17.48,0a1.71,1.71,0,0,1-1.72-1.72V35.67a1.63,1.63,0,0,1,.5-1.2A1.65,1.65,0,0,1,50.5,34a1.71,1.71,0,0,1,1.7,1.7V57.79A1.64,1.64,0,0,1,51.7,59a1.62,1.62,0,0,1-1.2.5Zm-24,0a1.71,1.71,0,0,1-1.72-1.72V35.67a1.63,1.63,0,0,1,.5-1.2A1.65,1.65,0,0,1,26.5,34h10A7.24,7.24,0,0,1,43.7,41.2a7.09,7.09,0,0,1-1.35,4.2l-.31.43.45.28a6.76,6.76,0,0,1,3.41,6.14,7.27,7.27,0,0,1-7.25,7.25Z"/><path class="cls-6" d="M25.59,81.69A1.55,1.55,0,0,1,24,80.13v-13a1.55,1.55,0,0,1,3.1,0V78.58h5.28a1.55,1.55,0,0,1,0,3.1Z"/><path class="cls-3" d="M25.59,65.8a1.3,1.3,0,0,1,1.3,1.3V78.83h5.53a1.3,1.3,0,0,1,0,2.6H25.59a1.3,1.3,0,0,1-1.31-1.31v-13a1.3,1.3,0,0,1,1.31-1.3m0-.5a1.8,1.8,0,0,0-1.81,1.8v13a1.8,1.8,0,0,0,1.81,1.81h6.83a1.8,1.8,0,0,0,0-3.6h-5V67.1a1.8,1.8,0,0,0-1.8-1.8Z"/><path class="cls-7" d="M41.53,81.69a8.06,8.06,0,1,1,5.7-2.36A7.83,7.83,0,0,1,41.53,81.69Zm0-13A5,5,0,1,0,45,70.11,4.79,4.79,0,0,0,41.53,68.66Z"/><path class="cls-3" d="M41.53,65.8A7.81,7.81,0,1,1,36,68.09a7.55,7.55,0,0,1,5.53-2.29m0,13a5.24,5.24,0,1,0-3.68-1.54,5,5,0,0,0,3.68,1.54m0-13.53a8.31,8.31,0,1,0,5.88,2.43,8.07,8.07,0,0,0-5.88-2.43Zm0,13a4.73,4.73,0,1,1,3.33-1.39,4.48,4.48,0,0,1-3.33,1.39Z"/><path class="cls-8" d="M55.85,81.69a1.54,1.54,0,0,1-1.1-.45,1.51,1.51,0,0,1-.46-1.11V68.66H50.65a1.55,1.55,0,1,1,0-3.1H61.07a1.55,1.55,0,0,1,0,3.1H57.41V80.13a1.55,1.55,0,0,1-1.56,1.56Z"/><path class="cls-3" d="M61.07,65.8a1.3,1.3,0,0,1,0,2.6H57.16V80.13a1.3,1.3,0,0,1-1.31,1.31,1.29,1.29,0,0,1-.93-.38,1.26,1.26,0,0,1-.38-.93V68.41h-3.9a1.3,1.3,0,0,1-1.31-1.31,1.24,1.24,0,0,1,.38-.92,1.26,1.26,0,0,1,.93-.38H61.07m0-.5H50.65a1.77,1.77,0,0,0-1.28.53,1.8,1.8,0,0,0,0,2.55,1.77,1.77,0,0,0,1.28.53H54V80.13a1.75,1.75,0,0,0,.53,1.28,1.78,1.78,0,0,0,1.28.53,1.8,1.8,0,0,0,1.81-1.81V68.91h3.41a1.8,1.8,0,0,0,0-3.6Z"/><path class="cls-9" d="M70.19,81.69a8.06,8.06,0,1,1,5.7-2.36A7.83,7.83,0,0,1,70.19,81.69Zm0-13a5,5,0,1,0,3.51,1.45A4.79,4.79,0,0,0,70.19,68.66Z"/><path class="cls-3" d="M70.19,65.8a7.81,7.81,0,1,1-5.53,2.29,7.55,7.55,0,0,1,5.53-2.29m0,13a5.24,5.24,0,1,0-3.68-1.54,5,5,0,0,0,3.68,1.54m0-13.53a8.31,8.31,0,1,0,5.88,2.43,8.08,8.08,0,0,0-5.88-2.43Zm0,13a4.73,4.73,0,1,1,3.33-1.39,4.48,4.48,0,0,1-3.33,1.39Z"/></g></g></svg>