<svg width="17" height="14" viewBox="0 0 17 14" fill="none" xmlns="http://www.w3.org/2000/svg">
<g clip-path="url(#clip0_219_2166)">
<path d="M1.42092 0.016092C1.42736 0.0257471 1.46276 0.0691954 1.49655 0.111034C1.74276 0.403908 1.92782 0.88023 2.02759 1.48046C2.09356 1.87471 2.09678 1.99862 2.09678 3.50161V4.90161H1.42414C0.809425 4.90161 0.738621 4.89839 0.617931 4.87425C0.428046 4.83402 0.231724 4.72621 0.0997701 4.58782C-0.00482759 4.47678 -0.0016092 4.47034 0.00482759 4.80667C0.0128736 5.08506 0.016092 5.11563 0.0563218 5.2669C0.12069 5.50667 0.209195 5.68529 0.342759 5.8446C0.524598 6.06345 0.709655 6.18575 0.973563 6.26782C1.02988 6.28391 1.14897 6.29034 1.57057 6.29356L2.09678 6.30161V6.99839V7.69678L1.35494 7.69195L0.609885 7.68713L0.481149 7.63563C0.328276 7.57448 0.25908 7.52942 0.109425 7.39586L0 7.2977L0.00643678 7.60506C0.0144828 7.88988 0.016092 7.92207 0.0563218 8.0669C0.196322 8.57862 0.534253 8.94391 0.98 9.06299C1.09103 9.09356 1.13448 9.09517 1.59954 9.10161L2.09678 9.10804V10.5499C2.09678 11.4205 2.09195 12.0625 2.08391 12.172C2.07586 12.2717 2.05011 12.4584 2.02759 12.5887C1.92299 13.189 1.73471 13.6411 1.46437 13.934L1.40965 13.9936H4.1308C5.7577 13.9936 6.97425 13.9871 7.15287 13.9791C7.46667 13.963 8.16667 13.8938 8.32437 13.86C8.37425 13.8503 8.46759 13.8359 8.52873 13.8262C8.65908 13.8069 8.87471 13.7618 9.18529 13.683C9.62299 13.5736 10.0221 13.4368 10.4131 13.263C10.5354 13.2083 10.8862 13.0297 10.9795 12.9733C11.0294 12.9444 11.089 12.909 11.1115 12.8977C11.1743 12.8639 11.2788 12.7963 11.4317 12.6869C11.5074 12.6322 11.583 12.5791 11.5991 12.5678C11.6667 12.5228 11.9 12.328 12.0062 12.2299C12.4101 11.8582 12.748 11.4446 13.0103 11.0021C13.0474 10.9377 13.0956 10.8572 13.1165 10.8234C13.1697 10.7333 13.3885 10.2828 13.4094 10.2152C13.4191 10.1846 13.432 10.1524 13.4384 10.146C13.4802 10.0913 13.7216 9.33172 13.7506 9.16598C13.7602 9.11287 13.7651 9.10483 13.8053 9.09678C13.831 9.09195 14.206 9.09195 14.6388 9.09517C15.5046 9.10161 15.5046 9.10161 15.6961 9.19011C15.8039 9.24 15.8361 9.26253 15.9552 9.37034C16.1113 9.51034 16.0968 9.53287 16.0871 9.18207C16.0807 8.97609 16.0726 8.84896 16.0582 8.79747C16.0034 8.59954 15.9906 8.5577 15.9423 8.45793C15.7846 8.11356 15.5207 7.86736 15.1828 7.74988L15.0508 7.70161L14.5133 7.69517L13.9775 7.68713L13.9839 7.49885C13.9903 7.25103 13.9903 6.76023 13.9823 6.50759L13.9759 6.30483L14.6936 6.30161C15.3083 6.29839 15.4225 6.30161 15.4901 6.31931C15.6929 6.37563 15.8297 6.45287 15.997 6.60575L16.0903 6.69264V6.45448C16.0903 6.17126 16.0759 6.04575 16.0179 5.85908C15.9037 5.48092 15.6784 5.19931 15.3565 5.02552C15.1474 4.91287 15.1345 4.90965 14.4152 4.90483C13.9936 4.90161 13.7731 4.89517 13.7618 4.88552C13.7522 4.87586 13.7441 4.85977 13.7441 4.8469C13.7441 4.83402 13.72 4.73264 13.6878 4.62322C13.3113 3.29241 12.608 2.23517 11.5798 1.45149C11.4398 1.34368 11.097 1.11678 10.9586 1.03954C10.9055 1.00897 10.8476 0.976781 10.8331 0.967126C10.7655 0.930115 10.3777 0.74023 10.2811 0.7C10.2232 0.674253 10.1476 0.642069 10.1138 0.629195C9.54575 0.382988 8.5931 0.149655 7.86575 0.0772414C7.74667 0.065977 7.58896 0.0482759 7.51655 0.0418391C7.18828 0.00482758 6.73287 0 4.1469 0C1.96161 0 1.41287 0.00482759 1.42092 0.016092ZM6.74253 0.712873C7.28644 0.745057 7.62115 0.786896 8.01218 0.881839C9.20621 1.16506 10.0462 1.76368 10.6561 2.7646C10.7124 2.85793 10.9506 3.34391 10.986 3.44207C11.1549 3.89747 11.237 4.16782 11.3094 4.52506C11.3271 4.61195 11.3513 4.72782 11.3625 4.78253C11.3738 4.83563 11.3786 4.88552 11.3738 4.89034C11.3657 4.89678 9.75011 4.9 7.78046 4.89839L4.2 4.89517L4.19517 2.82736C4.19356 1.69126 4.19517 0.746667 4.2 0.728965L4.20644 0.698391H5.35057C5.97816 0.698391 6.60575 0.704827 6.74253 0.712873ZM11.5299 6.34988C11.5411 6.41908 11.5411 7.59379 11.5299 7.65172L11.5202 7.69517L7.85931 7.69195L4.2 7.68713L4.19678 7.00483C4.19356 6.62988 4.19678 6.3177 4.2 6.31126C4.20483 6.30322 5.76414 6.29839 7.86414 6.29839H11.5202L11.5299 6.34988ZM11.3657 9.11287C11.3738 9.13701 11.3352 9.33494 11.2563 9.65678C11.1662 10.0188 11.0439 10.3841 10.92 10.6545C10.8588 10.7929 10.706 11.0922 10.669 11.1485C10.6513 11.1743 10.5998 11.2563 10.5547 11.3287C10.2651 11.7825 9.85149 12.1961 9.38 12.5018C9.20782 12.6113 8.85379 12.7979 8.75885 12.8269C8.73954 12.8317 8.71862 12.8414 8.71057 12.8478C8.69931 12.8575 8.55287 12.9122 8.3823 12.9733C8.06851 13.0844 7.47149 13.2051 6.99195 13.2549C6.68138 13.2855 6.63149 13.2871 5.43586 13.2871H4.19839V11.2V9.11126L7.7531 9.10483C9.70827 9.10161 11.3191 9.09678 11.332 9.09356C11.3464 9.09195 11.3609 9.10161 11.3657 9.11287Z" fill="#2E2E2E"/>
</g>
<defs>
<clipPath id="clip0_219_2166">
<rect width="16.092" height="14" fill="white"/>
</clipPath>
</defs>
</svg>
