<svg width="392" height="352" viewBox="0 0 392 352" fill="none" xmlns="http://www.w3.org/2000/svg">
<g clip-path="url(#clip0_4688_3199)">
<path d="M328.542 307.407H61.9129C33.6459 307.407 10.7615 284.523 10.7615 256.256C10.7615 227.989 33.6459 205.105 61.9129 205.105H328.542C356.809 205.105 379.693 227.989 379.693 256.256C379.693 284.487 356.809 307.407 328.542 307.407Z" fill="#E6E6E6"/>
<path d="M331.5 336.28H60.0237C45.017 336.28 32.8618 324.125 32.8618 309.118C32.8618 294.112 45.017 281.956 60.0237 281.956H331.465C346.472 281.956 358.627 294.112 358.627 309.118C358.662 324.09 346.507 336.28 331.5 336.28Z" fill="#E6E6E6"/>
<path d="M325.69 171.063H65.8339C29.618 171.063 0.246094 141.691 0.246094 105.475C0.246094 69.2594 29.618 39.8875 65.8339 39.8875H325.69C361.906 39.8875 391.278 69.2594 391.278 105.475C391.278 141.691 361.906 171.063 325.69 171.063Z" fill="#E6E6E6"/>
<path d="M31.9349 91.324C31.8993 91.324 31.8637 91.324 31.828 91.324C31.0438 91.2527 30.4378 90.5754 30.5091 89.7912C30.7586 86.6187 31.2933 84.8365 31.2933 84.7295C31.5072 83.981 32.327 83.5532 33.0756 83.7671C33.8242 83.981 34.2519 84.8008 34.038 85.5494C34.038 85.585 33.5746 87.1534 33.3608 90.0051C33.3251 90.7536 32.6835 91.324 31.9349 91.324Z" fill="#5F5F5F"/>
<path d="M176.478 215.798C175.694 215.798 175.052 215.157 175.052 214.372C175.052 213.588 175.694 212.947 176.478 212.947C179.65 212.947 182.858 212.804 186.031 212.59C186.815 212.519 187.492 213.125 187.564 213.909C187.635 214.693 187.029 215.371 186.245 215.442C183.037 215.656 179.757 215.798 176.478 215.798C176.513 215.798 176.513 215.798 176.478 215.798ZM166.853 215.371C166.818 215.371 166.747 215.371 166.711 215.371C163.325 215.014 160.045 214.444 156.98 213.695C156.231 213.517 155.768 212.733 155.946 211.984C156.124 211.236 156.908 210.737 157.657 210.95C160.58 211.663 163.717 212.234 166.96 212.555C167.745 212.626 168.315 213.339 168.244 214.123C168.172 214.836 167.566 215.371 166.853 215.371ZM195.762 214.337C195.085 214.337 194.479 213.838 194.372 213.125C194.265 212.341 194.8 211.628 195.584 211.485C198.721 211.022 201.857 210.416 204.959 209.703C205.743 209.525 206.491 210.024 206.67 210.772C206.848 211.556 206.349 212.305 205.6 212.483C202.428 213.196 199.184 213.838 196.012 214.301C195.905 214.337 195.833 214.337 195.762 214.337ZM148.211 210.594C147.997 210.594 147.819 210.558 147.605 210.451C144.504 209.026 141.616 207.315 139.05 205.354C138.408 204.891 138.301 203.964 138.765 203.358C139.228 202.716 140.155 202.609 140.761 203.073C143.149 204.891 145.858 206.495 148.781 207.849C149.494 208.17 149.815 209.026 149.494 209.739C149.245 210.273 148.746 210.594 148.211 210.594ZM214.583 210.024C213.977 210.024 213.407 209.632 213.228 209.026C213.015 208.277 213.407 207.493 214.191 207.243C217.221 206.317 220.251 205.283 223.245 204.107C223.993 203.821 224.813 204.178 225.098 204.926C225.384 205.675 225.027 206.495 224.279 206.78C221.249 207.956 218.112 209.026 215.046 209.952C214.868 209.988 214.725 210.024 214.583 210.024ZM232.62 203.108C232.085 203.108 231.55 202.788 231.336 202.289C231.016 201.576 231.301 200.72 232.014 200.399C234.865 199.081 237.753 197.619 240.569 196.086C241.246 195.694 242.137 195.979 242.493 196.657C242.885 197.334 242.6 198.225 241.923 198.581C239.036 200.15 236.113 201.611 233.19 202.966C233.047 203.073 232.833 203.108 232.62 203.108ZM133.026 198.902C132.598 198.902 132.17 198.724 131.921 198.368C130.816 196.942 129.782 195.445 128.855 193.876C127.323 193.413 125.79 192.949 124.293 192.415C123.544 192.165 123.152 191.345 123.402 190.597C123.651 189.848 124.471 189.456 125.219 189.706C125.825 189.92 126.396 190.098 127.002 190.312C126.93 190.133 126.859 189.991 126.788 189.813C126.467 189.1 126.788 188.244 127.501 187.923C128.214 187.603 129.069 187.923 129.39 188.636C129.818 189.599 130.281 190.526 130.78 191.452C131.992 191.809 133.168 192.094 134.38 192.379C135.129 192.557 135.628 193.342 135.45 194.09C135.272 194.839 134.487 195.338 133.739 195.159C133.489 195.088 133.24 195.053 132.99 194.981C133.382 195.552 133.774 196.086 134.202 196.621C134.701 197.227 134.594 198.154 133.953 198.617C133.667 198.795 133.347 198.902 133.026 198.902ZM152.702 197.476C149.637 197.476 146.5 197.298 143.363 196.906C142.579 196.799 142.009 196.086 142.115 195.302C142.222 194.518 142.935 193.948 143.72 194.054C146.749 194.411 149.779 194.625 152.702 194.625H153.166C153.95 194.625 154.591 195.266 154.591 196.051C154.591 196.835 153.95 197.476 153.166 197.476H152.702ZM162.79 196.728C162.113 196.728 161.471 196.229 161.364 195.516C161.257 194.732 161.792 194.019 162.576 193.876C165.713 193.413 168.814 192.7 171.773 191.773C172.521 191.524 173.341 191.951 173.555 192.7C173.804 193.448 173.377 194.268 172.628 194.482C169.527 195.445 166.283 196.193 163.004 196.692C162.932 196.728 162.861 196.728 162.79 196.728ZM249.622 193.876C249.159 193.876 248.696 193.627 248.411 193.199C247.983 192.522 248.197 191.666 248.874 191.238C251.547 189.563 254.256 187.781 256.859 185.927C257.5 185.464 258.391 185.642 258.855 186.284C259.318 186.925 259.14 187.817 258.498 188.28C255.825 190.169 253.08 191.987 250.371 193.662C250.157 193.805 249.872 193.876 249.622 193.876ZM181.147 190.882C180.613 190.882 180.114 190.597 179.864 190.098C179.508 189.385 179.793 188.529 180.47 188.173C183.286 186.747 185.96 185.036 188.419 183.183C189.061 182.719 189.952 182.826 190.415 183.468C190.879 184.109 190.772 185 190.13 185.464C187.528 187.46 184.712 189.207 181.753 190.739C181.611 190.846 181.361 190.882 181.147 190.882ZM115.773 188.886C115.595 188.886 115.381 188.85 115.203 188.779C112.316 187.496 109.357 186.034 106.434 184.43C105.757 184.038 105.472 183.183 105.864 182.505C106.256 181.828 107.112 181.543 107.789 181.935C110.64 183.468 113.528 184.894 116.344 186.177C117.057 186.498 117.377 187.353 117.057 188.066C116.807 188.565 116.308 188.886 115.773 188.886ZM265.449 182.755C265.021 182.755 264.594 182.577 264.344 182.22C263.845 181.614 263.952 180.687 264.594 180.224C267.089 178.263 269.548 176.196 271.972 174.093C272.578 173.558 273.469 173.63 273.968 174.236C274.503 174.842 274.432 175.733 273.826 176.232C271.366 178.37 268.835 180.474 266.305 182.47C266.055 182.648 265.77 182.755 265.449 182.755ZM125.148 181.436C124.471 181.436 123.901 180.973 123.758 180.295C123.116 177.158 122.76 173.808 122.724 170.421C122.724 169.637 123.33 168.996 124.114 168.96C124.899 168.924 125.54 169.566 125.576 170.35C125.612 173.558 125.968 176.731 126.574 179.689C126.717 180.474 126.218 181.222 125.469 181.365C125.326 181.436 125.255 181.436 125.148 181.436ZM98.7348 179.761C98.4853 179.761 98.2358 179.689 97.9863 179.547C95.1703 177.836 92.4255 176.089 89.7521 174.378C89.1105 173.95 88.8966 173.059 89.36 172.418C89.7878 171.776 90.6789 171.562 91.3205 172.026C93.9227 173.736 96.6674 175.483 99.4477 177.158C100.125 177.551 100.339 178.442 99.9111 179.119C99.6616 179.511 99.1982 179.761 98.7348 179.761ZM196.439 179.226C196.083 179.226 195.762 179.119 195.477 178.869C194.907 178.335 194.835 177.444 195.37 176.873C197.473 174.521 199.362 171.99 200.931 169.352C201.323 168.675 202.214 168.461 202.891 168.853C203.568 169.245 203.782 170.136 203.39 170.814C201.715 173.63 199.719 176.303 197.473 178.798C197.224 179.048 196.831 179.226 196.439 179.226ZM280.028 170.065C279.636 170.065 279.28 169.922 278.994 169.637C278.46 169.067 278.46 168.176 279.03 167.605C281.311 165.395 283.593 163.114 285.803 160.797C286.337 160.227 287.264 160.191 287.835 160.762C288.405 161.296 288.441 162.223 287.906 162.793C285.66 165.146 283.343 167.463 281.026 169.709C280.741 169.922 280.385 170.065 280.028 170.065ZM82.5874 169.138C82.3022 169.138 82.017 169.067 81.7675 168.889C79.0941 166.964 76.4563 165.003 73.9968 163.043C73.3908 162.544 73.2839 161.653 73.7473 161.047C74.2463 160.441 75.1374 160.334 75.7434 160.797C78.203 162.722 80.7694 164.683 83.4072 166.572C84.0488 167.035 84.1914 167.926 83.728 168.568C83.4429 168.924 83.0151 169.138 82.5874 169.138ZM206.242 162.686C206.099 162.686 205.921 162.651 205.778 162.615C205.03 162.366 204.638 161.546 204.887 160.797C205.885 157.803 206.563 154.737 206.812 151.672C206.883 150.888 207.596 150.317 208.345 150.389C209.129 150.46 209.699 151.137 209.628 151.921C209.343 155.201 208.63 158.48 207.561 161.688C207.382 162.33 206.848 162.686 206.242 162.686ZM124.756 162.187C124.685 162.187 124.613 162.187 124.542 162.187C123.758 162.08 123.223 161.367 123.33 160.583C123.794 157.375 124.507 154.131 125.433 150.923C125.647 150.175 126.467 149.747 127.216 149.961C127.964 150.175 128.392 150.995 128.178 151.743C127.287 154.809 126.574 157.91 126.146 160.975C126.075 161.688 125.469 162.187 124.756 162.187ZM67.4024 157.161C67.0815 157.161 66.7251 157.054 66.4756 156.805C63.9804 154.63 61.5921 152.385 59.3465 150.175C58.7761 149.604 58.7761 148.713 59.3465 148.143C59.9168 147.573 60.8079 147.573 61.3783 148.143C63.5883 150.317 65.9409 152.527 68.4004 154.666C69.0064 155.201 69.0421 156.092 68.543 156.662C68.1866 156.983 67.7945 157.161 67.4024 157.161ZM293.36 156.021C293.039 156.021 292.682 155.914 292.433 155.664C291.827 155.165 291.756 154.238 292.29 153.668C294.393 151.244 296.461 148.749 298.421 146.254C298.92 145.648 299.811 145.541 300.417 146.004C301.023 146.503 301.13 147.394 300.667 148C298.706 150.531 296.603 153.062 294.465 155.522C294.144 155.842 293.752 156.021 293.36 156.021ZM130.21 143.687C129.996 143.687 129.818 143.652 129.64 143.545C128.927 143.224 128.606 142.368 128.927 141.655C130.281 138.626 131.885 135.703 133.596 132.958C134.024 132.281 134.915 132.102 135.557 132.53C136.234 132.958 136.412 133.849 135.984 134.491C134.309 137.128 132.812 139.909 131.493 142.832C131.279 143.366 130.745 143.687 130.21 143.687ZM207.882 143.616C207.204 143.616 206.598 143.117 206.491 142.44C205.957 139.374 205.03 136.416 203.675 133.635C203.319 132.922 203.64 132.067 204.353 131.746C205.066 131.39 205.921 131.71 206.242 132.423C207.703 135.453 208.737 138.661 209.307 141.976C209.45 142.76 208.915 143.473 208.131 143.616C208.024 143.616 207.953 143.616 207.882 143.616ZM53.7145 143.545C53.3224 143.545 52.9303 143.366 52.6451 143.046C50.4351 140.55 48.3676 137.984 46.4784 135.453C46.015 134.812 46.1576 133.92 46.7636 133.457C47.4052 132.994 48.2963 133.136 48.7597 133.742C50.6133 136.237 52.6094 138.733 54.7482 141.156C55.2829 141.762 55.2116 142.654 54.6056 143.153C54.3561 143.402 54.0353 143.545 53.7145 143.545ZM42.2366 128.003C41.7375 128.003 41.2741 127.754 41.0246 127.326C39.3136 124.439 37.7452 121.516 36.4264 118.628C36.1055 117.916 36.4264 117.06 37.1393 116.739C37.8522 116.418 38.7077 116.739 39.0285 117.452C40.3117 120.232 41.7732 123.084 43.4485 125.864C43.8406 126.542 43.6268 127.433 42.9495 127.825C42.7356 127.932 42.4861 128.003 42.2366 128.003ZM140.583 127.433C140.262 127.433 139.905 127.326 139.656 127.076C139.05 126.542 139.014 125.651 139.513 125.08C141.759 122.514 144.183 120.232 146.714 118.272C147.32 117.773 148.247 117.916 148.71 118.522C149.209 119.127 149.066 120.054 148.46 120.518C146.072 122.371 143.791 124.546 141.652 126.97C141.403 127.29 141.01 127.433 140.583 127.433ZM199.612 126.435C199.22 126.435 198.828 126.257 198.542 125.936C196.546 123.654 194.229 121.587 191.592 119.733C190.95 119.27 190.807 118.379 191.235 117.737C191.698 117.096 192.59 116.953 193.231 117.381C196.047 119.341 198.542 121.587 200.681 124.011C201.216 124.617 201.145 125.508 200.539 126.007C200.289 126.292 199.933 126.435 199.612 126.435ZM155.839 115.741C155.304 115.741 154.77 115.42 154.556 114.921C154.235 114.208 154.52 113.353 155.233 113.032C158.334 111.571 161.578 110.573 164.822 110.074C165.606 109.967 166.319 110.466 166.461 111.25C166.604 112.034 166.069 112.747 165.285 112.89C162.291 113.389 159.332 114.28 156.445 115.634C156.231 115.706 156.017 115.741 155.839 115.741ZM183.963 115.313C183.785 115.313 183.607 115.278 183.429 115.206C180.47 113.959 177.476 113.139 174.482 112.747C173.697 112.64 173.163 111.927 173.27 111.143C173.377 110.359 174.09 109.824 174.874 109.931C178.082 110.359 181.361 111.25 184.534 112.604C185.247 112.925 185.603 113.745 185.282 114.458C185.033 114.993 184.498 115.313 183.963 115.313ZM34.3233 110.394C33.7173 110.394 33.147 110.002 32.9687 109.361C32.0063 106.117 31.2934 102.873 30.8656 99.7007C30.7587 98.9164 31.329 98.2035 32.0776 98.0966C32.8618 97.9897 33.5747 98.56 33.6816 99.3085C34.0737 102.303 34.751 105.404 35.6778 108.541C35.8917 109.289 35.4639 110.074 34.7154 110.323C34.5728 110.394 34.4658 110.394 34.3233 110.394Z" fill="#5F5F5F"/>
<path d="M305.372 140.657C305.087 140.657 304.802 140.586 304.552 140.408C303.911 139.945 303.732 139.053 304.196 138.412C305.907 135.952 306.798 134.491 306.834 134.491C307.261 133.814 308.117 133.6 308.794 134.027C309.471 134.455 309.685 135.311 309.257 135.988C309.222 136.059 308.331 137.521 306.548 140.051C306.263 140.444 305.835 140.657 305.372 140.657Z" fill="#5F5F5F"/>
<path d="M234.298 225.671L220.315 237.453L249.689 272.316L263.673 260.534L234.298 225.671Z" fill="#C4C4C4"/>
<path d="M249.551 274.328L218.326 237.257L234.473 223.64L265.699 260.712L249.551 274.328ZM222.318 237.613L249.872 270.3L261.671 260.355L234.117 227.668L222.318 237.613Z" fill="#616161"/>
<path d="M327.551 113.943C328.87 111.411 325.847 107.229 320.801 104.601C315.754 101.974 310.595 101.897 309.276 104.429C307.958 106.961 310.981 111.143 316.027 113.771C321.074 116.398 326.233 116.475 327.551 113.943Z" fill="#999999"/>
<path d="M331.75 125.615C331.714 125.615 331.679 125.615 331.679 125.579C331.607 125.544 331.572 125.437 331.607 125.33C333.675 121.516 332.32 117.31 332.32 117.274C332.285 117.167 332.356 117.096 332.427 117.06C332.534 117.024 332.605 117.096 332.641 117.167C332.641 117.203 334.067 121.551 331.928 125.508C331.857 125.579 331.821 125.615 331.75 125.615Z" fill="#999999"/>
<path d="M327.829 125.971C327.793 125.971 327.722 125.936 327.686 125.9C327.615 125.829 327.615 125.722 327.686 125.651C331.108 122.585 329.825 119.234 329.789 119.092C329.754 118.985 329.789 118.914 329.896 118.878C330.003 118.842 330.075 118.878 330.11 118.985C330.11 119.021 331.536 122.692 327.936 125.971C327.9 125.936 327.865 125.971 327.829 125.971Z" fill="#999999"/>
<path d="M327.612 115.531C330.258 114.46 330.673 109.317 328.538 104.043C326.403 98.77 322.528 95.3632 319.882 96.4342C317.236 97.5052 316.822 102.648 318.956 107.922C321.091 113.196 324.967 116.602 327.612 115.531Z" fill="#CCCCCC"/>
<path d="M329.697 120.621C334.549 117.185 337.339 112.784 335.928 110.792C334.517 108.799 329.44 109.97 324.588 113.407C319.736 116.843 316.946 121.244 318.357 123.236C319.768 125.228 324.845 124.057 329.697 120.621Z" fill="#9A9A9A"/>
<path d="M334.419 110.989C335.242 110.316 335.423 109.177 334.825 108.446C334.226 107.714 333.074 107.667 332.252 108.341C331.429 109.014 331.247 110.152 331.846 110.884C332.444 111.615 333.596 111.662 334.419 110.989Z" fill="#818181"/>
<path d="M327.009 338.562L316.529 347.366C310.826 352.178 302.307 351.43 297.494 345.726L235.222 271.833C232.94 269.124 233.297 265.06 236.006 262.779L257.322 244.814C260.031 242.532 264.095 242.889 266.376 245.598L328.649 319.527C333.461 325.23 332.712 333.785 327.009 338.562Z" fill="#9E9E9E"/>
<path d="M307.867 352C307.44 352 307.012 351.964 306.584 351.929C302.592 351.572 298.992 349.719 296.425 346.653L234.152 272.76C231.372 269.445 231.8 264.49 235.079 261.71L256.395 243.744C257.999 242.39 260.031 241.748 262.098 241.927C264.201 242.105 266.091 243.103 267.445 244.671L329.718 318.6C335.029 324.909 334.209 334.355 327.936 339.631L317.456 348.435C314.747 350.788 311.396 352 307.867 352ZM261.457 244.743C260.28 244.743 259.175 245.135 258.249 245.919L236.933 263.884C234.83 265.666 234.544 268.803 236.327 270.906L298.599 344.835C300.667 347.295 303.59 348.828 306.798 349.077C310.006 349.362 313.143 348.364 315.602 346.261L326.082 337.457C328.542 335.389 330.075 332.466 330.324 329.258C330.609 326.05 329.611 322.913 327.508 320.454L265.271 246.525C264.415 245.491 263.203 244.885 261.885 244.778C261.742 244.743 261.599 244.743 261.457 244.743Z" fill="#616161"/>
<path d="M312.751 318.137C311.396 319.277 309.364 319.099 308.224 317.745L259.461 259.892C258.32 258.537 258.498 256.506 259.853 255.365C261.207 254.224 263.239 254.402 264.38 255.757L313.143 313.645C314.248 315 314.105 316.996 312.751 318.137Z" fill="#E5E5E5"/>
<path d="M164.929 52.5416C107.432 52.5416 60.8435 99.1303 60.8435 156.627C60.8435 214.123 107.432 260.712 164.929 260.712C222.425 260.712 269.014 214.123 269.014 156.627C269.014 99.1303 222.425 52.5416 164.929 52.5416ZM165.107 241.285C118.554 241.285 80.805 203.536 80.805 156.983C80.805 110.43 118.554 72.6813 165.107 72.6813C211.66 72.6813 249.409 110.394 249.409 156.983C249.409 203.572 211.66 241.285 165.107 241.285Z" fill="#E6E6E6"/>
<path d="M164.929 262.138C136.733 262.138 110.248 251.159 90.3224 231.233C70.3966 211.307 59.4177 184.787 59.4177 156.627C59.4177 128.467 70.3966 101.946 90.3224 82.0205C110.248 62.0946 136.733 51.1158 164.929 51.1158C193.124 51.1158 219.609 62.0946 239.535 82.0205C259.461 101.946 270.44 128.431 270.44 156.627C270.44 184.822 259.461 211.307 239.535 231.233C219.609 251.159 193.124 262.138 164.929 262.138ZM164.929 53.9674C108.323 53.9674 62.2694 100.022 62.2694 156.627C62.2694 213.232 108.323 259.286 164.929 259.286C221.534 259.286 267.588 213.232 267.588 156.627C267.588 100.022 221.534 53.9674 164.929 53.9674ZM165.107 242.711C142.222 242.711 120.692 233.799 104.474 217.616C88.255 201.433 79.3792 179.868 79.3792 156.983C79.3792 134.099 88.2906 112.569 104.474 96.35C120.657 80.1669 142.187 71.2555 165.107 71.2555C187.991 71.2555 209.521 80.1669 225.74 96.35C241.923 112.533 250.834 134.063 250.834 156.983C250.834 179.868 241.923 201.398 225.74 217.616C209.521 233.764 187.991 242.711 165.107 242.711ZM165.107 74.1072C119.409 74.1072 82.2309 111.286 82.2309 156.983C82.2309 202.681 119.409 239.859 165.107 239.859C210.804 239.859 247.983 202.681 247.983 156.983C247.983 111.286 210.804 74.1072 165.107 74.1072Z" fill="#616161"/>
<path d="M75.6365 126.506C75.4583 126.506 75.28 126.471 75.1018 126.435C74.2463 126.15 73.8186 125.223 74.1037 124.403C74.282 123.94 78.203 112.64 83.3359 106.759C83.9063 106.081 84.94 106.01 85.6172 106.616C86.2945 107.186 86.3658 108.22 85.7598 108.897C81.0546 114.28 77.2049 125.366 77.1692 125.472C76.9197 126.078 76.3138 126.506 75.6365 126.506Z" fill="white"/>
<path d="M88.647 102.802C88.3262 102.802 88.0054 102.695 87.7559 102.517C87.0073 102.018 86.8291 101.02 87.3281 100.307C87.7559 99.7007 97.6653 85.3356 116.985 74.2142C128.356 67.6554 140.618 63.6274 153.415 62.2016C169.42 60.4193 186.28 62.7363 203.604 69.0812C204.424 69.402 204.852 70.2931 204.566 71.1486C204.246 71.9685 203.354 72.3962 202.499 72.1111C164.465 58.1737 135.949 67.0494 118.696 76.9589C99.9467 87.7238 90.0728 102.018 89.9659 102.16C89.6451 102.552 89.1461 102.802 88.647 102.802Z" fill="white"/>
<path d="M217.755 17.894C217.541 17.894 217.328 17.8584 217.114 17.7871C216.615 17.6089 216.187 17.2524 215.973 16.789L211.339 7.52116C211.09 7.05777 211.054 6.52308 211.232 5.9884C211.41 5.48936 211.767 5.06161 212.23 4.84774L221.498 0.213816C222.46 -0.285222 223.672 0.10688 224.171 1.10496L228.805 10.3728C229.304 11.3352 228.912 12.5472 227.914 13.0462L218.646 17.6801C218.361 17.8227 218.04 17.894 217.755 17.894ZM222.389 1.78222C222.354 1.78222 222.318 1.78222 222.282 1.81787L213.014 6.45179C212.943 6.48744 212.907 6.52308 212.907 6.55873C212.907 6.59437 212.872 6.66566 212.907 6.70131L217.541 15.9692C217.577 16.0404 217.613 16.0761 217.648 16.0761C217.684 16.0761 217.755 16.1117 217.791 16.0761L227.059 11.4422C227.166 11.4065 227.201 11.2639 227.166 11.157L222.532 1.88916C222.532 1.81787 222.46 1.78222 222.389 1.78222Z" fill="#616161"/>
<path d="M280.955 75.533C282.825 75.533 284.341 74.0169 284.341 72.1466C284.341 70.2764 282.825 68.7603 280.955 68.7603C279.085 68.7603 277.569 70.2764 277.569 72.1466C277.569 74.0169 279.085 75.533 280.955 75.533Z" fill="white"/>
<path d="M200.218 306.873C202.974 306.873 205.208 304.638 205.208 301.882C205.208 299.126 202.974 296.892 200.218 296.892C197.462 296.892 195.227 299.126 195.227 301.882C195.227 304.638 197.462 306.873 200.218 306.873Z" fill="white"/>
<path d="M334.78 244.493C338.422 244.493 341.374 241.541 341.374 237.899C341.374 234.257 338.422 231.304 334.78 231.304C331.138 231.304 328.185 234.257 328.185 237.899C328.185 241.541 331.138 244.493 334.78 244.493Z" fill="#E6E6E6"/>
<path d="M334.78 245.384C330.645 245.384 327.294 242.034 327.294 237.899C327.294 233.764 330.645 230.413 334.78 230.413C338.915 230.413 342.265 233.764 342.265 237.899C342.265 242.034 338.915 245.384 334.78 245.384ZM334.78 232.195C331.643 232.195 329.076 234.762 329.076 237.899C329.076 241.035 331.643 243.602 334.78 243.602C337.917 243.602 340.483 241.035 340.483 237.899C340.483 234.762 337.917 232.195 334.78 232.195Z" fill="#616161"/>
<path d="M79.8783 296.464L75.5652 284.737C75.3157 284.024 75.886 283.275 76.6346 283.382L89.0392 284.879C89.8234 284.986 90.2155 285.877 89.7165 286.519L81.6249 296.749C81.1259 297.391 80.1635 297.213 79.8783 296.464Z" fill="#E6E6E6"/>
<path d="M80.8407 298.033C80.7337 298.033 80.6268 298.033 80.5555 297.997C79.8782 297.89 79.3079 297.427 79.0584 296.785L74.7453 285.058C74.5314 284.416 74.6383 283.739 75.0304 283.204C75.4582 282.669 76.0998 282.42 76.7414 282.491L89.1461 283.988C89.8233 284.06 90.4293 284.523 90.6788 285.165C90.9283 285.806 90.8214 286.519 90.3937 287.089L82.3021 297.32C81.9457 297.783 81.411 298.033 80.8407 298.033ZM76.5275 284.273C76.4919 284.273 76.4562 284.273 76.4206 284.309C76.385 284.38 76.385 284.416 76.385 284.416L80.6981 296.143C80.6981 296.143 80.7337 296.215 80.805 296.215C80.8763 296.215 80.9119 296.179 80.9119 296.179L89.0035 285.949C89.0035 285.949 89.0391 285.877 89.0035 285.842C88.9678 285.771 88.9322 285.771 88.8965 285.771L76.5275 284.273Z" fill="#616161"/>
</g>
<defs>
<clipPath id="clip0_4688_3199">
<rect width="391.032" height="352" fill="white" transform="translate(0.246094)"/>
</clipPath>
</defs>
</svg>
