<svg width="283" height="89" viewBox="0 0 283 89" fill="none" xmlns="http://www.w3.org/2000/svg">
<g clip-path="url(#clip0_2548_6969)">
<path d="M60.4431 14.1156V34.0938C60.4431 35.561 59.2573 36.7442 57.8 36.7442C56.3369 36.7442 55.1569 35.5551 55.1569 34.0938V14.5001C55.1569 10.2642 52.5846 7.48965 48.6023 7.48965C44.6199 7.48965 42.0004 10.2642 42.0004 14.5001V34.0879C42.0004 35.5551 40.8146 36.7383 39.3573 36.7383C37.8942 36.7383 36.7142 35.5491 36.7142 34.0879V14.5001C36.7142 10.2642 34.0948 7.48965 30.1124 7.48965C26.1301 7.48965 23.5578 10.2642 23.5578 14.5001V34.0879C23.5578 35.5551 22.3719 36.7383 20.9147 36.7383C19.4515 36.7383 18.2716 35.5491 18.2716 34.0879V14.1156C18.2716 7.25301 23.074 2.63263 29.4811 2.63263C33.9473 2.63263 37.5874 4.92212 39.3809 8.61961C41.1745 4.92212 44.8146 2.63263 49.2807 2.63263C55.6879 2.62672 60.4431 7.34767 60.4431 14.1156Z" fill="#1C1D24"/>
<path d="M143.748 3.06451C145.117 3.06451 146.226 4.17672 146.226 5.54923V24.7702C146.226 31.97 140.934 37.182 133.559 37.182C126.178 37.182 120.886 31.97 120.892 24.6164C120.898 18.452 125.459 13.0803 131.571 12.4354C135.653 12.0036 139.14 13.5299 141.276 16.1092V5.54923C141.27 4.17672 142.379 3.06451 143.748 3.06451ZM141.27 24.7702C141.27 20.0966 138.066 16.689 133.6 16.689C129.181 16.689 125.984 20.0966 125.984 24.7702C125.984 29.4912 129.187 32.8515 133.6 32.8515C138.066 32.8515 141.27 29.4912 141.27 24.7702Z" fill="#1C1D24"/>
<path d="M152.946 36.7442C151.565 36.7442 150.444 35.6202 150.444 34.2358V22.043C150.444 16.8783 153.559 13.6127 159.052 12.9324C160.255 12.7845 161.317 13.7488 161.317 14.9675V15.1213C161.317 16.127 160.586 16.9434 159.6 17.1386C156.963 17.6592 155.441 19.4814 155.441 22.4808V34.2358C155.447 35.6202 154.326 36.7442 152.946 36.7442Z" fill="#1C1D24"/>
<path d="M196.893 12.7963C198.262 12.7963 199.371 13.9085 199.371 15.281V27.74C199.371 33.4312 195.731 37.1819 190.149 37.1819C186.362 37.1819 183.406 35.4781 181.949 32.6562C180.492 35.4781 177.53 37.1819 173.748 37.1819C168.167 37.1819 164.527 33.4371 164.527 27.74V15.281C164.527 13.9085 165.636 12.7963 167.005 12.7963H167.052C168.421 12.7963 169.53 13.9085 169.53 15.281V27.8879C169.53 31.053 171.471 33.1946 174.48 33.1946C177.489 33.1946 179.477 31.053 179.477 27.8879V15.281C179.477 13.9085 180.586 12.7963 181.955 12.7963C183.323 12.7963 184.433 13.9085 184.433 15.281V27.8879C184.433 31.053 186.421 33.1946 189.43 33.1946C192.439 33.1946 194.38 31.053 194.38 27.8879V15.281C194.38 13.9085 195.489 12.7963 196.858 12.7963H196.893Z" fill="#1C1D24"/>
<path d="M229.271 24.7702C229.271 31.97 223.932 37.182 216.557 37.182C209.182 37.182 203.796 31.9759 203.796 24.7702C203.796 17.5646 209.182 12.3585 216.557 12.3585C223.932 12.3585 229.271 17.5705 229.271 24.7702ZM208.887 24.7702C208.887 29.4912 212.091 32.8515 216.51 32.8515C220.976 32.8515 224.179 29.4912 224.179 24.7702C224.179 20.0966 220.976 16.689 216.51 16.689C212.091 16.6949 208.887 20.0966 208.887 24.7702Z" fill="#1C1D24"/>
<path d="M236.162 36.7442C234.793 36.7442 233.684 35.632 233.684 34.2595V22.043C233.684 16.8783 236.799 13.6127 242.292 12.9324C243.495 12.7845 244.557 13.7488 244.557 14.9675V15.1213C244.557 16.127 243.826 16.9434 242.84 17.1386C240.197 17.6592 238.681 19.4814 238.681 22.4808V34.2595C238.681 35.632 237.572 36.7442 236.203 36.7442H236.162Z" fill="#1C1D24"/>
<path d="M252.958 5.54923V34.2595C252.958 35.632 251.849 36.7442 250.48 36.7442C249.112 36.7442 248.003 35.632 248.003 34.2595V5.54923C248.003 4.17672 249.112 3.06451 250.48 3.06451C251.849 3.06451 252.958 4.17672 252.958 5.54923Z" fill="#1C1D24"/>
<path d="M280.522 3.06451C281.891 3.06451 283 4.17672 283 5.54923V24.7702C283 31.97 277.708 37.182 270.333 37.182C262.953 37.182 257.661 31.97 257.666 24.6164C257.672 18.452 262.233 13.0803 268.345 12.4354C272.428 12.0036 275.914 13.5299 278.05 16.1092V5.54923C278.05 4.17672 279.159 3.06451 280.522 3.06451ZM278.05 24.7702C278.05 20.0966 274.847 16.689 270.38 16.689C265.961 16.689 262.764 20.0966 262.764 24.7702C262.764 29.4912 265.967 32.8515 270.38 32.8515C274.847 32.8515 278.05 29.4912 278.05 24.7702Z" fill="#1C1D24"/>
<path d="M107.517 14.4468L98.6618 5.4368C99.0571 4.00514 98.7208 2.40782 97.6116 1.28379L97.6057 1.27787C96.4435 0.10059 94.6912 -0.35494 93.1809 0.283985C90.1661 1.56184 89.6764 5.22974 91.7001 7.28851C92.5142 8.11674 93.5821 8.53086 94.6558 8.53086C95.0393 8.53086 95.411 8.45987 95.7827 8.35338L104.408 17.1268C109.323 22.1199 109.541 30.5146 104.615 35.4959C102.237 37.8978 99.0866 39.223 95.7355 39.2289C92.3667 39.2289 89.2045 37.8978 86.8269 35.4781L77.9654 26.474C78.3607 25.0424 78.0244 23.445 76.9152 22.321L76.9094 22.3151C75.7471 21.1378 73.9949 20.6823 72.4845 21.3212C69.4697 22.5991 68.9801 26.267 71.0037 28.3257C71.7943 29.1303 72.8444 29.5681 73.9595 29.5681C74.3489 29.5681 74.7323 29.5089 75.104 29.4024L83.9478 38.3947C87.0982 41.5953 91.2812 43.3582 95.7355 43.3582C98.5792 43.3523 101.311 42.6306 103.736 41.2758C101.482 65.6851 81.2221 84.8529 56.6319 84.8529C31.1921 84.8529 10.3777 64.3363 9.35112 38.726C9.30392 37.6197 8.41306 36.7442 7.3216 36.7442C6.16525 36.7442 5.23898 37.7262 5.28618 38.9035C6.40124 66.7145 29.0091 88.9882 56.6319 88.9882C84.6026 88.9882 107.405 66.1466 107.989 37.8505C113.995 31.2305 113.848 20.8775 107.517 14.4468ZM93.6175 5.34806C93.0452 4.7683 93.0452 3.82174 93.6175 3.24198C93.9007 2.95209 94.2783 2.80419 94.6558 2.80419C95.0334 2.80419 95.4051 2.95209 95.6942 3.24198C96.2665 3.82174 96.2665 4.7683 95.6942 5.34806C95.1219 5.92783 94.1898 5.92783 93.6175 5.34806ZM72.927 26.3853C72.3547 25.8055 72.3547 24.859 72.927 24.2792C73.2102 23.9893 73.5878 23.8414 73.9654 23.8414C74.343 23.8414 74.7146 23.9893 75.0037 24.2792C75.576 24.859 75.576 25.8055 75.0037 26.3853C74.4491 26.9473 73.4816 26.9473 72.927 26.3853Z" fill="#89124B"/>
<path d="M10.9795 28.5682C11.2744 31.2423 9.34522 33.6619 6.67853 33.9577C4.01183 34.2535 1.59883 32.319 1.30384 29.645C1.00885 26.9709 2.93807 24.5572 5.60477 24.2614C8.27736 23.9597 10.6845 25.8942 10.9795 28.5682Z" fill="#89124B"/>
<path d="M2.85547 34.082C1.80531 33.4608 0.955748 32.4787 0.471967 31.3251C-0.0118136 30.1715 -0.135709 28.8582 0.14748 27.6217C0.188778 27.4679 0.212378 27.3082 0.265475 27.1603L0.418869 26.7107C0.548664 26.4208 0.672559 26.125 0.843653 25.8587C1.16814 25.3086 1.56342 24.8057 2.04721 24.3798C2.1593 24.2674 2.2891 24.1668 2.41299 24.0721C2.54279 23.9775 2.66078 23.871 2.80237 23.7941C2.93807 23.7112 3.07376 23.6225 3.20946 23.5456L3.64014 23.3385L3.74634 23.2853L3.85843 23.2439L4.08262 23.1611L4.30682 23.0782C4.38351 23.0487 4.46021 23.0368 4.53691 23.0132C4.6903 22.9777 4.84369 22.9303 5.00299 22.9008L5.47497 22.8298C6.11214 22.7706 6.75522 22.7824 7.38059 22.9126C8.00597 23.0427 8.61365 23.2616 9.17412 23.5693C9.7287 23.8828 10.2302 24.2851 10.6727 24.7406C11.121 25.1962 11.4632 25.7404 11.7405 26.3084C12.2892 27.4501 12.4662 28.7576 12.2479 29.994C12.0296 31.2245 11.416 32.3722 10.537 33.2123C11.3157 32.2776 11.8231 31.1358 11.9529 29.9467C12.0237 29.3551 12.006 28.7576 11.888 28.1778C11.8762 28.1068 11.8585 28.0358 11.8467 27.9589L11.7877 27.7459C11.7464 27.604 11.7169 27.462 11.6638 27.3259L11.5045 26.9177C11.4514 26.7816 11.3747 26.6574 11.3098 26.5213C11.2744 26.4563 11.2449 26.3912 11.2095 26.3261L11.0915 26.1427C11.009 26.0244 10.9441 25.8883 10.8497 25.7818L10.596 25.4387L10.2951 25.1193C9.8821 24.711 9.41601 24.3561 8.90273 24.084C8.38945 23.8177 7.84078 23.6225 7.2744 23.5101C6.70802 23.3977 6.12394 23.3918 5.55167 23.4509L5.12098 23.5101C4.97939 23.5397 4.83779 23.5752 4.7021 23.6107C4.6372 23.6284 4.56641 23.6403 4.49561 23.6639L4.28912 23.7349L4.08262 23.8059L3.98233 23.8414L3.88203 23.8887C3.34515 24.1076 2.86727 24.4448 2.42479 24.8116C1.98231 25.1843 1.60472 25.6339 1.29793 26.1309C0.991147 26.6219 0.749256 27.1603 0.607662 27.7282C0.466068 28.2961 0.383471 28.8818 0.418869 29.4734C0.41297 29.6213 0.436569 29.7692 0.454268 29.9112C0.471967 30.0591 0.483767 30.207 0.513266 30.349C0.566364 30.6389 0.64896 30.9287 0.743357 31.2068C1.13864 32.3427 1.88791 33.3425 2.85547 34.082Z" fill="#89124B"/>
</g>
<defs>
<clipPath id="clip0_2548_6969">
<rect width="283" height="89" fill="white"/>
</clipPath>
</defs>
</svg>
