<svg width="104" height="81" viewBox="0 0 104 81" fill="none" xmlns="http://www.w3.org/2000/svg">
<g clip-path="url(#clip0_650_2116)">
<path d="M53.5908 8.58647C55.1832 6.66389 58.1317 6.66389 59.7241 8.58647C60.9493 10.0657 63.0559 10.4595 64.7327 9.52275C66.9122 8.30524 69.6615 9.37034 70.4519 11.7384C71.06 13.5603 72.882 14.6885 74.7841 14.4207C77.2561 14.0728 79.435 16.0591 79.3166 18.5527C79.2255 20.4713 80.517 22.1815 82.3873 22.6189C84.8181 23.1874 86.1323 25.8268 85.1211 28.1092C84.3431 29.8654 84.9296 31.9266 86.5155 33.0101C88.5768 34.4184 88.8489 37.3542 87.0814 39.1172C85.7216 40.4737 85.5238 42.6076 86.6113 44.1909C88.0247 46.2487 87.2178 49.0845 84.9328 50.09C83.1748 50.8637 82.2195 52.7821 82.6616 54.6513C83.2362 57.0807 81.4594 59.4336 78.9655 59.5457C77.0467 59.632 75.4629 61.0758 75.2 62.9785C74.8582 65.4514 72.3514 67.0035 69.9853 66.2072C68.1649 65.5945 66.1666 66.3687 65.234 68.0479C64.022 70.2304 61.1237 70.7721 59.2052 69.1749C57.729 67.946 55.5859 67.946 54.1098 69.1749C52.1912 70.7721 49.2929 70.2304 48.0809 68.0479C47.1484 66.3687 45.15 65.5945 43.3296 66.2072C40.9636 67.0035 38.4568 65.4514 38.115 62.9785C37.852 61.0758 36.2682 59.632 34.3494 59.5457C31.8555 59.4336 30.0787 57.0807 30.6533 54.6513C31.0954 52.7821 30.1401 50.8637 28.3821 50.09C26.0971 49.0845 25.2902 46.2487 26.7036 44.1909C27.7911 42.6076 27.5934 40.4737 26.2335 39.1172C24.466 37.3542 24.7381 34.4184 26.7994 33.0101C28.3854 31.9266 28.9718 29.8654 28.1938 28.1092C27.1826 25.8268 28.4968 23.1874 30.9276 22.6189C32.7979 22.1815 34.0894 20.4713 33.9983 18.5527C33.8799 16.0591 36.0588 14.0728 38.5309 14.4207C40.4329 14.6885 42.2549 13.5603 42.8631 11.7384C43.6534 9.37034 46.4028 8.30524 48.5822 9.52275C50.259 10.4595 52.3656 10.0657 53.5908 8.58647Z" fill="#00BFFF"/>
<path d="M95.1661 1.19175C95.0543 0.785203 94.6525 0.5 94.1915 0.5C93.7306 0.5 93.3288 0.785203 93.217 1.19175L91.7558 6.50491L85.9114 7.8332C85.4642 7.93484 85.1504 8.30012 85.1504 8.71918C85.1504 9.13824 85.4642 9.50352 85.9114 9.60515L91.7558 10.9334L93.217 16.2466C93.3288 16.6532 93.7306 16.9384 94.1915 16.9384C94.6525 16.9384 95.0543 16.6532 95.1661 16.2466L96.6272 10.9334L102.472 9.60515C102.919 9.50352 103.233 9.13824 103.233 8.71918C103.233 8.30012 102.919 7.93484 102.472 7.8332L96.6272 6.50491L95.1661 1.19175Z" fill="#00BFFF"/>
<path d="M7.4442 41.5089C7.36967 41.2379 7.1018 41.0479 6.79449 41.0479C6.48718 41.0479 6.21931 41.2379 6.14477 41.5089L5.17069 45.0511L1.27437 45.9366C0.976239 46.0043 0.76709 46.2479 0.76709 46.5273C0.76709 46.8067 0.976239 47.0502 1.27437 47.118L5.17069 48.0035L6.14477 51.5456C6.21931 51.8166 6.48718 52.0068 6.79449 52.0068C7.1018 52.0068 7.36967 51.8166 7.4442 51.5456L8.41828 48.0035L12.3146 47.118C12.6127 47.0502 12.8219 46.8067 12.8219 46.5273C12.8219 46.2479 12.6127 46.0043 12.3146 45.9366L8.41828 45.0511L7.4442 41.5089Z" fill="#00BFFF"/>
<path d="M34.7233 72.1013C34.6624 71.8845 34.4432 71.7324 34.1918 71.7324C33.9403 71.7324 33.7212 71.8845 33.6602 72.1013L32.8632 74.935L29.6753 75.6435C29.4314 75.6977 29.2603 75.8925 29.2603 76.116C29.2603 76.3395 29.4314 76.5343 29.6753 76.5885L32.8632 77.2969L33.6602 80.1306C33.7212 80.3474 33.9403 80.4995 34.1918 80.4995C34.4432 80.4995 34.6624 80.3474 34.7233 80.1306L35.5203 77.2969L38.7082 76.5885C38.9521 76.5343 39.1233 76.3395 39.1233 76.116C39.1233 75.8925 38.9521 75.6977 38.7082 75.6435L35.5203 74.935L34.7233 72.1013Z" fill="#00BFFF"/>
<path d="M46.6655 38.9531L55.1587 47.4463L69.647 32.958" stroke="white" stroke-width="3" stroke-linecap="round"/>
<path d="M48.9699 16.2117C48.9089 15.9949 48.6898 15.8428 48.4383 15.8428C48.1869 15.8428 47.9677 15.9949 47.9068 16.2117L47.1098 19.0454L43.9219 19.7538C43.678 19.8081 43.5068 20.0029 43.5068 20.2264C43.5068 20.4499 43.678 20.6447 43.9219 20.6989L47.1098 21.4073L47.9068 24.241C47.9677 24.4578 48.1869 24.6099 48.4383 24.6099C48.6898 24.6099 48.9089 24.4578 48.9699 24.241L49.7669 21.4073L52.9548 20.6989C53.1987 20.6447 53.3699 20.4499 53.3699 20.2264C53.3699 20.0029 53.1987 19.8081 52.9548 19.7538L49.7669 19.0454L48.9699 16.2117Z" fill="white"/>
</g>
<defs>
<clipPath id="clip0_650_2116">
<rect width="104" height="81" fill="white"/>
</clipPath>
</defs>
</svg>
