<svg width="158" height="123" viewBox="0 0 158 123" fill="none" xmlns="http://www.w3.org/2000/svg">
<path d="M82.8516 10.4589C84.4512 8.52764 87.413 8.52764 89.0126 10.4589L91.7741 13.7929C93.0048 15.2789 95.121 15.6744 96.8054 14.7334L100.585 12.6221C102.774 11.3991 105.536 12.469 106.33 14.8478L107.7 18.9542C108.311 20.7844 110.142 21.9176 112.052 21.6487L116.339 21.0452C118.822 20.6957 121.011 22.691 120.892 25.1959L120.687 29.5201C120.595 31.4474 121.893 33.1654 123.771 33.6048L127.987 34.5906C130.428 35.1617 131.749 37.813 130.733 40.1058L128.979 44.0638C128.198 45.8279 128.787 47.8985 130.38 48.9869L133.955 51.4289C136.025 52.8435 136.298 55.7927 134.523 57.5637L131.458 60.621C130.092 61.9836 129.893 64.1272 130.986 65.7176L133.437 69.2861C134.857 71.3532 134.046 74.2019 131.751 75.2119L127.788 76.9556C126.022 77.7327 125.063 79.6598 125.507 81.5374L126.503 85.7503C127.08 88.1907 125.296 90.5542 122.79 90.6669L118.466 90.8614C116.538 90.9481 114.947 92.3984 114.683 94.3097L114.09 98.598C113.747 101.082 111.229 102.641 108.852 101.841L104.749 100.461C102.921 99.8451 100.913 100.623 99.9763 102.31L97.8745 106.094C96.657 108.287 93.7457 108.831 91.8184 107.226L88.4913 104.456C87.0085 103.222 84.8557 103.222 83.3729 104.456L80.0458 107.226C78.1185 108.831 75.2072 108.287 73.9896 106.094L71.8878 102.31C70.9511 100.623 68.9437 99.8451 67.115 100.461L63.0121 101.841C60.6353 102.641 58.1172 101.082 57.7738 98.598L57.1811 94.3097C56.9169 92.3984 55.326 90.9481 53.3985 90.8614L49.0738 90.6669C46.5686 90.5542 44.7837 88.1907 45.3609 85.7503L46.3573 81.5374C46.8015 79.6598 45.8419 77.7327 44.0758 76.9556L40.1134 75.2119C37.8181 74.2019 37.0076 71.3531 38.4274 69.286L40.8784 65.7176C41.9708 64.1272 41.7722 61.9836 40.4061 60.621L37.3412 57.5637C35.5657 55.7927 35.839 52.8435 37.9096 51.4289L41.4842 48.9869C43.0773 47.8985 43.6665 45.8279 42.8849 44.0638L41.1313 40.1058C40.1155 37.813 41.4357 35.1617 43.8776 34.5906L48.0929 33.6047C49.9717 33.1654 51.269 31.4474 51.1775 29.5201L50.9721 25.1959C50.8532 22.691 53.0419 20.6957 55.5252 21.0452L59.812 21.6487C61.7226 21.9176 63.553 20.7844 64.1638 18.9542L65.5344 14.8478C66.3284 12.469 69.0902 11.3991 71.2795 12.6221L75.0588 14.7334C76.7432 15.6744 78.8593 15.2789 80.0901 13.7929L82.8516 10.4589Z" fill="#FF416F"/>
<path d="M145.137 1.06356C144.965 0.4385 144.348 0 143.639 0C142.93 0 142.312 0.4385 142.141 1.06356L139.894 9.23255L130.908 11.2748C130.221 11.4311 129.738 11.9927 129.738 12.637C129.738 13.2813 130.221 13.8429 130.908 13.9992L139.894 16.0414L142.141 24.2104C142.312 24.8355 142.93 25.274 143.639 25.274C144.348 25.274 144.965 24.8355 145.137 24.2104L147.384 16.0414L156.37 13.9992C157.057 13.8429 157.54 13.2813 157.54 12.637C157.54 11.9927 157.057 11.4311 156.37 11.2748L147.384 9.23255L145.137 1.06356Z" fill="#FF416F"/>
<path d="M10.2661 63.0515C10.1515 62.6348 9.73961 62.3425 9.26712 62.3425C8.79464 62.3425 8.38278 62.6348 8.26819 63.0515L6.77054 68.4975L0.779946 69.859C0.321567 69.9632 0 70.3376 0 70.7671C0 71.1967 0.321566 71.5711 0.779946 71.6752L6.77054 73.0367L8.26819 78.4827C8.38278 78.8994 8.79464 79.1918 9.26712 79.1918C9.73961 79.1918 10.1515 78.8994 10.2661 78.4827L11.7637 73.0367L17.7543 71.6752C18.2127 71.5711 18.5342 71.1967 18.5342 70.7671C18.5342 70.3376 18.2127 69.9632 17.7543 69.859L11.7637 68.4975L10.2661 63.0515Z" fill="#FF416F"/>
<path d="M83.6758 67.5692V43.5625C83.6758 42.6652 84.3738 41.9687 85.2695 41.9687C86.1652 41.9687 86.8633 42.6668 86.8633 43.5625V67.5692H83.6758ZM83.6758 70.7057H86.8633V73.6939H83.6758V70.7057ZM59.7695 59.5C59.7695 45.4049 71.1744 34 85.2695 34C99.3647 34 110.77 45.4049 110.77 59.5C110.77 73.5951 99.3647 85 85.2695 85C71.1744 85 59.7695 73.5951 59.7695 59.5ZM107.631 59.5C107.631 47.1978 97.5701 37.1875 85.2695 37.1875C72.969 37.1875 62.957 47.1978 62.957 59.5C62.957 71.8022 72.9674 81.8125 85.2695 81.8125C97.5717 81.8125 107.631 71.8022 107.631 59.5Z" fill="white"/>
<path d="M52.2081 110.088C52.1143 109.754 51.7774 109.521 51.3908 109.521C51.0042 109.521 50.6672 109.754 50.5735 110.088L49.3481 114.445L44.4467 115.534C44.0717 115.617 43.8086 115.917 43.8086 116.26C43.8086 116.604 44.0717 116.903 44.4467 116.987L49.3481 118.076L50.5735 122.433C50.6672 122.766 51.0042 123 51.3908 123C51.7774 123 52.1143 122.766 52.2081 122.433L53.4334 118.076L58.3348 116.987C58.7099 116.903 58.973 116.604 58.973 116.26C58.973 115.917 58.7099 115.617 58.3348 115.534L53.4334 114.445L52.2081 110.088Z" fill="#FF416F"/>
</svg>
