<?xml version="1.0" encoding="UTF-8"?>
<svg version="1.1" xmlns="http://www.w3.org/2000/svg" width="280" height="239">
<path d="M0 0 C7.45961502 6.23674403 10.75117385 14.25669812 13.4375 23.375 C13.77128662 24.46167969 14.10507324 25.54835937 14.44897461 26.66796875 C15.16859813 29.01149806 15.88254533 31.35677663 16.59130859 33.70361328 C17.67042959 37.25630073 18.77693829 40.79908602 19.89453125 44.33984375 C26.76946305 66.12882519 33.4191268 87.98754947 40.0960083 109.83781433 C43.60977957 121.33452613 47.14413185 132.82487606 50.6875 144.3125 C53.06169335 138.6399005 55.16017841 132.99045332 56.86669922 127.08251953 C59.96116849 116.43103055 62.93880655 108.99270625 72.85546875 103.22265625 C81.38374755 98.9857928 94.51501824 99.5387274 103.6875 101.3125 C107.23231431 102.71565566 108.35512126 103.84716976 110.5625 106.9375 C112.03605298 111.35815893 112.0435418 114.8498897 110.6875 119.3125 C107.96407962 122.84558589 106.03416435 124.57713467 101.6875 125.3125 C98.30119298 125.47123314 94.92087793 125.60824215 91.53125 125.65429688 C88.33404016 125.78254317 86.1851667 125.92652804 83.61743164 127.91796875 C81.22924403 130.88107363 80.26234667 133.58796 79.05859375 137.19921875 C78.71226143 138.22251282 78.71226143 138.22251282 78.3589325 139.26647949 C77.86244351 140.73919968 77.37150038 142.21379886 76.88555908 143.69003296 C76.11638021 146.02618001 75.33216607 148.35681682 74.54443359 150.68676758 C72.11212031 157.90457301 69.73454383 165.13932731 67.40608215 172.39128113 C66.44443891 175.38288562 65.47305189 178.371295 64.5017395 181.35977173 C63.82779389 183.45250936 63.17214053 185.55037966 62.51733398 187.64916992 C58.95040778 198.82633627 54.04788309 207.27159971 43.6875 213.3125 C34.12455322 217.21000352 23.44472723 217.51713936 13.8125 213.625 C1.05231373 207.02329485 -2.90562585 195.26530519 -7.10417175 182.26733398 C-7.86739032 179.86765829 -8.62144646 177.46522599 -9.375 175.0625 C-9.88257547 173.4697688 -10.39103548 171.87731921 -10.90039062 170.28515625 C-12.14236078 166.39487841 -13.36881316 162.49991635 -14.59063721 158.60327148 C-15.31844833 156.29362348 -16.05628793 153.98737769 -16.79638672 151.68164062 C-17.25883798 150.23048434 -17.72124247 148.77931315 -18.18359375 147.328125 C-18.39919449 146.66246521 -18.61479523 145.99680542 -18.83692932 145.31097412 C-19.72285843 142.51366949 -20.3125 140.2690682 -20.3125 137.3125 C-20.9725 137.3125 -21.6325 137.3125 -22.3125 137.3125 C-22.395 138.26125 -22.4775 139.21 -22.5625 140.1875 C-23.50059303 146.49713941 -25.37959277 152.37959277 -29.9375 156.9375 C-34.51247394 158.80137827 -38.44437314 159.23898825 -43.3125 158.3125 C-47.98169249 155.10243016 -49.23424192 151.76621585 -50.3125 146.3125 C-49.6171875 143 -49.6171875 143 -48.1875 139.3125 C-47.92396729 138.62188477 -47.66043457 137.93126953 -47.38891602 137.21972656 C-46.76090243 135.58143026 -46.12375267 133.94662137 -45.47998047 132.31445312 C-44.34911737 129.40665457 -43.25818526 126.48577001 -42.1776123 123.55895996 C-41.14214518 120.75988825 -40.09318075 117.96598302 -39.04180908 115.17285156 C-38.51666501 113.773223 -37.99525937 112.37218571 -37.47772217 110.96972656 C-36.73676155 108.96928139 -35.97801832 106.97643437 -35.21484375 104.984375 C-34.77648193 103.8200293 -34.33812012 102.65568359 -33.88647461 101.45605469 C-31.87677932 97.44227517 -29.37882761 94.34566381 -25.3125 92.3125 C-20.08300726 91.91023133 -16.70565425 92.3837305 -12.3125 95.3125 C-8.63508937 100.06737728 -6.76495954 105.00164878 -4.84375 110.66015625 C-4.36793488 112.02991859 -4.36793488 112.02991859 -3.88250732 113.42735291 C-2.85053599 116.40699972 -1.83138594 119.39085609 -0.8125 122.375 C-0.10039117 124.43830857 0.61217827 126.50145823 1.32519531 128.56445312 C4.73598756 138.46894698 8.0700567 148.3949979 11.265625 158.37109375 C11.53922852 159.22413589 11.81283203 160.07717804 12.09472656 160.95606995 C13.37337264 164.95278339 14.63786718 168.95323684 15.88085938 172.96118164 C16.33193093 174.39081942 16.7830972 175.82042731 17.234375 177.25 C17.61432617 178.47589844 17.99427734 179.70179688 18.38574219 180.96484375 C19.77019143 184.52515284 21.32142572 187.31435387 23.6875 190.3125 C27.77432724 191.40718587 30.67261114 191.44829093 34.6875 190.3125 C35.82795144 183.89424442 35.55807641 179.18957049 33.42578125 173.05859375 C33.03963654 171.87558182 33.03963654 171.87558182 32.64569092 170.66867065 C32.07959961 168.94068889 31.50548572 167.2153195 30.92434692 165.49234009 C29.63342592 161.66245291 28.38344582 157.8195206 27.12986755 153.97727966 C26.43879214 151.86055057 25.74566627 149.74449001 25.05067444 147.62904358 C20.69541478 134.35495238 16.5468249 121.01646288 12.390522 107.67911148 C11.53696361 104.94180646 10.6814638 102.2051099 9.82596302 99.46841145 C5.55780617 85.81299197 1.31788896 72.14957756 -2.85546875 58.46484375 C-3.38245613 56.73739677 -3.38245613 56.73739677 -3.92008972 54.97505188 C-5.55964283 49.5963172 -7.19384226 44.21603083 -8.82006836 38.83325195 C-9.39303243 36.94611599 -9.96602846 35.05898972 -10.5390625 33.171875 C-10.7933049 32.32402939 -11.0475473 31.47618378 -11.30949402 30.60264587 C-11.54590103 29.82595047 -11.78230804 29.04925507 -12.02587891 28.24902344 C-12.22758698 27.58046326 -12.42929504 26.91190308 -12.63711548 26.2230835 C-14.07786114 22.12348701 -14.07786114 22.12348701 -17 19.0625 C-21.2269766 17.69158867 -25.1357041 17.9202347 -29.3125 19.3125 C-31.09182428 22.94078142 -32.15349913 26.8548584 -33.34375 30.7109375 C-33.74128275 31.99308565 -34.13882552 33.27523069 -34.53637695 34.55737305 C-34.7441275 35.23005219 -34.95187805 35.90273132 -35.16592407 36.59579468 C-36.27516062 40.18423015 -37.39333222 43.76987626 -38.51171875 47.35546875 C-38.74207321 48.09406631 -38.97242767 48.83266388 -39.20976257 49.59364319 C-41.44326561 56.74632049 -43.70297457 63.89040763 -45.9921875 71.02545166 C-46.60549559 72.93914089 -47.2149214 74.85407299 -47.82421875 76.76904297 C-58.98333972 111.44938157 -58.98333972 111.44938157 -77.4375 121.1875 C-86.41910213 125.63168376 -95.27574806 125.63801213 -105.1015625 125.6484375 C-106.5330722 125.65487551 -107.96458061 125.6616046 -109.39608765 125.66860962 C-112.38323011 125.68052828 -115.37025734 125.68429565 -118.35742188 125.68310547 C-122.17504147 125.68290163 -125.9919221 125.71029393 -129.80936623 125.74464989 C-132.76058318 125.7669299 -135.71162184 125.77094283 -138.66291428 125.76988602 C-140.07027121 125.77223684 -141.47763344 125.78103115 -142.88490677 125.79655075 C-144.85367406 125.81624611 -146.82266103 125.8078411 -148.79150391 125.79833984 C-149.90876862 125.80118988 -151.02603333 125.80403992 -152.17715454 125.80697632 C-156.982233 125.04916588 -160.15466423 122.74049745 -163.1875 119 C-164.66367243 115.47358808 -164.77868895 113.10861 -164.3125 109.3125 C-162.26485825 105.43660668 -160.57981899 102.6536574 -156.3125 101.3125 C-149.93112583 100.10341461 -143.67956883 100.25219122 -137.203125 100.35546875 C-134.81511251 100.37786115 -132.42709108 100.3993161 -130.0390625 100.41992188 C-126.30215992 100.4569379 -122.56571987 100.49994883 -118.82910156 100.55932617 C-115.20370985 100.61416202 -111.57882994 100.64300372 -107.953125 100.66796875 C-106.85067444 100.69175095 -105.74822388 100.71553314 -104.61236572 100.74003601 C-96.81614895 100.76605408 -88.93574017 99.98357557 -82.61274719 94.96281433 C-79.48795629 91.5172226 -78.03430927 87.54863701 -76.62109375 83.1875 C-76.39426407 82.49960892 -76.16743439 81.81171783 -75.93373108 81.10298157 C-75.19259771 78.84355752 -74.47127725 76.57833264 -73.75 74.3125 C-73.23285897 72.72384785 -72.71460967 71.13555608 -72.1953125 69.54760742 C-69.40620228 60.98397996 -66.70222967 52.39336336 -64.00390625 43.80078125 C-63.7348497 42.94491425 -63.46579315 42.08904724 -63.18858337 41.20724487 C-61.88961845 37.07155079 -60.59814312 32.93381799 -59.32202148 28.79101562 C-57.04002411 21.42814074 -54.68239242 14.26687705 -51.3125 7.3125 C-50.6525 7.3125 -49.9925 7.3125 -49.3125 7.3125 C-48.94125 6.384375 -48.94125 6.384375 -48.5625 5.4375 C-47.10621361 2.96181313 -45.93437494 2.36124998 -43.3125 1.3125 C-43.3125 0.6525 -43.3125 -0.0075 -43.3125 -0.6875 C-41.73175436 -1.50502303 -40.14778777 -2.31631997 -38.5625 -3.125 C-37.68078125 -3.57746094 -36.7990625 -4.02992187 -35.890625 -4.49609375 C-24.22187393 -9.88847114 -10.31131705 -6.99766129 0 0 Z " fill="#1BB0FE" transform="translate(165.3125,14.6875)"/>
<path d="M0 0 C2.12508244 3.18762365 2.5020163 5.26512223 3 9 C2.01 8.67 1.02 8.34 0 8 C-0.38063221 5.6739143 -0.71269945 3.33944736 -1 1 C-0.67 0.67 -0.34 0.34 0 0 Z " fill="#21B9FD" transform="translate(210,143)"/>
<path d="" fill="#1F9FFF" transform="translate(0,0)"/>
<path d="M0 0 C2 1 2 1 2 1 Z " fill="#00FFFF" transform="translate(258,141)"/>
<path d="M0 0 C2 1 2 1 2 1 Z " fill="#2A94FF" transform="translate(66,141)"/>
<path d="M0 0 C2 1 2 1 2 1 Z " fill="#00FFFF" transform="translate(53,141)"/>
<path d="M0 0 C2 1 2 1 2 1 Z " fill="#007FFF" transform="translate(34,141)"/>
<path d="M0 0 C2 1 2 1 2 1 Z " fill="#00FFFF" transform="translate(26,141)"/>
<path d="M0 0 C2 1 2 1 2 1 Z " fill="#00FFFF" transform="translate(267,114)"/>
<path d="M0 0 C2 1 2 1 2 1 Z " fill="#00BFFF" transform="translate(141,105)"/>
<path d="" fill="#00BFFF" transform="translate(0,0)"/>
<path d="" fill="#00BFFF" transform="translate(0,0)"/>
<path d="" fill="#1FB4FF" transform="translate(0,0)"/>
<path d="" fill="#00FFFF" transform="translate(0,0)"/>
<path d="" fill="#55AAFF" transform="translate(0,0)"/>
<path d="" fill="#00FFFF" transform="translate(0,0)"/>
<path d="" fill="#00FFFF" transform="translate(0,0)"/>
<path d="" fill="#00FFFF" transform="translate(0,0)"/>
<path d="" fill="#00FFFF" transform="translate(0,0)"/>
<path d="" fill="#00FFFF" transform="translate(0,0)"/>
<path d="" fill="#00FFFF" transform="translate(0,0)"/>
<path d="" fill="#3FBFFF" transform="translate(0,0)"/>
<path d="" fill="#007FFF" transform="translate(0,0)"/>
<path d="" fill="#00FFFF" transform="translate(0,0)"/>
<path d="" fill="#007FFF" transform="translate(0,0)"/>
<path d="" fill="#007FFF" transform="translate(0,0)"/>
<path d="" fill="#00FFFF" transform="translate(0,0)"/>
<path d="" fill="#007FFF" transform="translate(0,0)"/>
<path d="" fill="#00FFFF" transform="translate(0,0)"/>
<path d="" fill="#00FFFF" transform="translate(0,0)"/>
<path d="" fill="#00FFFF" transform="translate(0,0)"/>
<path d="" fill="#00FFFF" transform="translate(0,0)"/>
<path d="" fill="#00FFFF" transform="translate(0,0)"/>
<path d="" fill="#00FFFF" transform="translate(0,0)"/>
<path d="" fill="#007FFF" transform="translate(0,0)"/>
<path d="" fill="#00FFFF" transform="translate(0,0)"/>
<path d="" fill="#007FFF" transform="translate(0,0)"/>
<path d="" fill="#007FFF" transform="translate(0,0)"/>
<path d="" fill="#00FFFF" transform="translate(0,0)"/>
<path d="" fill="#00FFFF" transform="translate(0,0)"/>
<path d="" fill="#55AAFF" transform="translate(0,0)"/>
<path d="" fill="#007FFF" transform="translate(0,0)"/>
<path d="" fill="#007FFF" transform="translate(0,0)"/>
<path d="" fill="#007FFF" transform="translate(0,0)"/>
<path d="" fill="#00FFFF" transform="translate(0,0)"/>
<path d="" fill="#00FFFF" transform="translate(0,0)"/>
<path d="" fill="#00AAFF" transform="translate(0,0)"/>
<path d="" fill="#00FFFF" transform="translate(0,0)"/>
<path d="" fill="#00FFFF" transform="translate(0,0)"/>
<path d="" fill="#7F7FFF" transform="translate(0,0)"/>
<path d="" fill="#00FFFF" transform="translate(0,0)"/>
<path d="" fill="#00FFFF" transform="translate(0,0)"/>
<path d="" fill="#00FFFF" transform="translate(0,0)"/>
<path d="" fill="#007FFF" transform="translate(0,0)"/>
<path d="" fill="#00FFFF" transform="translate(0,0)"/>
<path d="" fill="#00FFFF" transform="translate(0,0)"/>
<path d="" fill="#00AAFF" transform="translate(0,0)"/>
<path d="" fill="#00FFFF" transform="translate(0,0)"/>
<path d="" fill="#007FFF" transform="translate(0,0)"/>
<path d="" fill="#007FFF" transform="translate(0,0)"/>
<path d="" fill="#00FFFF" transform="translate(0,0)"/>
<path d="" fill="#007FFF" transform="translate(0,0)"/>
<path d="" fill="#00FFFF" transform="translate(0,0)"/>
<path d="" fill="#00FFFF" transform="translate(0,0)"/>
<path d="" fill="#00FFFF" transform="translate(0,0)"/>
<path d="" fill="#00FFFF" transform="translate(0,0)"/>
</svg>
